G04 #@! TF.GenerationSoftware,KiCad,Pcbnew,7.0.8*
G04 #@! TF.CreationDate,2023-12-11T18:28:00+01:00*
G04 #@! TF.ProjectId,stm_bob,73746d5f-626f-4622-9e6b-696361645f70,rev?*
G04 #@! TF.SameCoordinates,Original*
G04 #@! TF.FileFunction,Soldermask,Top*
G04 #@! TF.FilePolarity,Negative*
%FSLAX46Y46*%
G04 Gerber Fmt 4.6, Leading zero omitted, Abs format (unit mm)*
G04 Created by KiCad (PCBNEW 7.0.8) date 2023-12-11 18:28:00*
%MOMM*%
%LPD*%
G01*
G04 APERTURE LIST*
G04 Aperture macros list*
%AMRoundRect*
0 Rectangle with rounded corners*
0 $1 Rounding radius*
0 $2 $3 $4 $5 $6 $7 $8 $9 X,Y pos of 4 corners*
0 Add a 4 corners polygon primitive as box body*
4,1,4,$2,$3,$4,$5,$6,$7,$8,$9,$2,$3,0*
0 Add four circle primitives for the rounded corners*
1,1,$1+$1,$2,$3*
1,1,$1+$1,$4,$5*
1,1,$1+$1,$6,$7*
1,1,$1+$1,$8,$9*
0 Add four rect primitives between the rounded corners*
20,1,$1+$1,$2,$3,$4,$5,0*
20,1,$1+$1,$4,$5,$6,$7,0*
20,1,$1+$1,$6,$7,$8,$9,0*
20,1,$1+$1,$8,$9,$2,$3,0*%
G04 Aperture macros list end*
%ADD10R,1.700000X1.700000*%
%ADD11O,1.700000X1.700000*%
%ADD12R,0.650000X2.000000*%
%ADD13RoundRect,0.150000X0.150000X-0.825000X0.150000X0.825000X-0.150000X0.825000X-0.150000X-0.825000X0*%
%ADD14RoundRect,0.250000X-0.250000X-0.250000X0.250000X-0.250000X0.250000X0.250000X-0.250000X0.250000X0*%
%ADD15R,1.780000X2.000000*%
%ADD16RoundRect,0.100000X-0.217500X-0.100000X0.217500X-0.100000X0.217500X0.100000X-0.217500X0.100000X0*%
%ADD17R,1.409700X0.355600*%
%ADD18C,3.200000*%
%ADD19RoundRect,0.102000X-0.704000X0.704000X-0.704000X-0.704000X0.704000X-0.704000X0.704000X0.704000X0*%
%ADD20C,1.612000*%
%ADD21C,2.604000*%
%ADD22RoundRect,0.250000X0.450000X-0.325000X0.450000X0.325000X-0.450000X0.325000X-0.450000X-0.325000X0*%
%ADD23RoundRect,0.100000X0.217500X0.100000X-0.217500X0.100000X-0.217500X-0.100000X0.217500X-0.100000X0*%
%ADD24RoundRect,0.100000X0.100000X-0.217500X0.100000X0.217500X-0.100000X0.217500X-0.100000X-0.217500X0*%
%ADD25R,2.438400X3.505200*%
%ADD26C,2.500000*%
%ADD27RoundRect,0.102000X-0.754000X-0.754000X0.754000X-0.754000X0.754000X0.754000X-0.754000X0.754000X0*%
%ADD28C,1.712000*%
%ADD29R,3.505200X2.438400*%
%ADD30RoundRect,0.250001X-0.462499X-1.074999X0.462499X-1.074999X0.462499X1.074999X-0.462499X1.074999X0*%
%ADD31RoundRect,0.250001X-1.074999X0.462499X-1.074999X-0.462499X1.074999X-0.462499X1.074999X0.462499X0*%
%ADD32R,2.400000X2.400000*%
%ADD33C,2.400000*%
%ADD34RoundRect,0.250000X-1.500000X-1.000000X1.500000X-1.000000X1.500000X1.000000X-1.500000X1.000000X0*%
%ADD35RoundRect,0.100000X-0.100000X0.217500X-0.100000X-0.217500X0.100000X-0.217500X0.100000X0.217500X0*%
%ADD36RoundRect,0.250000X-0.450000X0.325000X-0.450000X-0.325000X0.450000X-0.325000X0.450000X0.325000X0*%
%ADD37RoundRect,0.250000X-0.325000X-0.450000X0.325000X-0.450000X0.325000X0.450000X-0.325000X0.450000X0*%
%ADD38RoundRect,0.150000X-0.150000X0.825000X-0.150000X-0.825000X0.150000X-0.825000X0.150000X0.825000X0*%
%ADD39R,1.300000X1.300000*%
%ADD40C,1.300000*%
%ADD41RoundRect,0.102000X0.609000X0.609000X-0.609000X0.609000X-0.609000X-0.609000X0.609000X-0.609000X0*%
%ADD42C,1.422000*%
%ADD43R,1.200000X1.200000*%
G04 APERTURE END LIST*
D10*
X60711000Y-50673000D03*
D11*
X58171000Y-50673000D03*
D12*
X144519028Y-128475423D03*
X142619028Y-128475423D03*
X143569028Y-131895423D03*
D13*
X153797000Y-143572000D03*
X155067000Y-143572000D03*
X156337000Y-143572000D03*
X157607000Y-143572000D03*
X157607000Y-138622000D03*
X156337000Y-138622000D03*
X155067000Y-138622000D03*
X153797000Y-138622000D03*
D14*
X149352000Y-159639000D03*
X151852000Y-159639000D03*
D10*
X61087000Y-115189000D03*
D11*
X61087000Y-117729000D03*
D15*
X91059700Y-153609000D03*
X93599700Y-153609000D03*
X93599700Y-144079000D03*
X91059700Y-144079000D03*
D16*
X137387500Y-95631000D03*
X138202500Y-95631000D03*
X49884500Y-87249000D03*
X50699500Y-87249000D03*
D10*
X66558000Y-165862000D03*
D11*
X69098000Y-165862000D03*
X71638000Y-165862000D03*
X74178000Y-165862000D03*
D17*
X55784750Y-64795400D03*
X55784750Y-64145414D03*
X55784750Y-63495428D03*
X55784750Y-62845442D03*
X55784750Y-62195456D03*
X55784750Y-61545470D03*
X55784750Y-60895484D03*
X49879250Y-60895484D03*
X49879250Y-61545470D03*
X49879250Y-62195456D03*
X49879250Y-62845442D03*
X49879250Y-63495428D03*
X49879250Y-64145414D03*
X49879250Y-64795400D03*
D18*
X30226000Y-137414000D03*
X30226000Y-148844000D03*
D19*
X36576000Y-138684000D03*
D20*
X39116000Y-139954000D03*
X36576000Y-141224000D03*
X39116000Y-142494000D03*
X36576000Y-143764000D03*
X39116000Y-145034000D03*
X36576000Y-146304000D03*
X39116000Y-147574000D03*
D21*
X27176000Y-135379000D03*
X27176000Y-150879000D03*
D22*
X154178000Y-95513000D03*
X154178000Y-93463000D03*
D10*
X154813000Y-114935000D03*
D11*
X154813000Y-117475000D03*
D23*
X118847000Y-33655000D03*
X118032000Y-33655000D03*
D24*
X91059700Y-157709000D03*
X91059700Y-156894000D03*
D18*
X30226000Y-97917000D03*
X30226000Y-109347000D03*
D19*
X36576000Y-99187000D03*
D20*
X39116000Y-100457000D03*
X36576000Y-101727000D03*
X39116000Y-102997000D03*
X36576000Y-104267000D03*
X39116000Y-105537000D03*
X36576000Y-106807000D03*
X39116000Y-108077000D03*
D21*
X27176000Y-95882000D03*
X27176000Y-111382000D03*
D10*
X31115000Y-165735000D03*
D11*
X31115000Y-163195000D03*
X31115000Y-160655000D03*
X31115000Y-158115000D03*
D16*
X49884500Y-146431000D03*
X50699500Y-146431000D03*
D24*
X144505117Y-125004223D03*
X144505117Y-124189223D03*
D25*
X56235600Y-35712400D03*
X53086000Y-35712400D03*
D23*
X124054700Y-140208000D03*
X123239700Y-140208000D03*
X55652500Y-126822000D03*
X54837500Y-126822000D03*
D26*
X157000000Y-165000000D03*
D15*
X106299700Y-153609000D03*
X108839700Y-153609000D03*
X108839700Y-144079000D03*
X106299700Y-144079000D03*
D23*
X69749500Y-151384000D03*
X68934500Y-151384000D03*
D27*
X72771000Y-74855000D03*
D28*
X75311000Y-74855000D03*
X72771000Y-77395000D03*
X75311000Y-77395000D03*
X72771000Y-79935000D03*
X75311000Y-79935000D03*
X72771000Y-82475000D03*
X75311000Y-82475000D03*
X72771000Y-85015000D03*
X75311000Y-85015000D03*
X72771000Y-87555000D03*
X75311000Y-87555000D03*
X72771000Y-90095000D03*
X75311000Y-90095000D03*
X72771000Y-92635000D03*
X75311000Y-92635000D03*
X72771000Y-95175000D03*
X75311000Y-95175000D03*
X72771000Y-97715000D03*
X75311000Y-97715000D03*
X72771000Y-100255000D03*
X75311000Y-100255000D03*
X72771000Y-102795000D03*
X75311000Y-102795000D03*
X72771000Y-105335000D03*
X75311000Y-105335000D03*
X72771000Y-107875000D03*
X75311000Y-107875000D03*
X72771000Y-110415000D03*
X75311000Y-110415000D03*
X72771000Y-112955000D03*
X75311000Y-112955000D03*
X72771000Y-115495000D03*
X75311000Y-115495000D03*
X72771000Y-118035000D03*
X75311000Y-118035000D03*
X72771000Y-120575000D03*
X75311000Y-120575000D03*
X72771000Y-123115000D03*
X75311000Y-123115000D03*
X72771000Y-125655000D03*
X75311000Y-125655000D03*
X72771000Y-128195000D03*
X75311000Y-128195000D03*
X72771000Y-130735000D03*
X75311000Y-130735000D03*
X72771000Y-133275000D03*
X75311000Y-133275000D03*
X72771000Y-135815000D03*
X75311000Y-135815000D03*
D27*
X123571000Y-74855000D03*
D28*
X126111000Y-74855000D03*
X123571000Y-77395000D03*
X126111000Y-77395000D03*
X123571000Y-79935000D03*
X126111000Y-79935000D03*
X123571000Y-82475000D03*
X126111000Y-82475000D03*
X123571000Y-85015000D03*
X126111000Y-85015000D03*
X123571000Y-87555000D03*
X126111000Y-87555000D03*
X123571000Y-90095000D03*
X126111000Y-90095000D03*
X123571000Y-92635000D03*
X126111000Y-92635000D03*
X123571000Y-95175000D03*
X126111000Y-95175000D03*
X123571000Y-97715000D03*
X126111000Y-97715000D03*
X123571000Y-100255000D03*
X126111000Y-100255000D03*
X123571000Y-102795000D03*
X126111000Y-102795000D03*
X123571000Y-105335000D03*
X126111000Y-105335000D03*
X123571000Y-107875000D03*
X126111000Y-107875000D03*
X123571000Y-110415000D03*
X126111000Y-110415000D03*
X123571000Y-112955000D03*
X126111000Y-112955000D03*
X123571000Y-115495000D03*
X126111000Y-115495000D03*
X123571000Y-118035000D03*
X126111000Y-118035000D03*
X123571000Y-120575000D03*
X126111000Y-120575000D03*
X123571000Y-123115000D03*
X126111000Y-123115000D03*
X123571000Y-125655000D03*
X126111000Y-125655000D03*
X123571000Y-128195000D03*
X126111000Y-128195000D03*
X123571000Y-130735000D03*
X126111000Y-130735000D03*
X123571000Y-133275000D03*
X126111000Y-133275000D03*
X123571000Y-135815000D03*
X126111000Y-135815000D03*
D29*
X146063700Y-63381250D03*
X146063700Y-66530850D03*
D17*
X55784750Y-104311958D03*
X55784750Y-103661972D03*
X55784750Y-103011986D03*
X55784750Y-102362000D03*
X55784750Y-101712014D03*
X55784750Y-101062028D03*
X55784750Y-100412042D03*
X49879250Y-100412042D03*
X49879250Y-101062028D03*
X49879250Y-101712014D03*
X49879250Y-102362000D03*
X49879250Y-103011986D03*
X49879250Y-103661972D03*
X49879250Y-104311958D03*
D30*
X40459000Y-45629500D03*
X43434000Y-45629500D03*
D31*
X53086000Y-41148000D03*
X53086000Y-44123000D03*
D23*
X131547000Y-33782000D03*
X130732000Y-33782000D03*
D24*
X98672548Y-157697425D03*
X98672548Y-156882425D03*
X147447000Y-110897500D03*
X147447000Y-110082500D03*
D16*
X138493017Y-111760000D03*
X139308017Y-111760000D03*
D10*
X74041000Y-157607000D03*
D11*
X71501000Y-157607000D03*
X68961000Y-157607000D03*
D32*
X149578000Y-36422000D03*
D33*
X146078000Y-36422000D03*
D24*
X113919700Y-157709000D03*
X113919700Y-156894000D03*
D23*
X55779500Y-66802000D03*
X54964500Y-66802000D03*
D24*
X151511000Y-140615500D03*
X151511000Y-139800500D03*
D34*
X146064900Y-46990000D03*
X152564900Y-46990000D03*
D16*
X143557965Y-137062628D03*
X144372965Y-137062628D03*
D10*
X130683000Y-166878000D03*
D11*
X130683000Y-164338000D03*
X130683000Y-161798000D03*
D10*
X92075000Y-166878000D03*
D11*
X92075000Y-164338000D03*
X92075000Y-161798000D03*
D24*
X83439700Y-157709000D03*
X83439700Y-156894000D03*
D23*
X36094500Y-48133000D03*
X35279500Y-48133000D03*
D15*
X83439700Y-153609000D03*
X85979700Y-153609000D03*
X85979700Y-144079000D03*
X83439700Y-144079000D03*
D10*
X99187000Y-166878000D03*
D11*
X99187000Y-164338000D03*
X99187000Y-161798000D03*
D10*
X84709000Y-166878000D03*
D11*
X84709000Y-164338000D03*
X84709000Y-161798000D03*
D26*
X24000000Y-165000000D03*
D24*
X136950750Y-154422000D03*
X136950750Y-153607000D03*
D18*
X30226000Y-78105000D03*
X30226000Y-89535000D03*
D19*
X36576000Y-79375000D03*
D20*
X39116000Y-80645000D03*
X36576000Y-81915000D03*
X39116000Y-83185000D03*
X36576000Y-84455000D03*
X39116000Y-85725000D03*
X36576000Y-86995000D03*
X39116000Y-88265000D03*
D21*
X27176000Y-76070000D03*
X27176000Y-91570000D03*
D35*
X140970000Y-95680000D03*
X140970000Y-96495000D03*
D15*
X121539700Y-153609000D03*
X124079700Y-153609000D03*
X124079700Y-144079000D03*
X121539700Y-144079000D03*
D36*
X138557000Y-36948000D03*
X138557000Y-38998000D03*
D37*
X125306500Y-33782000D03*
X127356500Y-33782000D03*
D23*
X85954700Y-140208000D03*
X85139700Y-140208000D03*
D24*
X121539700Y-157709000D03*
X121539700Y-156894000D03*
D26*
X24000000Y-35000000D03*
D30*
X149171000Y-87401400D03*
X152146000Y-87401400D03*
D37*
X112624000Y-33655000D03*
X114674000Y-33655000D03*
D30*
X150889700Y-66530850D03*
X153864700Y-66530850D03*
D16*
X149479000Y-93472000D03*
X150294000Y-93472000D03*
D23*
X93574700Y-140208000D03*
X92759700Y-140208000D03*
D10*
X41402000Y-165862000D03*
D11*
X43942000Y-165862000D03*
X46482000Y-165862000D03*
X49022000Y-165862000D03*
D24*
X152654000Y-135992000D03*
X152654000Y-135177000D03*
D35*
X156591000Y-98906500D03*
X156591000Y-99721500D03*
D23*
X55808747Y-107062666D03*
X54993747Y-107062666D03*
D10*
X114935000Y-166878000D03*
D11*
X114935000Y-164338000D03*
X114935000Y-161798000D03*
D24*
X129159700Y-157709000D03*
X129159700Y-156894000D03*
D23*
X156669000Y-147574000D03*
X155854000Y-147574000D03*
D17*
X55784750Y-84499958D03*
X55784750Y-83849972D03*
X55784750Y-83199986D03*
X55784750Y-82550000D03*
X55784750Y-81900014D03*
X55784750Y-81250028D03*
X55784750Y-80600042D03*
X49879250Y-80600042D03*
X49879250Y-81250028D03*
X49879250Y-81900014D03*
X49879250Y-82550000D03*
X49879250Y-83199986D03*
X49879250Y-83849972D03*
X49879250Y-84499958D03*
D35*
X143300750Y-144792500D03*
X143300750Y-145607500D03*
D26*
X157000000Y-35000000D03*
D16*
X71474500Y-151384000D03*
X72289500Y-151384000D03*
D23*
X55779500Y-87249000D03*
X54964500Y-87249000D03*
D15*
X98679700Y-153609000D03*
X101219700Y-153609000D03*
X101219700Y-144079000D03*
X98679700Y-144079000D03*
D30*
X146100200Y-58606050D03*
X149075200Y-58606050D03*
D16*
X49809000Y-126822000D03*
X50624000Y-126822000D03*
D18*
X30226000Y-117729000D03*
X30226000Y-129159000D03*
D19*
X36576000Y-118999000D03*
D20*
X39116000Y-120269000D03*
X36576000Y-121539000D03*
X39116000Y-122809000D03*
X36576000Y-124079000D03*
X39116000Y-125349000D03*
X36576000Y-126619000D03*
X39116000Y-127889000D03*
D21*
X27176000Y-115694000D03*
X27176000Y-131194000D03*
D36*
X31115000Y-46092000D03*
X31115000Y-48142000D03*
D23*
X55779500Y-146431000D03*
X54964500Y-146431000D03*
X131623900Y-140208000D03*
X130808900Y-140208000D03*
D15*
X113919700Y-153609000D03*
X116459700Y-153609000D03*
X116459700Y-144079000D03*
X113919700Y-144079000D03*
X143300750Y-149249500D03*
X140760750Y-149249500D03*
X140760750Y-158779500D03*
X143300750Y-158779500D03*
D18*
X30226000Y-58420000D03*
X30226000Y-69850000D03*
D19*
X36576000Y-59690000D03*
D20*
X39116000Y-60960000D03*
X36576000Y-62230000D03*
X39116000Y-63500000D03*
X36576000Y-64770000D03*
X39116000Y-66040000D03*
X36576000Y-67310000D03*
X39116000Y-68580000D03*
D21*
X27176000Y-56385000D03*
X27176000Y-71885000D03*
D10*
X154813000Y-105918000D03*
D11*
X154813000Y-103378000D03*
D10*
X54102000Y-165862000D03*
D11*
X56642000Y-165862000D03*
X59182000Y-165862000D03*
X61722000Y-165862000D03*
D15*
X129159700Y-153609000D03*
X131699700Y-153609000D03*
X131699700Y-144079000D03*
X129159700Y-144079000D03*
D38*
X144996517Y-102953882D03*
X143726517Y-102953882D03*
X142456517Y-102953882D03*
X141186517Y-102953882D03*
X141186517Y-107903882D03*
X142456517Y-107903882D03*
X143726517Y-107903882D03*
X144996517Y-107903882D03*
D39*
X42164000Y-34616500D03*
D40*
X39624000Y-34616500D03*
X37084000Y-34616500D03*
D39*
X150922398Y-75500537D03*
D40*
X148382398Y-75500537D03*
X145842398Y-75500537D03*
D17*
X55752300Y-124149358D03*
X55752300Y-123499372D03*
X55752300Y-122849386D03*
X55752300Y-122199400D03*
X55752300Y-121549414D03*
X55752300Y-120899428D03*
X55752300Y-120249442D03*
X49846800Y-120249442D03*
X49846800Y-120899428D03*
X49846800Y-121549414D03*
X49846800Y-122199400D03*
X49846800Y-122849386D03*
X49846800Y-123499372D03*
X49846800Y-124149358D03*
D31*
X60960000Y-35723500D03*
X60960000Y-38698500D03*
D10*
X60833000Y-95382000D03*
D11*
X60833000Y-92842000D03*
D23*
X116434700Y-140157200D03*
X115619700Y-140157200D03*
X144372965Y-135058628D03*
X143557965Y-135058628D03*
D24*
X106299700Y-157709000D03*
X106299700Y-156894000D03*
D35*
X65659000Y-147801500D03*
X65659000Y-148616500D03*
X154559000Y-98906500D03*
X154559000Y-99721500D03*
D10*
X142748000Y-165862000D03*
D11*
X145288000Y-165862000D03*
X147828000Y-165862000D03*
X150368000Y-165862000D03*
D10*
X24384000Y-48260000D03*
D11*
X24384000Y-45720000D03*
D16*
X49884500Y-66802000D03*
X50699500Y-66802000D03*
D35*
X156337000Y-133958500D03*
X156337000Y-134773500D03*
D23*
X101194700Y-140208000D03*
X100379700Y-140208000D03*
D41*
X146302580Y-116575882D03*
D42*
X143762580Y-116575882D03*
X141222580Y-116575882D03*
D16*
X49884500Y-107086400D03*
X50699500Y-107086400D03*
D24*
X138557000Y-43131000D03*
X138557000Y-42316000D03*
D10*
X107569000Y-166878000D03*
D11*
X107569000Y-164338000D03*
X107569000Y-161798000D03*
D24*
X142621000Y-125004223D03*
X142621000Y-124189223D03*
D10*
X122555000Y-166878000D03*
D11*
X122555000Y-164338000D03*
X122555000Y-161798000D03*
D17*
X55784750Y-143789400D03*
X55784750Y-143139414D03*
X55784750Y-142489428D03*
X55784750Y-141839442D03*
X55784750Y-141189456D03*
X55784750Y-140539470D03*
X55784750Y-139889484D03*
X49879250Y-139889484D03*
X49879250Y-140539470D03*
X49879250Y-141189456D03*
X49879250Y-141839442D03*
X49879250Y-142489428D03*
X49879250Y-143139414D03*
X49879250Y-143789400D03*
D43*
X144783000Y-140208000D03*
X141983000Y-140208000D03*
D23*
X108788600Y-140208000D03*
X107973600Y-140208000D03*
M02*
