%TF.GenerationSoftware,KiCad,Pcbnew,7.0.8*%
%TF.CreationDate,2023-12-11T18:28:23+01:00*%
%TF.ProjectId,stm_bob,73746d5f-626f-4622-9e6b-696361645f70,rev?*%
%TF.SameCoordinates,Original*%
%TF.FileFunction,Drillmap*%
%TF.FilePolarity,Positive*%
%FSLAX45Y45*%
G04 Gerber Fmt 4.5, Leading zero omitted, Abs format (unit mm)*
G04 Created by KiCad (PCBNEW 7.0.8) date 2023-12-11 18:28:23*
%MOMM*%
%LPD*%
G01*
G04 APERTURE LIST*
%ADD10C,0.100000*%
%ADD11C,0.200000*%
%ADD12C,0.250000*%
%ADD13C,0.320000*%
G04 APERTURE END LIST*
D10*
X2000000Y-3000000D02*
X16200000Y-3000000D01*
X16200000Y-17100000D01*
X2000000Y-17100000D01*
X2000000Y-3000000D01*
D11*
D12*
X2275000Y-3375000D02*
X2525000Y-3625000D01*
X2525000Y-3375000D02*
X2275000Y-3625000D01*
X2275000Y-16375000D02*
X2525000Y-16625000D01*
X2525000Y-16375000D02*
X2275000Y-16625000D01*
X15575000Y-3375000D02*
X15825000Y-3625000D01*
X15825000Y-3375000D02*
X15575000Y-3625000D01*
X15575000Y-16375000D02*
X15825000Y-16625000D01*
X15825000Y-16375000D02*
X15575000Y-16625000D01*
D13*
X3182600Y-5842000D02*
G75*
G03*
X3182600Y-5842000I-160000J0D01*
G01*
X3182600Y-6985000D02*
G75*
G03*
X3182600Y-6985000I-160000J0D01*
G01*
X3182600Y-7810500D02*
G75*
G03*
X3182600Y-7810500I-160000J0D01*
G01*
X3182600Y-8953500D02*
G75*
G03*
X3182600Y-8953500I-160000J0D01*
G01*
X3182600Y-9791700D02*
G75*
G03*
X3182600Y-9791700I-160000J0D01*
G01*
X3182600Y-10934700D02*
G75*
G03*
X3182600Y-10934700I-160000J0D01*
G01*
X3182600Y-11772900D02*
G75*
G03*
X3182600Y-11772900I-160000J0D01*
G01*
X3182600Y-12915900D02*
G75*
G03*
X3182600Y-12915900I-160000J0D01*
G01*
X3182600Y-13741400D02*
G75*
G03*
X3182600Y-13741400I-160000J0D01*
G01*
X3182600Y-14884400D02*
G75*
G03*
X3182600Y-14884400I-160000J0D01*
G01*
D11*
X2255777Y-17416484D02*
X2255777Y-17216484D01*
X2255777Y-17216484D02*
X2303396Y-17216484D01*
X2303396Y-17216484D02*
X2331967Y-17226008D01*
X2331967Y-17226008D02*
X2351015Y-17245055D01*
X2351015Y-17245055D02*
X2360539Y-17264103D01*
X2360539Y-17264103D02*
X2370063Y-17302198D01*
X2370063Y-17302198D02*
X2370063Y-17330770D01*
X2370063Y-17330770D02*
X2360539Y-17368865D01*
X2360539Y-17368865D02*
X2351015Y-17387912D01*
X2351015Y-17387912D02*
X2331967Y-17406960D01*
X2331967Y-17406960D02*
X2303396Y-17416484D01*
X2303396Y-17416484D02*
X2255777Y-17416484D01*
X2455777Y-17416484D02*
X2455777Y-17283150D01*
X2455777Y-17321246D02*
X2465301Y-17302198D01*
X2465301Y-17302198D02*
X2474824Y-17292674D01*
X2474824Y-17292674D02*
X2493872Y-17283150D01*
X2493872Y-17283150D02*
X2512920Y-17283150D01*
X2579586Y-17416484D02*
X2579586Y-17283150D01*
X2579586Y-17216484D02*
X2570063Y-17226008D01*
X2570063Y-17226008D02*
X2579586Y-17235531D01*
X2579586Y-17235531D02*
X2589110Y-17226008D01*
X2589110Y-17226008D02*
X2579586Y-17216484D01*
X2579586Y-17216484D02*
X2579586Y-17235531D01*
X2703396Y-17416484D02*
X2684348Y-17406960D01*
X2684348Y-17406960D02*
X2674824Y-17387912D01*
X2674824Y-17387912D02*
X2674824Y-17216484D01*
X2808158Y-17416484D02*
X2789110Y-17406960D01*
X2789110Y-17406960D02*
X2779586Y-17387912D01*
X2779586Y-17387912D02*
X2779586Y-17216484D01*
X3036729Y-17416484D02*
X3036729Y-17216484D01*
X3036729Y-17216484D02*
X3103396Y-17359341D01*
X3103396Y-17359341D02*
X3170062Y-17216484D01*
X3170062Y-17216484D02*
X3170062Y-17416484D01*
X3351015Y-17416484D02*
X3351015Y-17311722D01*
X3351015Y-17311722D02*
X3341491Y-17292674D01*
X3341491Y-17292674D02*
X3322443Y-17283150D01*
X3322443Y-17283150D02*
X3284348Y-17283150D01*
X3284348Y-17283150D02*
X3265301Y-17292674D01*
X3351015Y-17406960D02*
X3331967Y-17416484D01*
X3331967Y-17416484D02*
X3284348Y-17416484D01*
X3284348Y-17416484D02*
X3265301Y-17406960D01*
X3265301Y-17406960D02*
X3255777Y-17387912D01*
X3255777Y-17387912D02*
X3255777Y-17368865D01*
X3255777Y-17368865D02*
X3265301Y-17349817D01*
X3265301Y-17349817D02*
X3284348Y-17340293D01*
X3284348Y-17340293D02*
X3331967Y-17340293D01*
X3331967Y-17340293D02*
X3351015Y-17330770D01*
X3446253Y-17283150D02*
X3446253Y-17483150D01*
X3446253Y-17292674D02*
X3465301Y-17283150D01*
X3465301Y-17283150D02*
X3503396Y-17283150D01*
X3503396Y-17283150D02*
X3522443Y-17292674D01*
X3522443Y-17292674D02*
X3531967Y-17302198D01*
X3531967Y-17302198D02*
X3541491Y-17321246D01*
X3541491Y-17321246D02*
X3541491Y-17378389D01*
X3541491Y-17378389D02*
X3531967Y-17397436D01*
X3531967Y-17397436D02*
X3522443Y-17406960D01*
X3522443Y-17406960D02*
X3503396Y-17416484D01*
X3503396Y-17416484D02*
X3465301Y-17416484D01*
X3465301Y-17416484D02*
X3446253Y-17406960D01*
X3627205Y-17397436D02*
X3636729Y-17406960D01*
X3636729Y-17406960D02*
X3627205Y-17416484D01*
X3627205Y-17416484D02*
X3617682Y-17406960D01*
X3617682Y-17406960D02*
X3627205Y-17397436D01*
X3627205Y-17397436D02*
X3627205Y-17416484D01*
X3627205Y-17292674D02*
X3636729Y-17302198D01*
X3636729Y-17302198D02*
X3627205Y-17311722D01*
X3627205Y-17311722D02*
X3617682Y-17302198D01*
X3617682Y-17302198D02*
X3627205Y-17292674D01*
X3627205Y-17292674D02*
X3627205Y-17311722D01*
X1795000Y-17645000D02*
X1995000Y-17845000D01*
X1995000Y-17645000D02*
X1795000Y-17845000D01*
X2246253Y-17655531D02*
X2255777Y-17646008D01*
X2255777Y-17646008D02*
X2274824Y-17636484D01*
X2274824Y-17636484D02*
X2322444Y-17636484D01*
X2322444Y-17636484D02*
X2341491Y-17646008D01*
X2341491Y-17646008D02*
X2351015Y-17655531D01*
X2351015Y-17655531D02*
X2360539Y-17674579D01*
X2360539Y-17674579D02*
X2360539Y-17693627D01*
X2360539Y-17693627D02*
X2351015Y-17722198D01*
X2351015Y-17722198D02*
X2236729Y-17836484D01*
X2236729Y-17836484D02*
X2360539Y-17836484D01*
X2446253Y-17817436D02*
X2455777Y-17826960D01*
X2455777Y-17826960D02*
X2446253Y-17836484D01*
X2446253Y-17836484D02*
X2436729Y-17826960D01*
X2436729Y-17826960D02*
X2446253Y-17817436D01*
X2446253Y-17817436D02*
X2446253Y-17836484D01*
X2636729Y-17636484D02*
X2541491Y-17636484D01*
X2541491Y-17636484D02*
X2531967Y-17731722D01*
X2531967Y-17731722D02*
X2541491Y-17722198D01*
X2541491Y-17722198D02*
X2560539Y-17712674D01*
X2560539Y-17712674D02*
X2608158Y-17712674D01*
X2608158Y-17712674D02*
X2627205Y-17722198D01*
X2627205Y-17722198D02*
X2636729Y-17731722D01*
X2636729Y-17731722D02*
X2646253Y-17750770D01*
X2646253Y-17750770D02*
X2646253Y-17798389D01*
X2646253Y-17798389D02*
X2636729Y-17817436D01*
X2636729Y-17817436D02*
X2627205Y-17826960D01*
X2627205Y-17826960D02*
X2608158Y-17836484D01*
X2608158Y-17836484D02*
X2560539Y-17836484D01*
X2560539Y-17836484D02*
X2541491Y-17826960D01*
X2541491Y-17826960D02*
X2531967Y-17817436D01*
X2770063Y-17636484D02*
X2789110Y-17636484D01*
X2789110Y-17636484D02*
X2808158Y-17646008D01*
X2808158Y-17646008D02*
X2817682Y-17655531D01*
X2817682Y-17655531D02*
X2827205Y-17674579D01*
X2827205Y-17674579D02*
X2836729Y-17712674D01*
X2836729Y-17712674D02*
X2836729Y-17760293D01*
X2836729Y-17760293D02*
X2827205Y-17798389D01*
X2827205Y-17798389D02*
X2817682Y-17817436D01*
X2817682Y-17817436D02*
X2808158Y-17826960D01*
X2808158Y-17826960D02*
X2789110Y-17836484D01*
X2789110Y-17836484D02*
X2770063Y-17836484D01*
X2770063Y-17836484D02*
X2751015Y-17826960D01*
X2751015Y-17826960D02*
X2741491Y-17817436D01*
X2741491Y-17817436D02*
X2731967Y-17798389D01*
X2731967Y-17798389D02*
X2722444Y-17760293D01*
X2722444Y-17760293D02*
X2722444Y-17712674D01*
X2722444Y-17712674D02*
X2731967Y-17674579D01*
X2731967Y-17674579D02*
X2741491Y-17655531D01*
X2741491Y-17655531D02*
X2751015Y-17646008D01*
X2751015Y-17646008D02*
X2770063Y-17636484D01*
X2960539Y-17636484D02*
X2979586Y-17636484D01*
X2979586Y-17636484D02*
X2998634Y-17646008D01*
X2998634Y-17646008D02*
X3008158Y-17655531D01*
X3008158Y-17655531D02*
X3017682Y-17674579D01*
X3017682Y-17674579D02*
X3027205Y-17712674D01*
X3027205Y-17712674D02*
X3027205Y-17760293D01*
X3027205Y-17760293D02*
X3017682Y-17798389D01*
X3017682Y-17798389D02*
X3008158Y-17817436D01*
X3008158Y-17817436D02*
X2998634Y-17826960D01*
X2998634Y-17826960D02*
X2979586Y-17836484D01*
X2979586Y-17836484D02*
X2960539Y-17836484D01*
X2960539Y-17836484D02*
X2941491Y-17826960D01*
X2941491Y-17826960D02*
X2931967Y-17817436D01*
X2931967Y-17817436D02*
X2922443Y-17798389D01*
X2922443Y-17798389D02*
X2912920Y-17760293D01*
X2912920Y-17760293D02*
X2912920Y-17712674D01*
X2912920Y-17712674D02*
X2922443Y-17674579D01*
X2922443Y-17674579D02*
X2931967Y-17655531D01*
X2931967Y-17655531D02*
X2941491Y-17646008D01*
X2941491Y-17646008D02*
X2960539Y-17636484D01*
X3112920Y-17836484D02*
X3112920Y-17703150D01*
X3112920Y-17722198D02*
X3122443Y-17712674D01*
X3122443Y-17712674D02*
X3141491Y-17703150D01*
X3141491Y-17703150D02*
X3170063Y-17703150D01*
X3170063Y-17703150D02*
X3189110Y-17712674D01*
X3189110Y-17712674D02*
X3198634Y-17731722D01*
X3198634Y-17731722D02*
X3198634Y-17836484D01*
X3198634Y-17731722D02*
X3208158Y-17712674D01*
X3208158Y-17712674D02*
X3227205Y-17703150D01*
X3227205Y-17703150D02*
X3255777Y-17703150D01*
X3255777Y-17703150D02*
X3274824Y-17712674D01*
X3274824Y-17712674D02*
X3284348Y-17731722D01*
X3284348Y-17731722D02*
X3284348Y-17836484D01*
X3379586Y-17836484D02*
X3379586Y-17703150D01*
X3379586Y-17722198D02*
X3389110Y-17712674D01*
X3389110Y-17712674D02*
X3408158Y-17703150D01*
X3408158Y-17703150D02*
X3436729Y-17703150D01*
X3436729Y-17703150D02*
X3455777Y-17712674D01*
X3455777Y-17712674D02*
X3465301Y-17731722D01*
X3465301Y-17731722D02*
X3465301Y-17836484D01*
X3465301Y-17731722D02*
X3474824Y-17712674D01*
X3474824Y-17712674D02*
X3493872Y-17703150D01*
X3493872Y-17703150D02*
X3522443Y-17703150D01*
X3522443Y-17703150D02*
X3541491Y-17712674D01*
X3541491Y-17712674D02*
X3551015Y-17731722D01*
X3551015Y-17731722D02*
X3551015Y-17836484D01*
X3941491Y-17626960D02*
X3770063Y-17884103D01*
X4198634Y-17636484D02*
X4217682Y-17636484D01*
X4217682Y-17636484D02*
X4236729Y-17646008D01*
X4236729Y-17646008D02*
X4246253Y-17655531D01*
X4246253Y-17655531D02*
X4255777Y-17674579D01*
X4255777Y-17674579D02*
X4265301Y-17712674D01*
X4265301Y-17712674D02*
X4265301Y-17760293D01*
X4265301Y-17760293D02*
X4255777Y-17798389D01*
X4255777Y-17798389D02*
X4246253Y-17817436D01*
X4246253Y-17817436D02*
X4236729Y-17826960D01*
X4236729Y-17826960D02*
X4217682Y-17836484D01*
X4217682Y-17836484D02*
X4198634Y-17836484D01*
X4198634Y-17836484D02*
X4179586Y-17826960D01*
X4179586Y-17826960D02*
X4170063Y-17817436D01*
X4170063Y-17817436D02*
X4160539Y-17798389D01*
X4160539Y-17798389D02*
X4151015Y-17760293D01*
X4151015Y-17760293D02*
X4151015Y-17712674D01*
X4151015Y-17712674D02*
X4160539Y-17674579D01*
X4160539Y-17674579D02*
X4170063Y-17655531D01*
X4170063Y-17655531D02*
X4179586Y-17646008D01*
X4179586Y-17646008D02*
X4198634Y-17636484D01*
X4351015Y-17817436D02*
X4360539Y-17826960D01*
X4360539Y-17826960D02*
X4351015Y-17836484D01*
X4351015Y-17836484D02*
X4341491Y-17826960D01*
X4341491Y-17826960D02*
X4351015Y-17817436D01*
X4351015Y-17817436D02*
X4351015Y-17836484D01*
X4484348Y-17636484D02*
X4503396Y-17636484D01*
X4503396Y-17636484D02*
X4522444Y-17646008D01*
X4522444Y-17646008D02*
X4531968Y-17655531D01*
X4531968Y-17655531D02*
X4541491Y-17674579D01*
X4541491Y-17674579D02*
X4551015Y-17712674D01*
X4551015Y-17712674D02*
X4551015Y-17760293D01*
X4551015Y-17760293D02*
X4541491Y-17798389D01*
X4541491Y-17798389D02*
X4531968Y-17817436D01*
X4531968Y-17817436D02*
X4522444Y-17826960D01*
X4522444Y-17826960D02*
X4503396Y-17836484D01*
X4503396Y-17836484D02*
X4484348Y-17836484D01*
X4484348Y-17836484D02*
X4465301Y-17826960D01*
X4465301Y-17826960D02*
X4455777Y-17817436D01*
X4455777Y-17817436D02*
X4446253Y-17798389D01*
X4446253Y-17798389D02*
X4436729Y-17760293D01*
X4436729Y-17760293D02*
X4436729Y-17712674D01*
X4436729Y-17712674D02*
X4446253Y-17674579D01*
X4446253Y-17674579D02*
X4455777Y-17655531D01*
X4455777Y-17655531D02*
X4465301Y-17646008D01*
X4465301Y-17646008D02*
X4484348Y-17636484D01*
X4646253Y-17836484D02*
X4684348Y-17836484D01*
X4684348Y-17836484D02*
X4703396Y-17826960D01*
X4703396Y-17826960D02*
X4712920Y-17817436D01*
X4712920Y-17817436D02*
X4731968Y-17788865D01*
X4731968Y-17788865D02*
X4741491Y-17750770D01*
X4741491Y-17750770D02*
X4741491Y-17674579D01*
X4741491Y-17674579D02*
X4731968Y-17655531D01*
X4731968Y-17655531D02*
X4722444Y-17646008D01*
X4722444Y-17646008D02*
X4703396Y-17636484D01*
X4703396Y-17636484D02*
X4665301Y-17636484D01*
X4665301Y-17636484D02*
X4646253Y-17646008D01*
X4646253Y-17646008D02*
X4636729Y-17655531D01*
X4636729Y-17655531D02*
X4627206Y-17674579D01*
X4627206Y-17674579D02*
X4627206Y-17722198D01*
X4627206Y-17722198D02*
X4636729Y-17741246D01*
X4636729Y-17741246D02*
X4646253Y-17750770D01*
X4646253Y-17750770D02*
X4665301Y-17760293D01*
X4665301Y-17760293D02*
X4703396Y-17760293D01*
X4703396Y-17760293D02*
X4722444Y-17750770D01*
X4722444Y-17750770D02*
X4731968Y-17741246D01*
X4731968Y-17741246D02*
X4741491Y-17722198D01*
X4855777Y-17722198D02*
X4836729Y-17712674D01*
X4836729Y-17712674D02*
X4827206Y-17703150D01*
X4827206Y-17703150D02*
X4817682Y-17684103D01*
X4817682Y-17684103D02*
X4817682Y-17674579D01*
X4817682Y-17674579D02*
X4827206Y-17655531D01*
X4827206Y-17655531D02*
X4836729Y-17646008D01*
X4836729Y-17646008D02*
X4855777Y-17636484D01*
X4855777Y-17636484D02*
X4893872Y-17636484D01*
X4893872Y-17636484D02*
X4912920Y-17646008D01*
X4912920Y-17646008D02*
X4922444Y-17655531D01*
X4922444Y-17655531D02*
X4931968Y-17674579D01*
X4931968Y-17674579D02*
X4931968Y-17684103D01*
X4931968Y-17684103D02*
X4922444Y-17703150D01*
X4922444Y-17703150D02*
X4912920Y-17712674D01*
X4912920Y-17712674D02*
X4893872Y-17722198D01*
X4893872Y-17722198D02*
X4855777Y-17722198D01*
X4855777Y-17722198D02*
X4836729Y-17731722D01*
X4836729Y-17731722D02*
X4827206Y-17741246D01*
X4827206Y-17741246D02*
X4817682Y-17760293D01*
X4817682Y-17760293D02*
X4817682Y-17798389D01*
X4817682Y-17798389D02*
X4827206Y-17817436D01*
X4827206Y-17817436D02*
X4836729Y-17826960D01*
X4836729Y-17826960D02*
X4855777Y-17836484D01*
X4855777Y-17836484D02*
X4893872Y-17836484D01*
X4893872Y-17836484D02*
X4912920Y-17826960D01*
X4912920Y-17826960D02*
X4922444Y-17817436D01*
X4922444Y-17817436D02*
X4931968Y-17798389D01*
X4931968Y-17798389D02*
X4931968Y-17760293D01*
X4931968Y-17760293D02*
X4922444Y-17741246D01*
X4922444Y-17741246D02*
X4912920Y-17731722D01*
X4912920Y-17731722D02*
X4893872Y-17722198D01*
X5103396Y-17703150D02*
X5103396Y-17836484D01*
X5055777Y-17626960D02*
X5008158Y-17769817D01*
X5008158Y-17769817D02*
X5131968Y-17769817D01*
X5198634Y-17636484D02*
X5198634Y-17674579D01*
X5274825Y-17636484D02*
X5274825Y-17674579D01*
X5570063Y-17912674D02*
X5560539Y-17903150D01*
X5560539Y-17903150D02*
X5541491Y-17874579D01*
X5541491Y-17874579D02*
X5531968Y-17855531D01*
X5531968Y-17855531D02*
X5522444Y-17826960D01*
X5522444Y-17826960D02*
X5512920Y-17779341D01*
X5512920Y-17779341D02*
X5512920Y-17741246D01*
X5512920Y-17741246D02*
X5522444Y-17693627D01*
X5522444Y-17693627D02*
X5531968Y-17665055D01*
X5531968Y-17665055D02*
X5541491Y-17646008D01*
X5541491Y-17646008D02*
X5560539Y-17617436D01*
X5560539Y-17617436D02*
X5570063Y-17607912D01*
X5731968Y-17703150D02*
X5731968Y-17836484D01*
X5684348Y-17626960D02*
X5636729Y-17769817D01*
X5636729Y-17769817D02*
X5760539Y-17769817D01*
X5989110Y-17836484D02*
X5989110Y-17636484D01*
X6074825Y-17836484D02*
X6074825Y-17731722D01*
X6074825Y-17731722D02*
X6065301Y-17712674D01*
X6065301Y-17712674D02*
X6046253Y-17703150D01*
X6046253Y-17703150D02*
X6017682Y-17703150D01*
X6017682Y-17703150D02*
X5998634Y-17712674D01*
X5998634Y-17712674D02*
X5989110Y-17722198D01*
X6198634Y-17836484D02*
X6179587Y-17826960D01*
X6179587Y-17826960D02*
X6170063Y-17817436D01*
X6170063Y-17817436D02*
X6160539Y-17798389D01*
X6160539Y-17798389D02*
X6160539Y-17741246D01*
X6160539Y-17741246D02*
X6170063Y-17722198D01*
X6170063Y-17722198D02*
X6179587Y-17712674D01*
X6179587Y-17712674D02*
X6198634Y-17703150D01*
X6198634Y-17703150D02*
X6227206Y-17703150D01*
X6227206Y-17703150D02*
X6246253Y-17712674D01*
X6246253Y-17712674D02*
X6255777Y-17722198D01*
X6255777Y-17722198D02*
X6265301Y-17741246D01*
X6265301Y-17741246D02*
X6265301Y-17798389D01*
X6265301Y-17798389D02*
X6255777Y-17817436D01*
X6255777Y-17817436D02*
X6246253Y-17826960D01*
X6246253Y-17826960D02*
X6227206Y-17836484D01*
X6227206Y-17836484D02*
X6198634Y-17836484D01*
X6379587Y-17836484D02*
X6360539Y-17826960D01*
X6360539Y-17826960D02*
X6351015Y-17807912D01*
X6351015Y-17807912D02*
X6351015Y-17636484D01*
X6531968Y-17826960D02*
X6512920Y-17836484D01*
X6512920Y-17836484D02*
X6474825Y-17836484D01*
X6474825Y-17836484D02*
X6455777Y-17826960D01*
X6455777Y-17826960D02*
X6446253Y-17807912D01*
X6446253Y-17807912D02*
X6446253Y-17731722D01*
X6446253Y-17731722D02*
X6455777Y-17712674D01*
X6455777Y-17712674D02*
X6474825Y-17703150D01*
X6474825Y-17703150D02*
X6512920Y-17703150D01*
X6512920Y-17703150D02*
X6531968Y-17712674D01*
X6531968Y-17712674D02*
X6541491Y-17731722D01*
X6541491Y-17731722D02*
X6541491Y-17750770D01*
X6541491Y-17750770D02*
X6446253Y-17769817D01*
X6617682Y-17826960D02*
X6636730Y-17836484D01*
X6636730Y-17836484D02*
X6674825Y-17836484D01*
X6674825Y-17836484D02*
X6693872Y-17826960D01*
X6693872Y-17826960D02*
X6703396Y-17807912D01*
X6703396Y-17807912D02*
X6703396Y-17798389D01*
X6703396Y-17798389D02*
X6693872Y-17779341D01*
X6693872Y-17779341D02*
X6674825Y-17769817D01*
X6674825Y-17769817D02*
X6646253Y-17769817D01*
X6646253Y-17769817D02*
X6627206Y-17760293D01*
X6627206Y-17760293D02*
X6617682Y-17741246D01*
X6617682Y-17741246D02*
X6617682Y-17731722D01*
X6617682Y-17731722D02*
X6627206Y-17712674D01*
X6627206Y-17712674D02*
X6646253Y-17703150D01*
X6646253Y-17703150D02*
X6674825Y-17703150D01*
X6674825Y-17703150D02*
X6693872Y-17712674D01*
X6770063Y-17912674D02*
X6779587Y-17903150D01*
X6779587Y-17903150D02*
X6798634Y-17874579D01*
X6798634Y-17874579D02*
X6808158Y-17855531D01*
X6808158Y-17855531D02*
X6817682Y-17826960D01*
X6817682Y-17826960D02*
X6827206Y-17779341D01*
X6827206Y-17779341D02*
X6827206Y-17741246D01*
X6827206Y-17741246D02*
X6817682Y-17693627D01*
X6817682Y-17693627D02*
X6808158Y-17665055D01*
X6808158Y-17665055D02*
X6798634Y-17646008D01*
X6798634Y-17646008D02*
X6779587Y-17617436D01*
X6779587Y-17617436D02*
X6770063Y-17607912D01*
X7131968Y-17912674D02*
X7122444Y-17903150D01*
X7122444Y-17903150D02*
X7103396Y-17874579D01*
X7103396Y-17874579D02*
X7093872Y-17855531D01*
X7093872Y-17855531D02*
X7084349Y-17826960D01*
X7084349Y-17826960D02*
X7074825Y-17779341D01*
X7074825Y-17779341D02*
X7074825Y-17741246D01*
X7074825Y-17741246D02*
X7084349Y-17693627D01*
X7084349Y-17693627D02*
X7093872Y-17665055D01*
X7093872Y-17665055D02*
X7103396Y-17646008D01*
X7103396Y-17646008D02*
X7122444Y-17617436D01*
X7122444Y-17617436D02*
X7131968Y-17607912D01*
X7208158Y-17703150D02*
X7208158Y-17836484D01*
X7208158Y-17722198D02*
X7217682Y-17712674D01*
X7217682Y-17712674D02*
X7236730Y-17703150D01*
X7236730Y-17703150D02*
X7265301Y-17703150D01*
X7265301Y-17703150D02*
X7284349Y-17712674D01*
X7284349Y-17712674D02*
X7293872Y-17731722D01*
X7293872Y-17731722D02*
X7293872Y-17836484D01*
X7417682Y-17836484D02*
X7398634Y-17826960D01*
X7398634Y-17826960D02*
X7389111Y-17817436D01*
X7389111Y-17817436D02*
X7379587Y-17798389D01*
X7379587Y-17798389D02*
X7379587Y-17741246D01*
X7379587Y-17741246D02*
X7389111Y-17722198D01*
X7389111Y-17722198D02*
X7398634Y-17712674D01*
X7398634Y-17712674D02*
X7417682Y-17703150D01*
X7417682Y-17703150D02*
X7446253Y-17703150D01*
X7446253Y-17703150D02*
X7465301Y-17712674D01*
X7465301Y-17712674D02*
X7474825Y-17722198D01*
X7474825Y-17722198D02*
X7484349Y-17741246D01*
X7484349Y-17741246D02*
X7484349Y-17798389D01*
X7484349Y-17798389D02*
X7474825Y-17817436D01*
X7474825Y-17817436D02*
X7465301Y-17826960D01*
X7465301Y-17826960D02*
X7446253Y-17836484D01*
X7446253Y-17836484D02*
X7417682Y-17836484D01*
X7541492Y-17703150D02*
X7617682Y-17703150D01*
X7570063Y-17636484D02*
X7570063Y-17807912D01*
X7570063Y-17807912D02*
X7579587Y-17826960D01*
X7579587Y-17826960D02*
X7598634Y-17836484D01*
X7598634Y-17836484D02*
X7617682Y-17836484D01*
X7836730Y-17703150D02*
X7836730Y-17903150D01*
X7836730Y-17712674D02*
X7855777Y-17703150D01*
X7855777Y-17703150D02*
X7893873Y-17703150D01*
X7893873Y-17703150D02*
X7912920Y-17712674D01*
X7912920Y-17712674D02*
X7922444Y-17722198D01*
X7922444Y-17722198D02*
X7931968Y-17741246D01*
X7931968Y-17741246D02*
X7931968Y-17798389D01*
X7931968Y-17798389D02*
X7922444Y-17817436D01*
X7922444Y-17817436D02*
X7912920Y-17826960D01*
X7912920Y-17826960D02*
X7893873Y-17836484D01*
X7893873Y-17836484D02*
X7855777Y-17836484D01*
X7855777Y-17836484D02*
X7836730Y-17826960D01*
X8046253Y-17836484D02*
X8027206Y-17826960D01*
X8027206Y-17826960D02*
X8017682Y-17807912D01*
X8017682Y-17807912D02*
X8017682Y-17636484D01*
X8208158Y-17836484D02*
X8208158Y-17731722D01*
X8208158Y-17731722D02*
X8198634Y-17712674D01*
X8198634Y-17712674D02*
X8179587Y-17703150D01*
X8179587Y-17703150D02*
X8141492Y-17703150D01*
X8141492Y-17703150D02*
X8122444Y-17712674D01*
X8208158Y-17826960D02*
X8189111Y-17836484D01*
X8189111Y-17836484D02*
X8141492Y-17836484D01*
X8141492Y-17836484D02*
X8122444Y-17826960D01*
X8122444Y-17826960D02*
X8112920Y-17807912D01*
X8112920Y-17807912D02*
X8112920Y-17788865D01*
X8112920Y-17788865D02*
X8122444Y-17769817D01*
X8122444Y-17769817D02*
X8141492Y-17760293D01*
X8141492Y-17760293D02*
X8189111Y-17760293D01*
X8189111Y-17760293D02*
X8208158Y-17750770D01*
X8274825Y-17703150D02*
X8351015Y-17703150D01*
X8303396Y-17636484D02*
X8303396Y-17807912D01*
X8303396Y-17807912D02*
X8312920Y-17826960D01*
X8312920Y-17826960D02*
X8331968Y-17836484D01*
X8331968Y-17836484D02*
X8351015Y-17836484D01*
X8493873Y-17826960D02*
X8474825Y-17836484D01*
X8474825Y-17836484D02*
X8436730Y-17836484D01*
X8436730Y-17836484D02*
X8417682Y-17826960D01*
X8417682Y-17826960D02*
X8408158Y-17807912D01*
X8408158Y-17807912D02*
X8408158Y-17731722D01*
X8408158Y-17731722D02*
X8417682Y-17712674D01*
X8417682Y-17712674D02*
X8436730Y-17703150D01*
X8436730Y-17703150D02*
X8474825Y-17703150D01*
X8474825Y-17703150D02*
X8493873Y-17712674D01*
X8493873Y-17712674D02*
X8503396Y-17731722D01*
X8503396Y-17731722D02*
X8503396Y-17750770D01*
X8503396Y-17750770D02*
X8408158Y-17769817D01*
X8674825Y-17836484D02*
X8674825Y-17636484D01*
X8674825Y-17826960D02*
X8655777Y-17836484D01*
X8655777Y-17836484D02*
X8617682Y-17836484D01*
X8617682Y-17836484D02*
X8598635Y-17826960D01*
X8598635Y-17826960D02*
X8589111Y-17817436D01*
X8589111Y-17817436D02*
X8579587Y-17798389D01*
X8579587Y-17798389D02*
X8579587Y-17741246D01*
X8579587Y-17741246D02*
X8589111Y-17722198D01*
X8589111Y-17722198D02*
X8598635Y-17712674D01*
X8598635Y-17712674D02*
X8617682Y-17703150D01*
X8617682Y-17703150D02*
X8655777Y-17703150D01*
X8655777Y-17703150D02*
X8674825Y-17712674D01*
X8751016Y-17912674D02*
X8760539Y-17903150D01*
X8760539Y-17903150D02*
X8779587Y-17874579D01*
X8779587Y-17874579D02*
X8789111Y-17855531D01*
X8789111Y-17855531D02*
X8798635Y-17826960D01*
X8798635Y-17826960D02*
X8808158Y-17779341D01*
X8808158Y-17779341D02*
X8808158Y-17741246D01*
X8808158Y-17741246D02*
X8798635Y-17693627D01*
X8798635Y-17693627D02*
X8789111Y-17665055D01*
X8789111Y-17665055D02*
X8779587Y-17646008D01*
X8779587Y-17646008D02*
X8760539Y-17617436D01*
X8760539Y-17617436D02*
X8751016Y-17607912D01*
X1995000Y-18065000D02*
G75*
G03*
X1995000Y-18065000I-100000J0D01*
G01*
X2236729Y-17956484D02*
X2360539Y-17956484D01*
X2360539Y-17956484D02*
X2293872Y-18032674D01*
X2293872Y-18032674D02*
X2322444Y-18032674D01*
X2322444Y-18032674D02*
X2341491Y-18042198D01*
X2341491Y-18042198D02*
X2351015Y-18051722D01*
X2351015Y-18051722D02*
X2360539Y-18070770D01*
X2360539Y-18070770D02*
X2360539Y-18118389D01*
X2360539Y-18118389D02*
X2351015Y-18137436D01*
X2351015Y-18137436D02*
X2341491Y-18146960D01*
X2341491Y-18146960D02*
X2322444Y-18156484D01*
X2322444Y-18156484D02*
X2265301Y-18156484D01*
X2265301Y-18156484D02*
X2246253Y-18146960D01*
X2246253Y-18146960D02*
X2236729Y-18137436D01*
X2446253Y-18137436D02*
X2455777Y-18146960D01*
X2455777Y-18146960D02*
X2446253Y-18156484D01*
X2446253Y-18156484D02*
X2436729Y-18146960D01*
X2436729Y-18146960D02*
X2446253Y-18137436D01*
X2446253Y-18137436D02*
X2446253Y-18156484D01*
X2531967Y-17975531D02*
X2541491Y-17966008D01*
X2541491Y-17966008D02*
X2560539Y-17956484D01*
X2560539Y-17956484D02*
X2608158Y-17956484D01*
X2608158Y-17956484D02*
X2627205Y-17966008D01*
X2627205Y-17966008D02*
X2636729Y-17975531D01*
X2636729Y-17975531D02*
X2646253Y-17994579D01*
X2646253Y-17994579D02*
X2646253Y-18013627D01*
X2646253Y-18013627D02*
X2636729Y-18042198D01*
X2636729Y-18042198D02*
X2522444Y-18156484D01*
X2522444Y-18156484D02*
X2646253Y-18156484D01*
X2770063Y-17956484D02*
X2789110Y-17956484D01*
X2789110Y-17956484D02*
X2808158Y-17966008D01*
X2808158Y-17966008D02*
X2817682Y-17975531D01*
X2817682Y-17975531D02*
X2827205Y-17994579D01*
X2827205Y-17994579D02*
X2836729Y-18032674D01*
X2836729Y-18032674D02*
X2836729Y-18080293D01*
X2836729Y-18080293D02*
X2827205Y-18118389D01*
X2827205Y-18118389D02*
X2817682Y-18137436D01*
X2817682Y-18137436D02*
X2808158Y-18146960D01*
X2808158Y-18146960D02*
X2789110Y-18156484D01*
X2789110Y-18156484D02*
X2770063Y-18156484D01*
X2770063Y-18156484D02*
X2751015Y-18146960D01*
X2751015Y-18146960D02*
X2741491Y-18137436D01*
X2741491Y-18137436D02*
X2731967Y-18118389D01*
X2731967Y-18118389D02*
X2722444Y-18080293D01*
X2722444Y-18080293D02*
X2722444Y-18032674D01*
X2722444Y-18032674D02*
X2731967Y-17994579D01*
X2731967Y-17994579D02*
X2741491Y-17975531D01*
X2741491Y-17975531D02*
X2751015Y-17966008D01*
X2751015Y-17966008D02*
X2770063Y-17956484D01*
X2960539Y-17956484D02*
X2979586Y-17956484D01*
X2979586Y-17956484D02*
X2998634Y-17966008D01*
X2998634Y-17966008D02*
X3008158Y-17975531D01*
X3008158Y-17975531D02*
X3017682Y-17994579D01*
X3017682Y-17994579D02*
X3027205Y-18032674D01*
X3027205Y-18032674D02*
X3027205Y-18080293D01*
X3027205Y-18080293D02*
X3017682Y-18118389D01*
X3017682Y-18118389D02*
X3008158Y-18137436D01*
X3008158Y-18137436D02*
X2998634Y-18146960D01*
X2998634Y-18146960D02*
X2979586Y-18156484D01*
X2979586Y-18156484D02*
X2960539Y-18156484D01*
X2960539Y-18156484D02*
X2941491Y-18146960D01*
X2941491Y-18146960D02*
X2931967Y-18137436D01*
X2931967Y-18137436D02*
X2922443Y-18118389D01*
X2922443Y-18118389D02*
X2912920Y-18080293D01*
X2912920Y-18080293D02*
X2912920Y-18032674D01*
X2912920Y-18032674D02*
X2922443Y-17994579D01*
X2922443Y-17994579D02*
X2931967Y-17975531D01*
X2931967Y-17975531D02*
X2941491Y-17966008D01*
X2941491Y-17966008D02*
X2960539Y-17956484D01*
X3112920Y-18156484D02*
X3112920Y-18023150D01*
X3112920Y-18042198D02*
X3122443Y-18032674D01*
X3122443Y-18032674D02*
X3141491Y-18023150D01*
X3141491Y-18023150D02*
X3170063Y-18023150D01*
X3170063Y-18023150D02*
X3189110Y-18032674D01*
X3189110Y-18032674D02*
X3198634Y-18051722D01*
X3198634Y-18051722D02*
X3198634Y-18156484D01*
X3198634Y-18051722D02*
X3208158Y-18032674D01*
X3208158Y-18032674D02*
X3227205Y-18023150D01*
X3227205Y-18023150D02*
X3255777Y-18023150D01*
X3255777Y-18023150D02*
X3274824Y-18032674D01*
X3274824Y-18032674D02*
X3284348Y-18051722D01*
X3284348Y-18051722D02*
X3284348Y-18156484D01*
X3379586Y-18156484D02*
X3379586Y-18023150D01*
X3379586Y-18042198D02*
X3389110Y-18032674D01*
X3389110Y-18032674D02*
X3408158Y-18023150D01*
X3408158Y-18023150D02*
X3436729Y-18023150D01*
X3436729Y-18023150D02*
X3455777Y-18032674D01*
X3455777Y-18032674D02*
X3465301Y-18051722D01*
X3465301Y-18051722D02*
X3465301Y-18156484D01*
X3465301Y-18051722D02*
X3474824Y-18032674D01*
X3474824Y-18032674D02*
X3493872Y-18023150D01*
X3493872Y-18023150D02*
X3522443Y-18023150D01*
X3522443Y-18023150D02*
X3541491Y-18032674D01*
X3541491Y-18032674D02*
X3551015Y-18051722D01*
X3551015Y-18051722D02*
X3551015Y-18156484D01*
X3941491Y-17946960D02*
X3770063Y-18204103D01*
X4198634Y-17956484D02*
X4217682Y-17956484D01*
X4217682Y-17956484D02*
X4236729Y-17966008D01*
X4236729Y-17966008D02*
X4246253Y-17975531D01*
X4246253Y-17975531D02*
X4255777Y-17994579D01*
X4255777Y-17994579D02*
X4265301Y-18032674D01*
X4265301Y-18032674D02*
X4265301Y-18080293D01*
X4265301Y-18080293D02*
X4255777Y-18118389D01*
X4255777Y-18118389D02*
X4246253Y-18137436D01*
X4246253Y-18137436D02*
X4236729Y-18146960D01*
X4236729Y-18146960D02*
X4217682Y-18156484D01*
X4217682Y-18156484D02*
X4198634Y-18156484D01*
X4198634Y-18156484D02*
X4179586Y-18146960D01*
X4179586Y-18146960D02*
X4170063Y-18137436D01*
X4170063Y-18137436D02*
X4160539Y-18118389D01*
X4160539Y-18118389D02*
X4151015Y-18080293D01*
X4151015Y-18080293D02*
X4151015Y-18032674D01*
X4151015Y-18032674D02*
X4160539Y-17994579D01*
X4160539Y-17994579D02*
X4170063Y-17975531D01*
X4170063Y-17975531D02*
X4179586Y-17966008D01*
X4179586Y-17966008D02*
X4198634Y-17956484D01*
X4351015Y-18137436D02*
X4360539Y-18146960D01*
X4360539Y-18146960D02*
X4351015Y-18156484D01*
X4351015Y-18156484D02*
X4341491Y-18146960D01*
X4341491Y-18146960D02*
X4351015Y-18137436D01*
X4351015Y-18137436D02*
X4351015Y-18156484D01*
X4551015Y-18156484D02*
X4436729Y-18156484D01*
X4493872Y-18156484D02*
X4493872Y-17956484D01*
X4493872Y-17956484D02*
X4474825Y-17985055D01*
X4474825Y-17985055D02*
X4455777Y-18004103D01*
X4455777Y-18004103D02*
X4436729Y-18013627D01*
X4627206Y-17975531D02*
X4636729Y-17966008D01*
X4636729Y-17966008D02*
X4655777Y-17956484D01*
X4655777Y-17956484D02*
X4703396Y-17956484D01*
X4703396Y-17956484D02*
X4722444Y-17966008D01*
X4722444Y-17966008D02*
X4731968Y-17975531D01*
X4731968Y-17975531D02*
X4741491Y-17994579D01*
X4741491Y-17994579D02*
X4741491Y-18013627D01*
X4741491Y-18013627D02*
X4731968Y-18042198D01*
X4731968Y-18042198D02*
X4617682Y-18156484D01*
X4617682Y-18156484D02*
X4741491Y-18156484D01*
X4912920Y-17956484D02*
X4874825Y-17956484D01*
X4874825Y-17956484D02*
X4855777Y-17966008D01*
X4855777Y-17966008D02*
X4846253Y-17975531D01*
X4846253Y-17975531D02*
X4827206Y-18004103D01*
X4827206Y-18004103D02*
X4817682Y-18042198D01*
X4817682Y-18042198D02*
X4817682Y-18118389D01*
X4817682Y-18118389D02*
X4827206Y-18137436D01*
X4827206Y-18137436D02*
X4836729Y-18146960D01*
X4836729Y-18146960D02*
X4855777Y-18156484D01*
X4855777Y-18156484D02*
X4893872Y-18156484D01*
X4893872Y-18156484D02*
X4912920Y-18146960D01*
X4912920Y-18146960D02*
X4922444Y-18137436D01*
X4922444Y-18137436D02*
X4931968Y-18118389D01*
X4931968Y-18118389D02*
X4931968Y-18070770D01*
X4931968Y-18070770D02*
X4922444Y-18051722D01*
X4922444Y-18051722D02*
X4912920Y-18042198D01*
X4912920Y-18042198D02*
X4893872Y-18032674D01*
X4893872Y-18032674D02*
X4855777Y-18032674D01*
X4855777Y-18032674D02*
X4836729Y-18042198D01*
X4836729Y-18042198D02*
X4827206Y-18051722D01*
X4827206Y-18051722D02*
X4817682Y-18070770D01*
X5055777Y-17956484D02*
X5074825Y-17956484D01*
X5074825Y-17956484D02*
X5093872Y-17966008D01*
X5093872Y-17966008D02*
X5103396Y-17975531D01*
X5103396Y-17975531D02*
X5112920Y-17994579D01*
X5112920Y-17994579D02*
X5122444Y-18032674D01*
X5122444Y-18032674D02*
X5122444Y-18080293D01*
X5122444Y-18080293D02*
X5112920Y-18118389D01*
X5112920Y-18118389D02*
X5103396Y-18137436D01*
X5103396Y-18137436D02*
X5093872Y-18146960D01*
X5093872Y-18146960D02*
X5074825Y-18156484D01*
X5074825Y-18156484D02*
X5055777Y-18156484D01*
X5055777Y-18156484D02*
X5036729Y-18146960D01*
X5036729Y-18146960D02*
X5027206Y-18137436D01*
X5027206Y-18137436D02*
X5017682Y-18118389D01*
X5017682Y-18118389D02*
X5008158Y-18080293D01*
X5008158Y-18080293D02*
X5008158Y-18032674D01*
X5008158Y-18032674D02*
X5017682Y-17994579D01*
X5017682Y-17994579D02*
X5027206Y-17975531D01*
X5027206Y-17975531D02*
X5036729Y-17966008D01*
X5036729Y-17966008D02*
X5055777Y-17956484D01*
X5198634Y-17956484D02*
X5198634Y-17994579D01*
X5274825Y-17956484D02*
X5274825Y-17994579D01*
X5570063Y-18232674D02*
X5560539Y-18223150D01*
X5560539Y-18223150D02*
X5541491Y-18194579D01*
X5541491Y-18194579D02*
X5531968Y-18175531D01*
X5531968Y-18175531D02*
X5522444Y-18146960D01*
X5522444Y-18146960D02*
X5512920Y-18099341D01*
X5512920Y-18099341D02*
X5512920Y-18061246D01*
X5512920Y-18061246D02*
X5522444Y-18013627D01*
X5522444Y-18013627D02*
X5531968Y-17985055D01*
X5531968Y-17985055D02*
X5541491Y-17966008D01*
X5541491Y-17966008D02*
X5560539Y-17937436D01*
X5560539Y-17937436D02*
X5570063Y-17927912D01*
X5751015Y-18156484D02*
X5636729Y-18156484D01*
X5693872Y-18156484D02*
X5693872Y-17956484D01*
X5693872Y-17956484D02*
X5674825Y-17985055D01*
X5674825Y-17985055D02*
X5655777Y-18004103D01*
X5655777Y-18004103D02*
X5636729Y-18013627D01*
X5874825Y-17956484D02*
X5893872Y-17956484D01*
X5893872Y-17956484D02*
X5912920Y-17966008D01*
X5912920Y-17966008D02*
X5922444Y-17975531D01*
X5922444Y-17975531D02*
X5931968Y-17994579D01*
X5931968Y-17994579D02*
X5941491Y-18032674D01*
X5941491Y-18032674D02*
X5941491Y-18080293D01*
X5941491Y-18080293D02*
X5931968Y-18118389D01*
X5931968Y-18118389D02*
X5922444Y-18137436D01*
X5922444Y-18137436D02*
X5912920Y-18146960D01*
X5912920Y-18146960D02*
X5893872Y-18156484D01*
X5893872Y-18156484D02*
X5874825Y-18156484D01*
X5874825Y-18156484D02*
X5855777Y-18146960D01*
X5855777Y-18146960D02*
X5846253Y-18137436D01*
X5846253Y-18137436D02*
X5836729Y-18118389D01*
X5836729Y-18118389D02*
X5827206Y-18080293D01*
X5827206Y-18080293D02*
X5827206Y-18032674D01*
X5827206Y-18032674D02*
X5836729Y-17994579D01*
X5836729Y-17994579D02*
X5846253Y-17975531D01*
X5846253Y-17975531D02*
X5855777Y-17966008D01*
X5855777Y-17966008D02*
X5874825Y-17956484D01*
X6179587Y-18156484D02*
X6179587Y-17956484D01*
X6265301Y-18156484D02*
X6265301Y-18051722D01*
X6265301Y-18051722D02*
X6255777Y-18032674D01*
X6255777Y-18032674D02*
X6236730Y-18023150D01*
X6236730Y-18023150D02*
X6208158Y-18023150D01*
X6208158Y-18023150D02*
X6189110Y-18032674D01*
X6189110Y-18032674D02*
X6179587Y-18042198D01*
X6389110Y-18156484D02*
X6370063Y-18146960D01*
X6370063Y-18146960D02*
X6360539Y-18137436D01*
X6360539Y-18137436D02*
X6351015Y-18118389D01*
X6351015Y-18118389D02*
X6351015Y-18061246D01*
X6351015Y-18061246D02*
X6360539Y-18042198D01*
X6360539Y-18042198D02*
X6370063Y-18032674D01*
X6370063Y-18032674D02*
X6389110Y-18023150D01*
X6389110Y-18023150D02*
X6417682Y-18023150D01*
X6417682Y-18023150D02*
X6436730Y-18032674D01*
X6436730Y-18032674D02*
X6446253Y-18042198D01*
X6446253Y-18042198D02*
X6455777Y-18061246D01*
X6455777Y-18061246D02*
X6455777Y-18118389D01*
X6455777Y-18118389D02*
X6446253Y-18137436D01*
X6446253Y-18137436D02*
X6436730Y-18146960D01*
X6436730Y-18146960D02*
X6417682Y-18156484D01*
X6417682Y-18156484D02*
X6389110Y-18156484D01*
X6570063Y-18156484D02*
X6551015Y-18146960D01*
X6551015Y-18146960D02*
X6541491Y-18127912D01*
X6541491Y-18127912D02*
X6541491Y-17956484D01*
X6722444Y-18146960D02*
X6703396Y-18156484D01*
X6703396Y-18156484D02*
X6665301Y-18156484D01*
X6665301Y-18156484D02*
X6646253Y-18146960D01*
X6646253Y-18146960D02*
X6636730Y-18127912D01*
X6636730Y-18127912D02*
X6636730Y-18051722D01*
X6636730Y-18051722D02*
X6646253Y-18032674D01*
X6646253Y-18032674D02*
X6665301Y-18023150D01*
X6665301Y-18023150D02*
X6703396Y-18023150D01*
X6703396Y-18023150D02*
X6722444Y-18032674D01*
X6722444Y-18032674D02*
X6731968Y-18051722D01*
X6731968Y-18051722D02*
X6731968Y-18070770D01*
X6731968Y-18070770D02*
X6636730Y-18089817D01*
X6808158Y-18146960D02*
X6827206Y-18156484D01*
X6827206Y-18156484D02*
X6865301Y-18156484D01*
X6865301Y-18156484D02*
X6884349Y-18146960D01*
X6884349Y-18146960D02*
X6893872Y-18127912D01*
X6893872Y-18127912D02*
X6893872Y-18118389D01*
X6893872Y-18118389D02*
X6884349Y-18099341D01*
X6884349Y-18099341D02*
X6865301Y-18089817D01*
X6865301Y-18089817D02*
X6836730Y-18089817D01*
X6836730Y-18089817D02*
X6817682Y-18080293D01*
X6817682Y-18080293D02*
X6808158Y-18061246D01*
X6808158Y-18061246D02*
X6808158Y-18051722D01*
X6808158Y-18051722D02*
X6817682Y-18032674D01*
X6817682Y-18032674D02*
X6836730Y-18023150D01*
X6836730Y-18023150D02*
X6865301Y-18023150D01*
X6865301Y-18023150D02*
X6884349Y-18032674D01*
X6960539Y-18232674D02*
X6970063Y-18223150D01*
X6970063Y-18223150D02*
X6989111Y-18194579D01*
X6989111Y-18194579D02*
X6998634Y-18175531D01*
X6998634Y-18175531D02*
X7008158Y-18146960D01*
X7008158Y-18146960D02*
X7017682Y-18099341D01*
X7017682Y-18099341D02*
X7017682Y-18061246D01*
X7017682Y-18061246D02*
X7008158Y-18013627D01*
X7008158Y-18013627D02*
X6998634Y-17985055D01*
X6998634Y-17985055D02*
X6989111Y-17966008D01*
X6989111Y-17966008D02*
X6970063Y-17937436D01*
X6970063Y-17937436D02*
X6960539Y-17927912D01*
X7322444Y-18232674D02*
X7312920Y-18223150D01*
X7312920Y-18223150D02*
X7293872Y-18194579D01*
X7293872Y-18194579D02*
X7284349Y-18175531D01*
X7284349Y-18175531D02*
X7274825Y-18146960D01*
X7274825Y-18146960D02*
X7265301Y-18099341D01*
X7265301Y-18099341D02*
X7265301Y-18061246D01*
X7265301Y-18061246D02*
X7274825Y-18013627D01*
X7274825Y-18013627D02*
X7284349Y-17985055D01*
X7284349Y-17985055D02*
X7293872Y-17966008D01*
X7293872Y-17966008D02*
X7312920Y-17937436D01*
X7312920Y-17937436D02*
X7322444Y-17927912D01*
X7398634Y-18023150D02*
X7398634Y-18156484D01*
X7398634Y-18042198D02*
X7408158Y-18032674D01*
X7408158Y-18032674D02*
X7427206Y-18023150D01*
X7427206Y-18023150D02*
X7455777Y-18023150D01*
X7455777Y-18023150D02*
X7474825Y-18032674D01*
X7474825Y-18032674D02*
X7484349Y-18051722D01*
X7484349Y-18051722D02*
X7484349Y-18156484D01*
X7608158Y-18156484D02*
X7589111Y-18146960D01*
X7589111Y-18146960D02*
X7579587Y-18137436D01*
X7579587Y-18137436D02*
X7570063Y-18118389D01*
X7570063Y-18118389D02*
X7570063Y-18061246D01*
X7570063Y-18061246D02*
X7579587Y-18042198D01*
X7579587Y-18042198D02*
X7589111Y-18032674D01*
X7589111Y-18032674D02*
X7608158Y-18023150D01*
X7608158Y-18023150D02*
X7636730Y-18023150D01*
X7636730Y-18023150D02*
X7655777Y-18032674D01*
X7655777Y-18032674D02*
X7665301Y-18042198D01*
X7665301Y-18042198D02*
X7674825Y-18061246D01*
X7674825Y-18061246D02*
X7674825Y-18118389D01*
X7674825Y-18118389D02*
X7665301Y-18137436D01*
X7665301Y-18137436D02*
X7655777Y-18146960D01*
X7655777Y-18146960D02*
X7636730Y-18156484D01*
X7636730Y-18156484D02*
X7608158Y-18156484D01*
X7731968Y-18023150D02*
X7808158Y-18023150D01*
X7760539Y-17956484D02*
X7760539Y-18127912D01*
X7760539Y-18127912D02*
X7770063Y-18146960D01*
X7770063Y-18146960D02*
X7789111Y-18156484D01*
X7789111Y-18156484D02*
X7808158Y-18156484D01*
X8027206Y-18023150D02*
X8027206Y-18223150D01*
X8027206Y-18032674D02*
X8046253Y-18023150D01*
X8046253Y-18023150D02*
X8084349Y-18023150D01*
X8084349Y-18023150D02*
X8103396Y-18032674D01*
X8103396Y-18032674D02*
X8112920Y-18042198D01*
X8112920Y-18042198D02*
X8122444Y-18061246D01*
X8122444Y-18061246D02*
X8122444Y-18118389D01*
X8122444Y-18118389D02*
X8112920Y-18137436D01*
X8112920Y-18137436D02*
X8103396Y-18146960D01*
X8103396Y-18146960D02*
X8084349Y-18156484D01*
X8084349Y-18156484D02*
X8046253Y-18156484D01*
X8046253Y-18156484D02*
X8027206Y-18146960D01*
X8236730Y-18156484D02*
X8217682Y-18146960D01*
X8217682Y-18146960D02*
X8208158Y-18127912D01*
X8208158Y-18127912D02*
X8208158Y-17956484D01*
X8398635Y-18156484D02*
X8398635Y-18051722D01*
X8398635Y-18051722D02*
X8389111Y-18032674D01*
X8389111Y-18032674D02*
X8370063Y-18023150D01*
X8370063Y-18023150D02*
X8331968Y-18023150D01*
X8331968Y-18023150D02*
X8312920Y-18032674D01*
X8398635Y-18146960D02*
X8379587Y-18156484D01*
X8379587Y-18156484D02*
X8331968Y-18156484D01*
X8331968Y-18156484D02*
X8312920Y-18146960D01*
X8312920Y-18146960D02*
X8303396Y-18127912D01*
X8303396Y-18127912D02*
X8303396Y-18108865D01*
X8303396Y-18108865D02*
X8312920Y-18089817D01*
X8312920Y-18089817D02*
X8331968Y-18080293D01*
X8331968Y-18080293D02*
X8379587Y-18080293D01*
X8379587Y-18080293D02*
X8398635Y-18070770D01*
X8465301Y-18023150D02*
X8541492Y-18023150D01*
X8493873Y-17956484D02*
X8493873Y-18127912D01*
X8493873Y-18127912D02*
X8503396Y-18146960D01*
X8503396Y-18146960D02*
X8522444Y-18156484D01*
X8522444Y-18156484D02*
X8541492Y-18156484D01*
X8684349Y-18146960D02*
X8665301Y-18156484D01*
X8665301Y-18156484D02*
X8627206Y-18156484D01*
X8627206Y-18156484D02*
X8608158Y-18146960D01*
X8608158Y-18146960D02*
X8598635Y-18127912D01*
X8598635Y-18127912D02*
X8598635Y-18051722D01*
X8598635Y-18051722D02*
X8608158Y-18032674D01*
X8608158Y-18032674D02*
X8627206Y-18023150D01*
X8627206Y-18023150D02*
X8665301Y-18023150D01*
X8665301Y-18023150D02*
X8684349Y-18032674D01*
X8684349Y-18032674D02*
X8693873Y-18051722D01*
X8693873Y-18051722D02*
X8693873Y-18070770D01*
X8693873Y-18070770D02*
X8598635Y-18089817D01*
X8865301Y-18156484D02*
X8865301Y-17956484D01*
X8865301Y-18146960D02*
X8846254Y-18156484D01*
X8846254Y-18156484D02*
X8808158Y-18156484D01*
X8808158Y-18156484D02*
X8789111Y-18146960D01*
X8789111Y-18146960D02*
X8779587Y-18137436D01*
X8779587Y-18137436D02*
X8770063Y-18118389D01*
X8770063Y-18118389D02*
X8770063Y-18061246D01*
X8770063Y-18061246D02*
X8779587Y-18042198D01*
X8779587Y-18042198D02*
X8789111Y-18032674D01*
X8789111Y-18032674D02*
X8808158Y-18023150D01*
X8808158Y-18023150D02*
X8846254Y-18023150D01*
X8846254Y-18023150D02*
X8865301Y-18032674D01*
X8941492Y-18232674D02*
X8951016Y-18223150D01*
X8951016Y-18223150D02*
X8970063Y-18194579D01*
X8970063Y-18194579D02*
X8979587Y-18175531D01*
X8979587Y-18175531D02*
X8989111Y-18146960D01*
X8989111Y-18146960D02*
X8998635Y-18099341D01*
X8998635Y-18099341D02*
X8998635Y-18061246D01*
X8998635Y-18061246D02*
X8989111Y-18013627D01*
X8989111Y-18013627D02*
X8979587Y-17985055D01*
X8979587Y-17985055D02*
X8970063Y-17966008D01*
X8970063Y-17966008D02*
X8951016Y-17937436D01*
X8951016Y-17937436D02*
X8941492Y-17927912D01*
M02*
