G04 #@! TF.GenerationSoftware,KiCad,Pcbnew,7.0.8*
G04 #@! TF.CreationDate,2023-12-11T18:28:00+01:00*
G04 #@! TF.ProjectId,stm_bob,73746d5f-626f-4622-9e6b-696361645f70,rev?*
G04 #@! TF.SameCoordinates,Original*
G04 #@! TF.FileFunction,Legend,Bot*
G04 #@! TF.FilePolarity,Positive*
%FSLAX46Y46*%
G04 Gerber Fmt 4.6, Leading zero omitted, Abs format (unit mm)*
G04 Created by KiCad (PCBNEW 7.0.8) date 2023-12-11 18:28:00*
%MOMM*%
%LPD*%
G01*
G04 APERTURE LIST*
G04 Aperture macros list*
%AMRoundRect*
0 Rectangle with rounded corners*
0 $1 Rounding radius*
0 $2 $3 $4 $5 $6 $7 $8 $9 X,Y pos of 4 corners*
0 Add a 4 corners polygon primitive as box body*
4,1,4,$2,$3,$4,$5,$6,$7,$8,$9,$2,$3,0*
0 Add four circle primitives for the rounded corners*
1,1,$1+$1,$2,$3*
1,1,$1+$1,$4,$5*
1,1,$1+$1,$6,$7*
1,1,$1+$1,$8,$9*
0 Add four rect primitives between the rounded corners*
20,1,$1+$1,$2,$3,$4,$5,0*
20,1,$1+$1,$4,$5,$6,$7,0*
20,1,$1+$1,$6,$7,$8,$9,0*
20,1,$1+$1,$8,$9,$2,$3,0*%
G04 Aperture macros list end*
%ADD10R,1.700000X1.700000*%
%ADD11O,1.700000X1.700000*%
%ADD12C,3.200000*%
%ADD13RoundRect,0.102000X-0.704000X0.704000X-0.704000X-0.704000X0.704000X-0.704000X0.704000X0.704000X0*%
%ADD14C,1.612000*%
%ADD15C,2.604000*%
%ADD16C,2.500000*%
%ADD17RoundRect,0.102000X-0.754000X-0.754000X0.754000X-0.754000X0.754000X0.754000X-0.754000X0.754000X0*%
%ADD18C,1.712000*%
%ADD19R,2.400000X2.400000*%
%ADD20C,2.400000*%
%ADD21R,1.300000X1.300000*%
%ADD22C,1.300000*%
%ADD23RoundRect,0.102000X0.609000X0.609000X-0.609000X0.609000X-0.609000X-0.609000X0.609000X-0.609000X0*%
%ADD24C,1.422000*%
G04 APERTURE END LIST*
%LPC*%
D10*
X60711000Y-50673000D03*
D11*
X58171000Y-50673000D03*
D10*
X61087000Y-115189000D03*
D11*
X61087000Y-117729000D03*
D10*
X66558000Y-165862000D03*
D11*
X69098000Y-165862000D03*
X71638000Y-165862000D03*
X74178000Y-165862000D03*
D12*
X30226000Y-137414000D03*
X30226000Y-148844000D03*
D13*
X36576000Y-138684000D03*
D14*
X39116000Y-139954000D03*
X36576000Y-141224000D03*
X39116000Y-142494000D03*
X36576000Y-143764000D03*
X39116000Y-145034000D03*
X36576000Y-146304000D03*
X39116000Y-147574000D03*
D15*
X27176000Y-135379000D03*
X27176000Y-150879000D03*
D10*
X154813000Y-114935000D03*
D11*
X154813000Y-117475000D03*
D12*
X30226000Y-97917000D03*
X30226000Y-109347000D03*
D13*
X36576000Y-99187000D03*
D14*
X39116000Y-100457000D03*
X36576000Y-101727000D03*
X39116000Y-102997000D03*
X36576000Y-104267000D03*
X39116000Y-105537000D03*
X36576000Y-106807000D03*
X39116000Y-108077000D03*
D15*
X27176000Y-95882000D03*
X27176000Y-111382000D03*
D10*
X31115000Y-165735000D03*
D11*
X31115000Y-163195000D03*
X31115000Y-160655000D03*
X31115000Y-158115000D03*
D16*
X157000000Y-165000000D03*
D17*
X72771000Y-74855000D03*
D18*
X75311000Y-74855000D03*
X72771000Y-77395000D03*
X75311000Y-77395000D03*
X72771000Y-79935000D03*
X75311000Y-79935000D03*
X72771000Y-82475000D03*
X75311000Y-82475000D03*
X72771000Y-85015000D03*
X75311000Y-85015000D03*
X72771000Y-87555000D03*
X75311000Y-87555000D03*
X72771000Y-90095000D03*
X75311000Y-90095000D03*
X72771000Y-92635000D03*
X75311000Y-92635000D03*
X72771000Y-95175000D03*
X75311000Y-95175000D03*
X72771000Y-97715000D03*
X75311000Y-97715000D03*
X72771000Y-100255000D03*
X75311000Y-100255000D03*
X72771000Y-102795000D03*
X75311000Y-102795000D03*
X72771000Y-105335000D03*
X75311000Y-105335000D03*
X72771000Y-107875000D03*
X75311000Y-107875000D03*
X72771000Y-110415000D03*
X75311000Y-110415000D03*
X72771000Y-112955000D03*
X75311000Y-112955000D03*
X72771000Y-115495000D03*
X75311000Y-115495000D03*
X72771000Y-118035000D03*
X75311000Y-118035000D03*
X72771000Y-120575000D03*
X75311000Y-120575000D03*
X72771000Y-123115000D03*
X75311000Y-123115000D03*
X72771000Y-125655000D03*
X75311000Y-125655000D03*
X72771000Y-128195000D03*
X75311000Y-128195000D03*
X72771000Y-130735000D03*
X75311000Y-130735000D03*
X72771000Y-133275000D03*
X75311000Y-133275000D03*
X72771000Y-135815000D03*
X75311000Y-135815000D03*
D17*
X123571000Y-74855000D03*
D18*
X126111000Y-74855000D03*
X123571000Y-77395000D03*
X126111000Y-77395000D03*
X123571000Y-79935000D03*
X126111000Y-79935000D03*
X123571000Y-82475000D03*
X126111000Y-82475000D03*
X123571000Y-85015000D03*
X126111000Y-85015000D03*
X123571000Y-87555000D03*
X126111000Y-87555000D03*
X123571000Y-90095000D03*
X126111000Y-90095000D03*
X123571000Y-92635000D03*
X126111000Y-92635000D03*
X123571000Y-95175000D03*
X126111000Y-95175000D03*
X123571000Y-97715000D03*
X126111000Y-97715000D03*
X123571000Y-100255000D03*
X126111000Y-100255000D03*
X123571000Y-102795000D03*
X126111000Y-102795000D03*
X123571000Y-105335000D03*
X126111000Y-105335000D03*
X123571000Y-107875000D03*
X126111000Y-107875000D03*
X123571000Y-110415000D03*
X126111000Y-110415000D03*
X123571000Y-112955000D03*
X126111000Y-112955000D03*
X123571000Y-115495000D03*
X126111000Y-115495000D03*
X123571000Y-118035000D03*
X126111000Y-118035000D03*
X123571000Y-120575000D03*
X126111000Y-120575000D03*
X123571000Y-123115000D03*
X126111000Y-123115000D03*
X123571000Y-125655000D03*
X126111000Y-125655000D03*
X123571000Y-128195000D03*
X126111000Y-128195000D03*
X123571000Y-130735000D03*
X126111000Y-130735000D03*
X123571000Y-133275000D03*
X126111000Y-133275000D03*
X123571000Y-135815000D03*
X126111000Y-135815000D03*
D10*
X74041000Y-157607000D03*
D11*
X71501000Y-157607000D03*
X68961000Y-157607000D03*
D19*
X149578000Y-36422000D03*
D20*
X146078000Y-36422000D03*
D10*
X130683000Y-166878000D03*
D11*
X130683000Y-164338000D03*
X130683000Y-161798000D03*
D10*
X92075000Y-166878000D03*
D11*
X92075000Y-164338000D03*
X92075000Y-161798000D03*
D10*
X99187000Y-166878000D03*
D11*
X99187000Y-164338000D03*
X99187000Y-161798000D03*
D10*
X84709000Y-166878000D03*
D11*
X84709000Y-164338000D03*
X84709000Y-161798000D03*
D16*
X24000000Y-165000000D03*
D12*
X30226000Y-78105000D03*
X30226000Y-89535000D03*
D13*
X36576000Y-79375000D03*
D14*
X39116000Y-80645000D03*
X36576000Y-81915000D03*
X39116000Y-83185000D03*
X36576000Y-84455000D03*
X39116000Y-85725000D03*
X36576000Y-86995000D03*
X39116000Y-88265000D03*
D15*
X27176000Y-76070000D03*
X27176000Y-91570000D03*
D16*
X24000000Y-35000000D03*
D10*
X41402000Y-165862000D03*
D11*
X43942000Y-165862000D03*
X46482000Y-165862000D03*
X49022000Y-165862000D03*
D10*
X114935000Y-166878000D03*
D11*
X114935000Y-164338000D03*
X114935000Y-161798000D03*
D16*
X157000000Y-35000000D03*
D12*
X30226000Y-117729000D03*
X30226000Y-129159000D03*
D13*
X36576000Y-118999000D03*
D14*
X39116000Y-120269000D03*
X36576000Y-121539000D03*
X39116000Y-122809000D03*
X36576000Y-124079000D03*
X39116000Y-125349000D03*
X36576000Y-126619000D03*
X39116000Y-127889000D03*
D15*
X27176000Y-115694000D03*
X27176000Y-131194000D03*
D12*
X30226000Y-58420000D03*
X30226000Y-69850000D03*
D13*
X36576000Y-59690000D03*
D14*
X39116000Y-60960000D03*
X36576000Y-62230000D03*
X39116000Y-63500000D03*
X36576000Y-64770000D03*
X39116000Y-66040000D03*
X36576000Y-67310000D03*
X39116000Y-68580000D03*
D15*
X27176000Y-56385000D03*
X27176000Y-71885000D03*
D10*
X154813000Y-105918000D03*
D11*
X154813000Y-103378000D03*
D10*
X54102000Y-165862000D03*
D11*
X56642000Y-165862000D03*
X59182000Y-165862000D03*
X61722000Y-165862000D03*
D21*
X42164000Y-34616500D03*
D22*
X39624000Y-34616500D03*
X37084000Y-34616500D03*
D21*
X150922398Y-75500537D03*
D22*
X148382398Y-75500537D03*
X145842398Y-75500537D03*
D10*
X60833000Y-95382000D03*
D11*
X60833000Y-92842000D03*
D10*
X142748000Y-165862000D03*
D11*
X145288000Y-165862000D03*
X147828000Y-165862000D03*
X150368000Y-165862000D03*
D10*
X24384000Y-48260000D03*
D11*
X24384000Y-45720000D03*
D23*
X146302580Y-116575882D03*
D24*
X143762580Y-116575882D03*
X141222580Y-116575882D03*
D10*
X107569000Y-166878000D03*
D11*
X107569000Y-164338000D03*
X107569000Y-161798000D03*
D10*
X122555000Y-166878000D03*
D11*
X122555000Y-164338000D03*
X122555000Y-161798000D03*
%LPD*%
M02*
