M48
; DRILL file {KiCad 7.0.8} date Mon Dec 11 18:28:18 2023
; FORMAT={-:-/ absolute / metric / decimal}
; #@! TF.CreationDate,2023-12-11T18:28:18+01:00
; #@! TF.GenerationSoftware,Kicad,Pcbnew,7.0.8
; #@! TF.FileFunction,Plated,1,4,PTH
FMAT,2
METRIC
; #@! TA.AperFunction,Plated,PTH,ViaDrill
T1C0.300
; #@! TA.AperFunction,Plated,PTH,ViaDrill
T2C0.400
; #@! TA.AperFunction,Plated,PTH,ViaDrill
T3C0.500
; #@! TA.AperFunction,Plated,PTH,ComponentDrill
T4C0.700
; #@! TA.AperFunction,Plated,PTH,ComponentDrill
T5C0.710
; #@! TA.AperFunction,Plated,PTH,ComponentDrill
T6C0.900
; #@! TA.AperFunction,Plated,PTH,ComponentDrill
T7C1.000
; #@! TA.AperFunction,Plated,PTH,ComponentDrill
T8C1.200
; #@! TA.AperFunction,Plated,PTH,ComponentDrill
T9C1.600
%
G90
G05
T1
X61.483Y-143.139
X61.976Y-141.732
X62.535Y-142.392
T2
X31.115Y-43.942
X40.386Y-48.169
X40.386Y-49.439
X40.386Y-50.673
X41.656Y-50.673
X42.926Y-50.673
X44.069Y-146.558
X48.26Y-50.673
X49.276Y-98.552
X49.53Y-79.375
X51.74Y-126.822
X51.816Y-87.249
X51.816Y-146.431
X51.848Y-66.802
X51.848Y-107.086
X52.832Y-141.732
X53.086Y-121.793
X53.213Y-61.468
X53.721Y-126.822
X53.848Y-87.249
X53.848Y-146.431
X53.88Y-107.061
X53.975Y-66.802
X55.321Y-78.08
X56.134Y-79.375
X56.134Y-98.933
X56.896Y-68.326
X58.039Y-67.31
X59.817Y-102.362
X60.198Y-105.918
X61.341Y-85.979
X62.738Y-65.278
X63.119Y-85.344
X68.961Y-148.209
X72.771Y-72.644
X72.771Y-148.59
X75.311Y-72.644
X85.852Y-125.857
X90.805Y-136.271
X90.932Y-146.558
X98.044Y-136.271
X98.552Y-146.558
X106.172Y-146.558
X106.426Y-136.271
X110.363Y-33.655
X113.792Y-146.558
X119.38Y-125.603
X121.031Y-33.655
X121.412Y-146.558
X123.571Y-72.517
X123.698Y-33.782
X126.111Y-72.517
X129.667Y-113.03
X133.731Y-33.782
X136.947Y-152.305
X138.938Y-105.664
X139.446Y-129.413
X139.7Y-140.208
X140.97Y-97.663
X141.184Y-100.837
X144.653Y-50.673
X144.653Y-52.832
X144.729Y-88.722
X144.729Y-90.246
X145.999Y-88.722
X145.999Y-90.246
X146.05Y-52.832
X147.269Y-88.722
X147.269Y-90.246
X147.447Y-50.673
X147.447Y-52.832
X147.447Y-109.093
X147.701Y-122.428
X148.336Y-110.871
X148.539Y-90.246
X149.987Y-116.586
X151.13Y-136.017
X151.852Y-157.734
X152.146Y-142.113
X152.654Y-133.858
X152.781Y-100.584
X156.337Y-132.969
X157.226Y-109.347
X157.561Y-147.577
T3
X46.584Y-147.447
X46.609Y-108.077
X46.615Y-67.945
X46.615Y-88.138
X46.736Y-127.838
X46.99Y-45.63
X53.086Y-46.609
X58.039Y-68.326
X58.039Y-128.067
X58.166Y-88.494
X58.166Y-108.331
X58.166Y-147.701
X60.96Y-41.529
X65.659Y-147.066
X71.374Y-147.066
X83.566Y-146.558
X129.161Y-146.601
X138.557Y-35.433
X143.299Y-162.307
X149.225Y-110.871
X151.944Y-58.609
X154.305Y-86.36
X154.305Y-87.376
X154.305Y-88.519
X155.321Y-87.376
X156.275Y-66.531
T4
X37.084Y-34.616
X39.624Y-34.616
X42.164Y-34.616
X145.842Y-75.501
X148.382Y-75.501
X150.922Y-75.501
T5
X141.223Y-116.576
X143.763Y-116.576
X146.303Y-116.576
T6
X36.576Y-59.69
X36.576Y-62.23
X36.576Y-64.77
X36.576Y-67.31
X36.576Y-79.375
X36.576Y-81.915
X36.576Y-84.455
X36.576Y-86.995
X36.576Y-99.187
X36.576Y-101.727
X36.576Y-104.267
X36.576Y-106.807
X36.576Y-118.999
X36.576Y-121.539
X36.576Y-124.079
X36.576Y-126.619
X36.576Y-138.684
X36.576Y-141.224
X36.576Y-143.764
X36.576Y-146.304
X39.116Y-60.96
X39.116Y-63.5
X39.116Y-66.04
X39.116Y-68.58
X39.116Y-80.645
X39.116Y-83.185
X39.116Y-85.725
X39.116Y-88.265
X39.116Y-100.457
X39.116Y-102.997
X39.116Y-105.537
X39.116Y-108.077
X39.116Y-120.269
X39.116Y-122.809
X39.116Y-125.349
X39.116Y-127.889
X39.116Y-139.954
X39.116Y-142.494
X39.116Y-145.034
X39.116Y-147.574
T7
X24.384Y-45.72
X24.384Y-48.26
X31.115Y-158.115
X31.115Y-160.655
X31.115Y-163.195
X31.115Y-165.735
X41.402Y-165.862
X43.942Y-165.862
X46.482Y-165.862
X49.022Y-165.862
X54.102Y-165.862
X56.642Y-165.862
X58.171Y-50.673
X59.182Y-165.862
X60.711Y-50.673
X60.833Y-92.842
X60.833Y-95.382
X61.087Y-115.189
X61.087Y-117.729
X61.722Y-165.862
X66.558Y-165.862
X68.961Y-157.607
X69.098Y-165.862
X71.501Y-157.607
X71.638Y-165.862
X72.771Y-74.855
X72.771Y-77.395
X72.771Y-79.935
X72.771Y-82.475
X72.771Y-85.015
X72.771Y-87.555
X72.771Y-90.095
X72.771Y-92.635
X72.771Y-95.175
X72.771Y-97.715
X72.771Y-100.255
X72.771Y-102.795
X72.771Y-105.335
X72.771Y-107.875
X72.771Y-110.415
X72.771Y-112.955
X72.771Y-115.495
X72.771Y-118.035
X72.771Y-120.575
X72.771Y-123.115
X72.771Y-125.655
X72.771Y-128.195
X72.771Y-130.735
X72.771Y-133.275
X72.771Y-135.815
X74.041Y-157.607
X74.178Y-165.862
X75.311Y-74.855
X75.311Y-77.395
X75.311Y-79.935
X75.311Y-82.475
X75.311Y-85.015
X75.311Y-87.555
X75.311Y-90.095
X75.311Y-92.635
X75.311Y-95.175
X75.311Y-97.715
X75.311Y-100.255
X75.311Y-102.795
X75.311Y-105.335
X75.311Y-107.875
X75.311Y-110.415
X75.311Y-112.955
X75.311Y-115.495
X75.311Y-118.035
X75.311Y-120.575
X75.311Y-123.115
X75.311Y-125.655
X75.311Y-128.195
X75.311Y-130.735
X75.311Y-133.275
X75.311Y-135.815
X84.709Y-161.798
X84.709Y-164.338
X84.709Y-166.878
X92.075Y-161.798
X92.075Y-164.338
X92.075Y-166.878
X99.187Y-161.798
X99.187Y-164.338
X99.187Y-166.878
X107.569Y-161.798
X107.569Y-164.338
X107.569Y-166.878
X114.935Y-161.798
X114.935Y-164.338
X114.935Y-166.878
X122.555Y-161.798
X122.555Y-164.338
X122.555Y-166.878
X123.571Y-74.855
X123.571Y-77.395
X123.571Y-79.935
X123.571Y-82.475
X123.571Y-85.015
X123.571Y-87.555
X123.571Y-90.095
X123.571Y-92.635
X123.571Y-95.175
X123.571Y-97.715
X123.571Y-100.255
X123.571Y-102.795
X123.571Y-105.335
X123.571Y-107.875
X123.571Y-110.415
X123.571Y-112.955
X123.571Y-115.495
X123.571Y-118.035
X123.571Y-120.575
X123.571Y-123.115
X123.571Y-125.655
X123.571Y-128.195
X123.571Y-130.735
X123.571Y-133.275
X123.571Y-135.815
X126.111Y-74.855
X126.111Y-77.395
X126.111Y-79.935
X126.111Y-82.475
X126.111Y-85.015
X126.111Y-87.555
X126.111Y-90.095
X126.111Y-92.635
X126.111Y-95.175
X126.111Y-97.715
X126.111Y-100.255
X126.111Y-102.795
X126.111Y-105.335
X126.111Y-107.875
X126.111Y-110.415
X126.111Y-112.955
X126.111Y-115.495
X126.111Y-118.035
X126.111Y-120.575
X126.111Y-123.115
X126.111Y-125.655
X126.111Y-128.195
X126.111Y-130.735
X126.111Y-133.275
X126.111Y-135.815
X130.683Y-161.798
X130.683Y-164.338
X130.683Y-166.878
X142.748Y-165.862
X145.288Y-165.862
X147.828Y-165.862
X150.368Y-165.862
X154.813Y-103.378
X154.813Y-105.918
X154.813Y-114.935
X154.813Y-117.475
T8
X146.078Y-36.422
X149.578Y-36.422
T9
X27.176Y-56.385
X27.176Y-71.885
X27.176Y-76.07
X27.176Y-91.57
X27.176Y-95.882
X27.176Y-111.382
X27.176Y-115.694
X27.176Y-131.194
X27.176Y-135.379
X27.176Y-150.879
T0
M30
