%TF.GenerationSoftware,KiCad,Pcbnew,7.0.8*%
%TF.CreationDate,2023-12-11T18:28:23+01:00*%
%TF.ProjectId,stm_bob,73746d5f-626f-4622-9e6b-696361645f70,rev?*%
%TF.SameCoordinates,Original*%
%TF.FileFunction,Drillmap*%
%TF.FilePolarity,Positive*%
%FSLAX45Y45*%
G04 Gerber Fmt 4.5, Leading zero omitted, Abs format (unit mm)*
G04 Created by KiCad (PCBNEW 7.0.8) date 2023-12-11 18:28:23*
%MOMM*%
%LPD*%
G01*
G04 APERTURE LIST*
%ADD10C,0.100000*%
%ADD11C,0.200000*%
%ADD12C,0.030000*%
%ADD13C,0.040000*%
%ADD14C,0.050000*%
%ADD15C,0.070000*%
%ADD16C,0.071000*%
%ADD17C,0.090000*%
%ADD18C,0.120000*%
%ADD19C,0.160000*%
G04 APERTURE END LIST*
D10*
X2000000Y-3000000D02*
X16200000Y-3000000D01*
X16200000Y-17100000D01*
X2000000Y-17100000D01*
X2000000Y-3000000D01*
D11*
D12*
X6133299Y-14298941D02*
X6163299Y-14328941D01*
X6163299Y-14298941D02*
X6133299Y-14328941D01*
X6182600Y-14158200D02*
X6212600Y-14188200D01*
X6212600Y-14158200D02*
X6182600Y-14188200D01*
X6238480Y-14224240D02*
X6268480Y-14254240D01*
X6268480Y-14224240D02*
X6238480Y-14254240D01*
D13*
X3131500Y-4394200D02*
G75*
G03*
X3131500Y-4394200I-20000J0D01*
G01*
X4058600Y-4816950D02*
G75*
G03*
X4058600Y-4816950I-20000J0D01*
G01*
X4058600Y-4943950D02*
G75*
G03*
X4058600Y-4943950I-20000J0D01*
G01*
X4058600Y-5067300D02*
G75*
G03*
X4058600Y-5067300I-20000J0D01*
G01*
X4185600Y-5067300D02*
G75*
G03*
X4185600Y-5067300I-20000J0D01*
G01*
X4312600Y-5067300D02*
G75*
G03*
X4312600Y-5067300I-20000J0D01*
G01*
X4426900Y-14655800D02*
G75*
G03*
X4426900Y-14655800I-20000J0D01*
G01*
X4846000Y-5067300D02*
G75*
G03*
X4846000Y-5067300I-20000J0D01*
G01*
X4947600Y-9855200D02*
G75*
G03*
X4947600Y-9855200I-20000J0D01*
G01*
X4973000Y-7937500D02*
G75*
G03*
X4973000Y-7937500I-20000J0D01*
G01*
X5194050Y-12682200D02*
G75*
G03*
X5194050Y-12682200I-20000J0D01*
G01*
X5201600Y-8724900D02*
G75*
G03*
X5201600Y-8724900I-20000J0D01*
G01*
X5201600Y-14643100D02*
G75*
G03*
X5201600Y-14643100I-20000J0D01*
G01*
X5204775Y-6680200D02*
G75*
G03*
X5204775Y-6680200I-20000J0D01*
G01*
X5204775Y-10708640D02*
G75*
G03*
X5204775Y-10708640I-20000J0D01*
G01*
X5303200Y-14173200D02*
G75*
G03*
X5303200Y-14173200I-20000J0D01*
G01*
X5328600Y-12179300D02*
G75*
G03*
X5328600Y-12179300I-20000J0D01*
G01*
X5341300Y-6146800D02*
G75*
G03*
X5341300Y-6146800I-20000J0D01*
G01*
X5392100Y-12682200D02*
G75*
G03*
X5392100Y-12682200I-20000J0D01*
G01*
X5404800Y-8724900D02*
G75*
G03*
X5404800Y-8724900I-20000J0D01*
G01*
X5404800Y-14643100D02*
G75*
G03*
X5404800Y-14643100I-20000J0D01*
G01*
X5407975Y-10706100D02*
G75*
G03*
X5407975Y-10706100I-20000J0D01*
G01*
X5417500Y-6680200D02*
G75*
G03*
X5417500Y-6680200I-20000J0D01*
G01*
X5552120Y-7807960D02*
G75*
G03*
X5552120Y-7807960I-20000J0D01*
G01*
X5633400Y-7937500D02*
G75*
G03*
X5633400Y-7937500I-20000J0D01*
G01*
X5633400Y-9893300D02*
G75*
G03*
X5633400Y-9893300I-20000J0D01*
G01*
X5709600Y-6832600D02*
G75*
G03*
X5709600Y-6832600I-20000J0D01*
G01*
X5823900Y-6731000D02*
G75*
G03*
X5823900Y-6731000I-20000J0D01*
G01*
X6001700Y-10236200D02*
G75*
G03*
X6001700Y-10236200I-20000J0D01*
G01*
X6039800Y-10591800D02*
G75*
G03*
X6039800Y-10591800I-20000J0D01*
G01*
X6154100Y-8597900D02*
G75*
G03*
X6154100Y-8597900I-20000J0D01*
G01*
X6293800Y-6527800D02*
G75*
G03*
X6293800Y-6527800I-20000J0D01*
G01*
X6331900Y-8534400D02*
G75*
G03*
X6331900Y-8534400I-20000J0D01*
G01*
X6916100Y-14820900D02*
G75*
G03*
X6916100Y-14820900I-20000J0D01*
G01*
X7297100Y-7264400D02*
G75*
G03*
X7297100Y-7264400I-20000J0D01*
G01*
X7297100Y-14859000D02*
G75*
G03*
X7297100Y-14859000I-20000J0D01*
G01*
X7551100Y-7264400D02*
G75*
G03*
X7551100Y-7264400I-20000J0D01*
G01*
X8605200Y-12585700D02*
G75*
G03*
X8605200Y-12585700I-20000J0D01*
G01*
X9100500Y-13627100D02*
G75*
G03*
X9100500Y-13627100I-20000J0D01*
G01*
X9113200Y-14655800D02*
G75*
G03*
X9113200Y-14655800I-20000J0D01*
G01*
X9824400Y-13627100D02*
G75*
G03*
X9824400Y-13627100I-20000J0D01*
G01*
X9875200Y-14655800D02*
G75*
G03*
X9875200Y-14655800I-20000J0D01*
G01*
X10637200Y-14655800D02*
G75*
G03*
X10637200Y-14655800I-20000J0D01*
G01*
X10662600Y-13627100D02*
G75*
G03*
X10662600Y-13627100I-20000J0D01*
G01*
X11056300Y-3365500D02*
G75*
G03*
X11056300Y-3365500I-20000J0D01*
G01*
X11399200Y-14655800D02*
G75*
G03*
X11399200Y-14655800I-20000J0D01*
G01*
X11958000Y-12560300D02*
G75*
G03*
X11958000Y-12560300I-20000J0D01*
G01*
X12123100Y-3365500D02*
G75*
G03*
X12123100Y-3365500I-20000J0D01*
G01*
X12161200Y-14655800D02*
G75*
G03*
X12161200Y-14655800I-20000J0D01*
G01*
X12377100Y-7251700D02*
G75*
G03*
X12377100Y-7251700I-20000J0D01*
G01*
X12389800Y-3378200D02*
G75*
G03*
X12389800Y-3378200I-20000J0D01*
G01*
X12631100Y-7251700D02*
G75*
G03*
X12631100Y-7251700I-20000J0D01*
G01*
X12986700Y-11303000D02*
G75*
G03*
X12986700Y-11303000I-20000J0D01*
G01*
X13393100Y-3378200D02*
G75*
G03*
X13393100Y-3378200I-20000J0D01*
G01*
X13714735Y-15230516D02*
G75*
G03*
X13714735Y-15230516I-20000J0D01*
G01*
X13913800Y-10566400D02*
G75*
G03*
X13913800Y-10566400I-20000J0D01*
G01*
X13964600Y-12941300D02*
G75*
G03*
X13964600Y-12941300I-20000J0D01*
G01*
X13990000Y-14020800D02*
G75*
G03*
X13990000Y-14020800I-20000J0D01*
G01*
X14117000Y-9766300D02*
G75*
G03*
X14117000Y-9766300I-20000J0D01*
G01*
X14138395Y-10083663D02*
G75*
G03*
X14138395Y-10083663I-20000J0D01*
G01*
X14485300Y-5067300D02*
G75*
G03*
X14485300Y-5067300I-20000J0D01*
G01*
X14485300Y-5283200D02*
G75*
G03*
X14485300Y-5283200I-20000J0D01*
G01*
X14492920Y-8872220D02*
G75*
G03*
X14492920Y-8872220I-20000J0D01*
G01*
X14492920Y-9024620D02*
G75*
G03*
X14492920Y-9024620I-20000J0D01*
G01*
X14619920Y-8872220D02*
G75*
G03*
X14619920Y-8872220I-20000J0D01*
G01*
X14619920Y-9024620D02*
G75*
G03*
X14619920Y-9024620I-20000J0D01*
G01*
X14625000Y-5283200D02*
G75*
G03*
X14625000Y-5283200I-20000J0D01*
G01*
X14746920Y-8872220D02*
G75*
G03*
X14746920Y-8872220I-20000J0D01*
G01*
X14746920Y-9024620D02*
G75*
G03*
X14746920Y-9024620I-20000J0D01*
G01*
X14764700Y-5067300D02*
G75*
G03*
X14764700Y-5067300I-20000J0D01*
G01*
X14764700Y-5283200D02*
G75*
G03*
X14764700Y-5283200I-20000J0D01*
G01*
X14764700Y-10909300D02*
G75*
G03*
X14764700Y-10909300I-20000J0D01*
G01*
X14790100Y-12242800D02*
G75*
G03*
X14790100Y-12242800I-20000J0D01*
G01*
X14853600Y-11087100D02*
G75*
G03*
X14853600Y-11087100I-20000J0D01*
G01*
X14873920Y-9024620D02*
G75*
G03*
X14873920Y-9024620I-20000J0D01*
G01*
X15018700Y-11658600D02*
G75*
G03*
X15018700Y-11658600I-20000J0D01*
G01*
X15133000Y-13601700D02*
G75*
G03*
X15133000Y-13601700I-20000J0D01*
G01*
X15205200Y-15773400D02*
G75*
G03*
X15205200Y-15773400I-20000J0D01*
G01*
X15234600Y-14211300D02*
G75*
G03*
X15234600Y-14211300I-20000J0D01*
G01*
X15285400Y-13385800D02*
G75*
G03*
X15285400Y-13385800I-20000J0D01*
G01*
X15298100Y-10058400D02*
G75*
G03*
X15298100Y-10058400I-20000J0D01*
G01*
X15653700Y-13296900D02*
G75*
G03*
X15653700Y-13296900I-20000J0D01*
G01*
X15742600Y-10934700D02*
G75*
G03*
X15742600Y-10934700I-20000J0D01*
G01*
X15776111Y-14757678D02*
G75*
G03*
X15776111Y-14757678I-20000J0D01*
G01*
D14*
X4658360Y-14719700D02*
X4658360Y-14769700D01*
X4633360Y-14744700D02*
X4683360Y-14744700D01*
X4660900Y-10782700D02*
X4660900Y-10832700D01*
X4635900Y-10807700D02*
X4685900Y-10807700D01*
X4661535Y-6769500D02*
X4661535Y-6819500D01*
X4636535Y-6794500D02*
X4686535Y-6794500D01*
X4661535Y-8788800D02*
X4661535Y-8838800D01*
X4636535Y-8813800D02*
X4686535Y-8813800D01*
X4673600Y-12758800D02*
X4673600Y-12808800D01*
X4648600Y-12783800D02*
X4698600Y-12783800D01*
X4699000Y-4537950D02*
X4699000Y-4587950D01*
X4674000Y-4562950D02*
X4724000Y-4562950D01*
X5308600Y-4635900D02*
X5308600Y-4685900D01*
X5283600Y-4660900D02*
X5333600Y-4660900D01*
X5803900Y-6807600D02*
X5803900Y-6857600D01*
X5778900Y-6832600D02*
X5828900Y-6832600D01*
X5803900Y-12781660D02*
X5803900Y-12831660D01*
X5778900Y-12806660D02*
X5828900Y-12806660D01*
X5816600Y-8824360D02*
X5816600Y-8874360D01*
X5791600Y-8849360D02*
X5841600Y-8849360D01*
X5816600Y-10808100D02*
X5816600Y-10858100D01*
X5791600Y-10833100D02*
X5841600Y-10833100D01*
X5816600Y-14745100D02*
X5816600Y-14795100D01*
X5791600Y-14770100D02*
X5841600Y-14770100D01*
X6096000Y-4127900D02*
X6096000Y-4177900D01*
X6071000Y-4152900D02*
X6121000Y-4152900D01*
X6565900Y-14681600D02*
X6565900Y-14731600D01*
X6540900Y-14706600D02*
X6590900Y-14706600D01*
X7137400Y-14681600D02*
X7137400Y-14731600D01*
X7112400Y-14706600D02*
X7162400Y-14706600D01*
X8356600Y-14630800D02*
X8356600Y-14680800D01*
X8331600Y-14655800D02*
X8381600Y-14655800D01*
X12916073Y-14635091D02*
X12916073Y-14685091D01*
X12891073Y-14660091D02*
X12941073Y-14660091D01*
X13855700Y-3518300D02*
X13855700Y-3568300D01*
X13830700Y-3543300D02*
X13880700Y-3543300D01*
X14329906Y-16205666D02*
X14329906Y-16255666D01*
X14304906Y-16230666D02*
X14354906Y-16230666D01*
X14922500Y-11062100D02*
X14922500Y-11112100D01*
X14897500Y-11087100D02*
X14947500Y-11087100D01*
X15194369Y-5835903D02*
X15194369Y-5885903D01*
X15169369Y-5860903D02*
X15219369Y-5860903D01*
X15430500Y-8611000D02*
X15430500Y-8661000D01*
X15405500Y-8636000D02*
X15455500Y-8636000D01*
X15430500Y-8712600D02*
X15430500Y-8762600D01*
X15405500Y-8737600D02*
X15455500Y-8737600D01*
X15430500Y-8826900D02*
X15430500Y-8876900D01*
X15405500Y-8851900D02*
X15455500Y-8851900D01*
X15532100Y-8712600D02*
X15532100Y-8762600D01*
X15507100Y-8737600D02*
X15557100Y-8737600D01*
X15627497Y-6628127D02*
X15627497Y-6678127D01*
X15602497Y-6653127D02*
X15652497Y-6653127D01*
D15*
X3733149Y-3486399D02*
X3733149Y-3436901D01*
X3683651Y-3436901D01*
X3683651Y-3486399D01*
X3733149Y-3486399D01*
X3987149Y-3486399D02*
X3987149Y-3436901D01*
X3937651Y-3436901D01*
X3937651Y-3486399D01*
X3987149Y-3486399D01*
X4241149Y-3486399D02*
X4241149Y-3436901D01*
X4191651Y-3436901D01*
X4191651Y-3486399D01*
X4241149Y-3486399D01*
X14608989Y-7574803D02*
X14608989Y-7525305D01*
X14559491Y-7525305D01*
X14559491Y-7574803D01*
X14608989Y-7574803D01*
X14862989Y-7574803D02*
X14862989Y-7525305D01*
X14813491Y-7525305D01*
X14813491Y-7574803D01*
X14862989Y-7574803D01*
X15116989Y-7574803D02*
X15116989Y-7525305D01*
X15067491Y-7525305D01*
X15067491Y-7574803D01*
X15116989Y-7574803D01*
D16*
X14122258Y-11693088D02*
X14157758Y-11657588D01*
X14122258Y-11622088D01*
X14086758Y-11657588D01*
X14122258Y-11693088D01*
X14376258Y-11693088D02*
X14411758Y-11657588D01*
X14376258Y-11622088D01*
X14340758Y-11657588D01*
X14376258Y-11693088D01*
X14630258Y-11693088D02*
X14665758Y-11657588D01*
X14630258Y-11622088D01*
X14594758Y-11657588D01*
X14630258Y-11693088D01*
D17*
X3612600Y-5924000D02*
X3702600Y-6014000D01*
X3702600Y-5924000D02*
X3612600Y-6014000D01*
X3702600Y-5969000D02*
G75*
G03*
X3702600Y-5969000I-45000J0D01*
G01*
X3612600Y-6178000D02*
X3702600Y-6268000D01*
X3702600Y-6178000D02*
X3612600Y-6268000D01*
X3702600Y-6223000D02*
G75*
G03*
X3702600Y-6223000I-45000J0D01*
G01*
X3612600Y-6432000D02*
X3702600Y-6522000D01*
X3702600Y-6432000D02*
X3612600Y-6522000D01*
X3702600Y-6477000D02*
G75*
G03*
X3702600Y-6477000I-45000J0D01*
G01*
X3612600Y-6686000D02*
X3702600Y-6776000D01*
X3702600Y-6686000D02*
X3612600Y-6776000D01*
X3702600Y-6731000D02*
G75*
G03*
X3702600Y-6731000I-45000J0D01*
G01*
X3612600Y-7892500D02*
X3702600Y-7982500D01*
X3702600Y-7892500D02*
X3612600Y-7982500D01*
X3702600Y-7937500D02*
G75*
G03*
X3702600Y-7937500I-45000J0D01*
G01*
X3612600Y-8146500D02*
X3702600Y-8236500D01*
X3702600Y-8146500D02*
X3612600Y-8236500D01*
X3702600Y-8191500D02*
G75*
G03*
X3702600Y-8191500I-45000J0D01*
G01*
X3612600Y-8400500D02*
X3702600Y-8490500D01*
X3702600Y-8400500D02*
X3612600Y-8490500D01*
X3702600Y-8445500D02*
G75*
G03*
X3702600Y-8445500I-45000J0D01*
G01*
X3612600Y-8654500D02*
X3702600Y-8744500D01*
X3702600Y-8654500D02*
X3612600Y-8744500D01*
X3702600Y-8699500D02*
G75*
G03*
X3702600Y-8699500I-45000J0D01*
G01*
X3612600Y-9873700D02*
X3702600Y-9963700D01*
X3702600Y-9873700D02*
X3612600Y-9963700D01*
X3702600Y-9918700D02*
G75*
G03*
X3702600Y-9918700I-45000J0D01*
G01*
X3612600Y-10127700D02*
X3702600Y-10217700D01*
X3702600Y-10127700D02*
X3612600Y-10217700D01*
X3702600Y-10172700D02*
G75*
G03*
X3702600Y-10172700I-45000J0D01*
G01*
X3612600Y-10381700D02*
X3702600Y-10471700D01*
X3702600Y-10381700D02*
X3612600Y-10471700D01*
X3702600Y-10426700D02*
G75*
G03*
X3702600Y-10426700I-45000J0D01*
G01*
X3612600Y-10635700D02*
X3702600Y-10725700D01*
X3702600Y-10635700D02*
X3612600Y-10725700D01*
X3702600Y-10680700D02*
G75*
G03*
X3702600Y-10680700I-45000J0D01*
G01*
X3612600Y-11854900D02*
X3702600Y-11944900D01*
X3702600Y-11854900D02*
X3612600Y-11944900D01*
X3702600Y-11899900D02*
G75*
G03*
X3702600Y-11899900I-45000J0D01*
G01*
X3612600Y-12108900D02*
X3702600Y-12198900D01*
X3702600Y-12108900D02*
X3612600Y-12198900D01*
X3702600Y-12153900D02*
G75*
G03*
X3702600Y-12153900I-45000J0D01*
G01*
X3612600Y-12362900D02*
X3702600Y-12452900D01*
X3702600Y-12362900D02*
X3612600Y-12452900D01*
X3702600Y-12407900D02*
G75*
G03*
X3702600Y-12407900I-45000J0D01*
G01*
X3612600Y-12616900D02*
X3702600Y-12706900D01*
X3702600Y-12616900D02*
X3612600Y-12706900D01*
X3702600Y-12661900D02*
G75*
G03*
X3702600Y-12661900I-45000J0D01*
G01*
X3612600Y-13823400D02*
X3702600Y-13913400D01*
X3702600Y-13823400D02*
X3612600Y-13913400D01*
X3702600Y-13868400D02*
G75*
G03*
X3702600Y-13868400I-45000J0D01*
G01*
X3612600Y-14077400D02*
X3702600Y-14167400D01*
X3702600Y-14077400D02*
X3612600Y-14167400D01*
X3702600Y-14122400D02*
G75*
G03*
X3702600Y-14122400I-45000J0D01*
G01*
X3612600Y-14331400D02*
X3702600Y-14421400D01*
X3702600Y-14331400D02*
X3612600Y-14421400D01*
X3702600Y-14376400D02*
G75*
G03*
X3702600Y-14376400I-45000J0D01*
G01*
X3612600Y-14585400D02*
X3702600Y-14675400D01*
X3702600Y-14585400D02*
X3612600Y-14675400D01*
X3702600Y-14630400D02*
G75*
G03*
X3702600Y-14630400I-45000J0D01*
G01*
X3866600Y-6051000D02*
X3956600Y-6141000D01*
X3956600Y-6051000D02*
X3866600Y-6141000D01*
X3956600Y-6096000D02*
G75*
G03*
X3956600Y-6096000I-45000J0D01*
G01*
X3866600Y-6305000D02*
X3956600Y-6395000D01*
X3956600Y-6305000D02*
X3866600Y-6395000D01*
X3956600Y-6350000D02*
G75*
G03*
X3956600Y-6350000I-45000J0D01*
G01*
X3866600Y-6559000D02*
X3956600Y-6649000D01*
X3956600Y-6559000D02*
X3866600Y-6649000D01*
X3956600Y-6604000D02*
G75*
G03*
X3956600Y-6604000I-45000J0D01*
G01*
X3866600Y-6813000D02*
X3956600Y-6903000D01*
X3956600Y-6813000D02*
X3866600Y-6903000D01*
X3956600Y-6858000D02*
G75*
G03*
X3956600Y-6858000I-45000J0D01*
G01*
X3866600Y-8019500D02*
X3956600Y-8109500D01*
X3956600Y-8019500D02*
X3866600Y-8109500D01*
X3956600Y-8064500D02*
G75*
G03*
X3956600Y-8064500I-45000J0D01*
G01*
X3866600Y-8273500D02*
X3956600Y-8363500D01*
X3956600Y-8273500D02*
X3866600Y-8363500D01*
X3956600Y-8318500D02*
G75*
G03*
X3956600Y-8318500I-45000J0D01*
G01*
X3866600Y-8527500D02*
X3956600Y-8617500D01*
X3956600Y-8527500D02*
X3866600Y-8617500D01*
X3956600Y-8572500D02*
G75*
G03*
X3956600Y-8572500I-45000J0D01*
G01*
X3866600Y-8781500D02*
X3956600Y-8871500D01*
X3956600Y-8781500D02*
X3866600Y-8871500D01*
X3956600Y-8826500D02*
G75*
G03*
X3956600Y-8826500I-45000J0D01*
G01*
X3866600Y-10000700D02*
X3956600Y-10090700D01*
X3956600Y-10000700D02*
X3866600Y-10090700D01*
X3956600Y-10045700D02*
G75*
G03*
X3956600Y-10045700I-45000J0D01*
G01*
X3866600Y-10254700D02*
X3956600Y-10344700D01*
X3956600Y-10254700D02*
X3866600Y-10344700D01*
X3956600Y-10299700D02*
G75*
G03*
X3956600Y-10299700I-45000J0D01*
G01*
X3866600Y-10508700D02*
X3956600Y-10598700D01*
X3956600Y-10508700D02*
X3866600Y-10598700D01*
X3956600Y-10553700D02*
G75*
G03*
X3956600Y-10553700I-45000J0D01*
G01*
X3866600Y-10762700D02*
X3956600Y-10852700D01*
X3956600Y-10762700D02*
X3866600Y-10852700D01*
X3956600Y-10807700D02*
G75*
G03*
X3956600Y-10807700I-45000J0D01*
G01*
X3866600Y-11981900D02*
X3956600Y-12071900D01*
X3956600Y-11981900D02*
X3866600Y-12071900D01*
X3956600Y-12026900D02*
G75*
G03*
X3956600Y-12026900I-45000J0D01*
G01*
X3866600Y-12235900D02*
X3956600Y-12325900D01*
X3956600Y-12235900D02*
X3866600Y-12325900D01*
X3956600Y-12280900D02*
G75*
G03*
X3956600Y-12280900I-45000J0D01*
G01*
X3866600Y-12489900D02*
X3956600Y-12579900D01*
X3956600Y-12489900D02*
X3866600Y-12579900D01*
X3956600Y-12534900D02*
G75*
G03*
X3956600Y-12534900I-45000J0D01*
G01*
X3866600Y-12743900D02*
X3956600Y-12833900D01*
X3956600Y-12743900D02*
X3866600Y-12833900D01*
X3956600Y-12788900D02*
G75*
G03*
X3956600Y-12788900I-45000J0D01*
G01*
X3866600Y-13950400D02*
X3956600Y-14040400D01*
X3956600Y-13950400D02*
X3866600Y-14040400D01*
X3956600Y-13995400D02*
G75*
G03*
X3956600Y-13995400I-45000J0D01*
G01*
X3866600Y-14204400D02*
X3956600Y-14294400D01*
X3956600Y-14204400D02*
X3866600Y-14294400D01*
X3956600Y-14249400D02*
G75*
G03*
X3956600Y-14249400I-45000J0D01*
G01*
X3866600Y-14458400D02*
X3956600Y-14548400D01*
X3956600Y-14458400D02*
X3866600Y-14548400D01*
X3956600Y-14503400D02*
G75*
G03*
X3956600Y-14503400I-45000J0D01*
G01*
X3866600Y-14712400D02*
X3956600Y-14802400D01*
X3956600Y-14712400D02*
X3866600Y-14802400D01*
X3956600Y-14757400D02*
G75*
G03*
X3956600Y-14757400I-45000J0D01*
G01*
D10*
X2388400Y-4522000D02*
X2488400Y-4622000D01*
X2488400Y-4522000D02*
X2388400Y-4622000D01*
X2438400Y-4522000D02*
X2438400Y-4622000D01*
X2388400Y-4572000D02*
X2488400Y-4572000D01*
X2388400Y-4776000D02*
X2488400Y-4876000D01*
X2488400Y-4776000D02*
X2388400Y-4876000D01*
X2438400Y-4776000D02*
X2438400Y-4876000D01*
X2388400Y-4826000D02*
X2488400Y-4826000D01*
X3061500Y-15761500D02*
X3161500Y-15861500D01*
X3161500Y-15761500D02*
X3061500Y-15861500D01*
X3111500Y-15761500D02*
X3111500Y-15861500D01*
X3061500Y-15811500D02*
X3161500Y-15811500D01*
X3061500Y-16015500D02*
X3161500Y-16115500D01*
X3161500Y-16015500D02*
X3061500Y-16115500D01*
X3111500Y-16015500D02*
X3111500Y-16115500D01*
X3061500Y-16065500D02*
X3161500Y-16065500D01*
X3061500Y-16269500D02*
X3161500Y-16369500D01*
X3161500Y-16269500D02*
X3061500Y-16369500D01*
X3111500Y-16269500D02*
X3111500Y-16369500D01*
X3061500Y-16319500D02*
X3161500Y-16319500D01*
X3061500Y-16523500D02*
X3161500Y-16623500D01*
X3161500Y-16523500D02*
X3061500Y-16623500D01*
X3111500Y-16523500D02*
X3111500Y-16623500D01*
X3061500Y-16573500D02*
X3161500Y-16573500D01*
X4090200Y-16536200D02*
X4190200Y-16636200D01*
X4190200Y-16536200D02*
X4090200Y-16636200D01*
X4140200Y-16536200D02*
X4140200Y-16636200D01*
X4090200Y-16586200D02*
X4190200Y-16586200D01*
X4344200Y-16536200D02*
X4444200Y-16636200D01*
X4444200Y-16536200D02*
X4344200Y-16636200D01*
X4394200Y-16536200D02*
X4394200Y-16636200D01*
X4344200Y-16586200D02*
X4444200Y-16586200D01*
X4598200Y-16536200D02*
X4698200Y-16636200D01*
X4698200Y-16536200D02*
X4598200Y-16636200D01*
X4648200Y-16536200D02*
X4648200Y-16636200D01*
X4598200Y-16586200D02*
X4698200Y-16586200D01*
X4852200Y-16536200D02*
X4952200Y-16636200D01*
X4952200Y-16536200D02*
X4852200Y-16636200D01*
X4902200Y-16536200D02*
X4902200Y-16636200D01*
X4852200Y-16586200D02*
X4952200Y-16586200D01*
X5360200Y-16536200D02*
X5460200Y-16636200D01*
X5460200Y-16536200D02*
X5360200Y-16636200D01*
X5410200Y-16536200D02*
X5410200Y-16636200D01*
X5360200Y-16586200D02*
X5460200Y-16586200D01*
X5614200Y-16536200D02*
X5714200Y-16636200D01*
X5714200Y-16536200D02*
X5614200Y-16636200D01*
X5664200Y-16536200D02*
X5664200Y-16636200D01*
X5614200Y-16586200D02*
X5714200Y-16586200D01*
X5767100Y-5017300D02*
X5867100Y-5117300D01*
X5867100Y-5017300D02*
X5767100Y-5117300D01*
X5817100Y-5017300D02*
X5817100Y-5117300D01*
X5767100Y-5067300D02*
X5867100Y-5067300D01*
X5868200Y-16536200D02*
X5968200Y-16636200D01*
X5968200Y-16536200D02*
X5868200Y-16636200D01*
X5918200Y-16536200D02*
X5918200Y-16636200D01*
X5868200Y-16586200D02*
X5968200Y-16586200D01*
X6021100Y-5017300D02*
X6121100Y-5117300D01*
X6121100Y-5017300D02*
X6021100Y-5117300D01*
X6071100Y-5017300D02*
X6071100Y-5117300D01*
X6021100Y-5067300D02*
X6121100Y-5067300D01*
X6033300Y-9234200D02*
X6133300Y-9334200D01*
X6133300Y-9234200D02*
X6033300Y-9334200D01*
X6083300Y-9234200D02*
X6083300Y-9334200D01*
X6033300Y-9284200D02*
X6133300Y-9284200D01*
X6033300Y-9488200D02*
X6133300Y-9588200D01*
X6133300Y-9488200D02*
X6033300Y-9588200D01*
X6083300Y-9488200D02*
X6083300Y-9588200D01*
X6033300Y-9538200D02*
X6133300Y-9538200D01*
X6058700Y-11468900D02*
X6158700Y-11568900D01*
X6158700Y-11468900D02*
X6058700Y-11568900D01*
X6108700Y-11468900D02*
X6108700Y-11568900D01*
X6058700Y-11518900D02*
X6158700Y-11518900D01*
X6058700Y-11722900D02*
X6158700Y-11822900D01*
X6158700Y-11722900D02*
X6058700Y-11822900D01*
X6108700Y-11722900D02*
X6108700Y-11822900D01*
X6058700Y-11772900D02*
X6158700Y-11772900D01*
X6122200Y-16536200D02*
X6222200Y-16636200D01*
X6222200Y-16536200D02*
X6122200Y-16636200D01*
X6172200Y-16536200D02*
X6172200Y-16636200D01*
X6122200Y-16586200D02*
X6222200Y-16586200D01*
X6605800Y-16536200D02*
X6705800Y-16636200D01*
X6705800Y-16536200D02*
X6605800Y-16636200D01*
X6655800Y-16536200D02*
X6655800Y-16636200D01*
X6605800Y-16586200D02*
X6705800Y-16586200D01*
X6846100Y-15710700D02*
X6946100Y-15810700D01*
X6946100Y-15710700D02*
X6846100Y-15810700D01*
X6896100Y-15710700D02*
X6896100Y-15810700D01*
X6846100Y-15760700D02*
X6946100Y-15760700D01*
X6859800Y-16536200D02*
X6959800Y-16636200D01*
X6959800Y-16536200D02*
X6859800Y-16636200D01*
X6909800Y-16536200D02*
X6909800Y-16636200D01*
X6859800Y-16586200D02*
X6959800Y-16586200D01*
X7100100Y-15710700D02*
X7200100Y-15810700D01*
X7200100Y-15710700D02*
X7100100Y-15810700D01*
X7150100Y-15710700D02*
X7150100Y-15810700D01*
X7100100Y-15760700D02*
X7200100Y-15760700D01*
X7113800Y-16536200D02*
X7213800Y-16636200D01*
X7213800Y-16536200D02*
X7113800Y-16636200D01*
X7163800Y-16536200D02*
X7163800Y-16636200D01*
X7113800Y-16586200D02*
X7213800Y-16586200D01*
X7227100Y-7435500D02*
X7327100Y-7535500D01*
X7327100Y-7435500D02*
X7227100Y-7535500D01*
X7277100Y-7435500D02*
X7277100Y-7535500D01*
X7227100Y-7485500D02*
X7327100Y-7485500D01*
X7227100Y-7689500D02*
X7327100Y-7789500D01*
X7327100Y-7689500D02*
X7227100Y-7789500D01*
X7277100Y-7689500D02*
X7277100Y-7789500D01*
X7227100Y-7739500D02*
X7327100Y-7739500D01*
X7227100Y-7943500D02*
X7327100Y-8043500D01*
X7327100Y-7943500D02*
X7227100Y-8043500D01*
X7277100Y-7943500D02*
X7277100Y-8043500D01*
X7227100Y-7993500D02*
X7327100Y-7993500D01*
X7227100Y-8197500D02*
X7327100Y-8297500D01*
X7327100Y-8197500D02*
X7227100Y-8297500D01*
X7277100Y-8197500D02*
X7277100Y-8297500D01*
X7227100Y-8247500D02*
X7327100Y-8247500D01*
X7227100Y-8451500D02*
X7327100Y-8551500D01*
X7327100Y-8451500D02*
X7227100Y-8551500D01*
X7277100Y-8451500D02*
X7277100Y-8551500D01*
X7227100Y-8501500D02*
X7327100Y-8501500D01*
X7227100Y-8705500D02*
X7327100Y-8805500D01*
X7327100Y-8705500D02*
X7227100Y-8805500D01*
X7277100Y-8705500D02*
X7277100Y-8805500D01*
X7227100Y-8755500D02*
X7327100Y-8755500D01*
X7227100Y-8959500D02*
X7327100Y-9059500D01*
X7327100Y-8959500D02*
X7227100Y-9059500D01*
X7277100Y-8959500D02*
X7277100Y-9059500D01*
X7227100Y-9009500D02*
X7327100Y-9009500D01*
X7227100Y-9213500D02*
X7327100Y-9313500D01*
X7327100Y-9213500D02*
X7227100Y-9313500D01*
X7277100Y-9213500D02*
X7277100Y-9313500D01*
X7227100Y-9263500D02*
X7327100Y-9263500D01*
X7227100Y-9467500D02*
X7327100Y-9567500D01*
X7327100Y-9467500D02*
X7227100Y-9567500D01*
X7277100Y-9467500D02*
X7277100Y-9567500D01*
X7227100Y-9517500D02*
X7327100Y-9517500D01*
X7227100Y-9721500D02*
X7327100Y-9821500D01*
X7327100Y-9721500D02*
X7227100Y-9821500D01*
X7277100Y-9721500D02*
X7277100Y-9821500D01*
X7227100Y-9771500D02*
X7327100Y-9771500D01*
X7227100Y-9975500D02*
X7327100Y-10075500D01*
X7327100Y-9975500D02*
X7227100Y-10075500D01*
X7277100Y-9975500D02*
X7277100Y-10075500D01*
X7227100Y-10025500D02*
X7327100Y-10025500D01*
X7227100Y-10229500D02*
X7327100Y-10329500D01*
X7327100Y-10229500D02*
X7227100Y-10329500D01*
X7277100Y-10229500D02*
X7277100Y-10329500D01*
X7227100Y-10279500D02*
X7327100Y-10279500D01*
X7227100Y-10483500D02*
X7327100Y-10583500D01*
X7327100Y-10483500D02*
X7227100Y-10583500D01*
X7277100Y-10483500D02*
X7277100Y-10583500D01*
X7227100Y-10533500D02*
X7327100Y-10533500D01*
X7227100Y-10737500D02*
X7327100Y-10837500D01*
X7327100Y-10737500D02*
X7227100Y-10837500D01*
X7277100Y-10737500D02*
X7277100Y-10837500D01*
X7227100Y-10787500D02*
X7327100Y-10787500D01*
X7227100Y-10991500D02*
X7327100Y-11091500D01*
X7327100Y-10991500D02*
X7227100Y-11091500D01*
X7277100Y-10991500D02*
X7277100Y-11091500D01*
X7227100Y-11041500D02*
X7327100Y-11041500D01*
X7227100Y-11245500D02*
X7327100Y-11345500D01*
X7327100Y-11245500D02*
X7227100Y-11345500D01*
X7277100Y-11245500D02*
X7277100Y-11345500D01*
X7227100Y-11295500D02*
X7327100Y-11295500D01*
X7227100Y-11499500D02*
X7327100Y-11599500D01*
X7327100Y-11499500D02*
X7227100Y-11599500D01*
X7277100Y-11499500D02*
X7277100Y-11599500D01*
X7227100Y-11549500D02*
X7327100Y-11549500D01*
X7227100Y-11753500D02*
X7327100Y-11853500D01*
X7327100Y-11753500D02*
X7227100Y-11853500D01*
X7277100Y-11753500D02*
X7277100Y-11853500D01*
X7227100Y-11803500D02*
X7327100Y-11803500D01*
X7227100Y-12007500D02*
X7327100Y-12107500D01*
X7327100Y-12007500D02*
X7227100Y-12107500D01*
X7277100Y-12007500D02*
X7277100Y-12107500D01*
X7227100Y-12057500D02*
X7327100Y-12057500D01*
X7227100Y-12261500D02*
X7327100Y-12361500D01*
X7327100Y-12261500D02*
X7227100Y-12361500D01*
X7277100Y-12261500D02*
X7277100Y-12361500D01*
X7227100Y-12311500D02*
X7327100Y-12311500D01*
X7227100Y-12515500D02*
X7327100Y-12615500D01*
X7327100Y-12515500D02*
X7227100Y-12615500D01*
X7277100Y-12515500D02*
X7277100Y-12615500D01*
X7227100Y-12565500D02*
X7327100Y-12565500D01*
X7227100Y-12769500D02*
X7327100Y-12869500D01*
X7327100Y-12769500D02*
X7227100Y-12869500D01*
X7277100Y-12769500D02*
X7277100Y-12869500D01*
X7227100Y-12819500D02*
X7327100Y-12819500D01*
X7227100Y-13023500D02*
X7327100Y-13123500D01*
X7327100Y-13023500D02*
X7227100Y-13123500D01*
X7277100Y-13023500D02*
X7277100Y-13123500D01*
X7227100Y-13073500D02*
X7327100Y-13073500D01*
X7227100Y-13277500D02*
X7327100Y-13377500D01*
X7327100Y-13277500D02*
X7227100Y-13377500D01*
X7277100Y-13277500D02*
X7277100Y-13377500D01*
X7227100Y-13327500D02*
X7327100Y-13327500D01*
X7227100Y-13531500D02*
X7327100Y-13631500D01*
X7327100Y-13531500D02*
X7227100Y-13631500D01*
X7277100Y-13531500D02*
X7277100Y-13631500D01*
X7227100Y-13581500D02*
X7327100Y-13581500D01*
X7354100Y-15710700D02*
X7454100Y-15810700D01*
X7454100Y-15710700D02*
X7354100Y-15810700D01*
X7404100Y-15710700D02*
X7404100Y-15810700D01*
X7354100Y-15760700D02*
X7454100Y-15760700D01*
X7367800Y-16536200D02*
X7467800Y-16636200D01*
X7467800Y-16536200D02*
X7367800Y-16636200D01*
X7417800Y-16536200D02*
X7417800Y-16636200D01*
X7367800Y-16586200D02*
X7467800Y-16586200D01*
X7481100Y-7435500D02*
X7581100Y-7535500D01*
X7581100Y-7435500D02*
X7481100Y-7535500D01*
X7531100Y-7435500D02*
X7531100Y-7535500D01*
X7481100Y-7485500D02*
X7581100Y-7485500D01*
X7481100Y-7689500D02*
X7581100Y-7789500D01*
X7581100Y-7689500D02*
X7481100Y-7789500D01*
X7531100Y-7689500D02*
X7531100Y-7789500D01*
X7481100Y-7739500D02*
X7581100Y-7739500D01*
X7481100Y-7943500D02*
X7581100Y-8043500D01*
X7581100Y-7943500D02*
X7481100Y-8043500D01*
X7531100Y-7943500D02*
X7531100Y-8043500D01*
X7481100Y-7993500D02*
X7581100Y-7993500D01*
X7481100Y-8197500D02*
X7581100Y-8297500D01*
X7581100Y-8197500D02*
X7481100Y-8297500D01*
X7531100Y-8197500D02*
X7531100Y-8297500D01*
X7481100Y-8247500D02*
X7581100Y-8247500D01*
X7481100Y-8451500D02*
X7581100Y-8551500D01*
X7581100Y-8451500D02*
X7481100Y-8551500D01*
X7531100Y-8451500D02*
X7531100Y-8551500D01*
X7481100Y-8501500D02*
X7581100Y-8501500D01*
X7481100Y-8705500D02*
X7581100Y-8805500D01*
X7581100Y-8705500D02*
X7481100Y-8805500D01*
X7531100Y-8705500D02*
X7531100Y-8805500D01*
X7481100Y-8755500D02*
X7581100Y-8755500D01*
X7481100Y-8959500D02*
X7581100Y-9059500D01*
X7581100Y-8959500D02*
X7481100Y-9059500D01*
X7531100Y-8959500D02*
X7531100Y-9059500D01*
X7481100Y-9009500D02*
X7581100Y-9009500D01*
X7481100Y-9213500D02*
X7581100Y-9313500D01*
X7581100Y-9213500D02*
X7481100Y-9313500D01*
X7531100Y-9213500D02*
X7531100Y-9313500D01*
X7481100Y-9263500D02*
X7581100Y-9263500D01*
X7481100Y-9467500D02*
X7581100Y-9567500D01*
X7581100Y-9467500D02*
X7481100Y-9567500D01*
X7531100Y-9467500D02*
X7531100Y-9567500D01*
X7481100Y-9517500D02*
X7581100Y-9517500D01*
X7481100Y-9721500D02*
X7581100Y-9821500D01*
X7581100Y-9721500D02*
X7481100Y-9821500D01*
X7531100Y-9721500D02*
X7531100Y-9821500D01*
X7481100Y-9771500D02*
X7581100Y-9771500D01*
X7481100Y-9975500D02*
X7581100Y-10075500D01*
X7581100Y-9975500D02*
X7481100Y-10075500D01*
X7531100Y-9975500D02*
X7531100Y-10075500D01*
X7481100Y-10025500D02*
X7581100Y-10025500D01*
X7481100Y-10229500D02*
X7581100Y-10329500D01*
X7581100Y-10229500D02*
X7481100Y-10329500D01*
X7531100Y-10229500D02*
X7531100Y-10329500D01*
X7481100Y-10279500D02*
X7581100Y-10279500D01*
X7481100Y-10483500D02*
X7581100Y-10583500D01*
X7581100Y-10483500D02*
X7481100Y-10583500D01*
X7531100Y-10483500D02*
X7531100Y-10583500D01*
X7481100Y-10533500D02*
X7581100Y-10533500D01*
X7481100Y-10737500D02*
X7581100Y-10837500D01*
X7581100Y-10737500D02*
X7481100Y-10837500D01*
X7531100Y-10737500D02*
X7531100Y-10837500D01*
X7481100Y-10787500D02*
X7581100Y-10787500D01*
X7481100Y-10991500D02*
X7581100Y-11091500D01*
X7581100Y-10991500D02*
X7481100Y-11091500D01*
X7531100Y-10991500D02*
X7531100Y-11091500D01*
X7481100Y-11041500D02*
X7581100Y-11041500D01*
X7481100Y-11245500D02*
X7581100Y-11345500D01*
X7581100Y-11245500D02*
X7481100Y-11345500D01*
X7531100Y-11245500D02*
X7531100Y-11345500D01*
X7481100Y-11295500D02*
X7581100Y-11295500D01*
X7481100Y-11499500D02*
X7581100Y-11599500D01*
X7581100Y-11499500D02*
X7481100Y-11599500D01*
X7531100Y-11499500D02*
X7531100Y-11599500D01*
X7481100Y-11549500D02*
X7581100Y-11549500D01*
X7481100Y-11753500D02*
X7581100Y-11853500D01*
X7581100Y-11753500D02*
X7481100Y-11853500D01*
X7531100Y-11753500D02*
X7531100Y-11853500D01*
X7481100Y-11803500D02*
X7581100Y-11803500D01*
X7481100Y-12007500D02*
X7581100Y-12107500D01*
X7581100Y-12007500D02*
X7481100Y-12107500D01*
X7531100Y-12007500D02*
X7531100Y-12107500D01*
X7481100Y-12057500D02*
X7581100Y-12057500D01*
X7481100Y-12261500D02*
X7581100Y-12361500D01*
X7581100Y-12261500D02*
X7481100Y-12361500D01*
X7531100Y-12261500D02*
X7531100Y-12361500D01*
X7481100Y-12311500D02*
X7581100Y-12311500D01*
X7481100Y-12515500D02*
X7581100Y-12615500D01*
X7581100Y-12515500D02*
X7481100Y-12615500D01*
X7531100Y-12515500D02*
X7531100Y-12615500D01*
X7481100Y-12565500D02*
X7581100Y-12565500D01*
X7481100Y-12769500D02*
X7581100Y-12869500D01*
X7581100Y-12769500D02*
X7481100Y-12869500D01*
X7531100Y-12769500D02*
X7531100Y-12869500D01*
X7481100Y-12819500D02*
X7581100Y-12819500D01*
X7481100Y-13023500D02*
X7581100Y-13123500D01*
X7581100Y-13023500D02*
X7481100Y-13123500D01*
X7531100Y-13023500D02*
X7531100Y-13123500D01*
X7481100Y-13073500D02*
X7581100Y-13073500D01*
X7481100Y-13277500D02*
X7581100Y-13377500D01*
X7581100Y-13277500D02*
X7481100Y-13377500D01*
X7531100Y-13277500D02*
X7531100Y-13377500D01*
X7481100Y-13327500D02*
X7581100Y-13327500D01*
X7481100Y-13531500D02*
X7581100Y-13631500D01*
X7581100Y-13531500D02*
X7481100Y-13631500D01*
X7531100Y-13531500D02*
X7531100Y-13631500D01*
X7481100Y-13581500D02*
X7581100Y-13581500D01*
X8420900Y-16129800D02*
X8520900Y-16229800D01*
X8520900Y-16129800D02*
X8420900Y-16229800D01*
X8470900Y-16129800D02*
X8470900Y-16229800D01*
X8420900Y-16179800D02*
X8520900Y-16179800D01*
X8420900Y-16383800D02*
X8520900Y-16483800D01*
X8520900Y-16383800D02*
X8420900Y-16483800D01*
X8470900Y-16383800D02*
X8470900Y-16483800D01*
X8420900Y-16433800D02*
X8520900Y-16433800D01*
X8420900Y-16637800D02*
X8520900Y-16737800D01*
X8520900Y-16637800D02*
X8420900Y-16737800D01*
X8470900Y-16637800D02*
X8470900Y-16737800D01*
X8420900Y-16687800D02*
X8520900Y-16687800D01*
X9157500Y-16129800D02*
X9257500Y-16229800D01*
X9257500Y-16129800D02*
X9157500Y-16229800D01*
X9207500Y-16129800D02*
X9207500Y-16229800D01*
X9157500Y-16179800D02*
X9257500Y-16179800D01*
X9157500Y-16383800D02*
X9257500Y-16483800D01*
X9257500Y-16383800D02*
X9157500Y-16483800D01*
X9207500Y-16383800D02*
X9207500Y-16483800D01*
X9157500Y-16433800D02*
X9257500Y-16433800D01*
X9157500Y-16637800D02*
X9257500Y-16737800D01*
X9257500Y-16637800D02*
X9157500Y-16737800D01*
X9207500Y-16637800D02*
X9207500Y-16737800D01*
X9157500Y-16687800D02*
X9257500Y-16687800D01*
X9868700Y-16129800D02*
X9968700Y-16229800D01*
X9968700Y-16129800D02*
X9868700Y-16229800D01*
X9918700Y-16129800D02*
X9918700Y-16229800D01*
X9868700Y-16179800D02*
X9968700Y-16179800D01*
X9868700Y-16383800D02*
X9968700Y-16483800D01*
X9968700Y-16383800D02*
X9868700Y-16483800D01*
X9918700Y-16383800D02*
X9918700Y-16483800D01*
X9868700Y-16433800D02*
X9968700Y-16433800D01*
X9868700Y-16637800D02*
X9968700Y-16737800D01*
X9968700Y-16637800D02*
X9868700Y-16737800D01*
X9918700Y-16637800D02*
X9918700Y-16737800D01*
X9868700Y-16687800D02*
X9968700Y-16687800D01*
X10706900Y-16129800D02*
X10806900Y-16229800D01*
X10806900Y-16129800D02*
X10706900Y-16229800D01*
X10756900Y-16129800D02*
X10756900Y-16229800D01*
X10706900Y-16179800D02*
X10806900Y-16179800D01*
X10706900Y-16383800D02*
X10806900Y-16483800D01*
X10806900Y-16383800D02*
X10706900Y-16483800D01*
X10756900Y-16383800D02*
X10756900Y-16483800D01*
X10706900Y-16433800D02*
X10806900Y-16433800D01*
X10706900Y-16637800D02*
X10806900Y-16737800D01*
X10806900Y-16637800D02*
X10706900Y-16737800D01*
X10756900Y-16637800D02*
X10756900Y-16737800D01*
X10706900Y-16687800D02*
X10806900Y-16687800D01*
X11443500Y-16129800D02*
X11543500Y-16229800D01*
X11543500Y-16129800D02*
X11443500Y-16229800D01*
X11493500Y-16129800D02*
X11493500Y-16229800D01*
X11443500Y-16179800D02*
X11543500Y-16179800D01*
X11443500Y-16383800D02*
X11543500Y-16483800D01*
X11543500Y-16383800D02*
X11443500Y-16483800D01*
X11493500Y-16383800D02*
X11493500Y-16483800D01*
X11443500Y-16433800D02*
X11543500Y-16433800D01*
X11443500Y-16637800D02*
X11543500Y-16737800D01*
X11543500Y-16637800D02*
X11443500Y-16737800D01*
X11493500Y-16637800D02*
X11493500Y-16737800D01*
X11443500Y-16687800D02*
X11543500Y-16687800D01*
X12205500Y-16129800D02*
X12305500Y-16229800D01*
X12305500Y-16129800D02*
X12205500Y-16229800D01*
X12255500Y-16129800D02*
X12255500Y-16229800D01*
X12205500Y-16179800D02*
X12305500Y-16179800D01*
X12205500Y-16383800D02*
X12305500Y-16483800D01*
X12305500Y-16383800D02*
X12205500Y-16483800D01*
X12255500Y-16383800D02*
X12255500Y-16483800D01*
X12205500Y-16433800D02*
X12305500Y-16433800D01*
X12205500Y-16637800D02*
X12305500Y-16737800D01*
X12305500Y-16637800D02*
X12205500Y-16737800D01*
X12255500Y-16637800D02*
X12255500Y-16737800D01*
X12205500Y-16687800D02*
X12305500Y-16687800D01*
X12307100Y-7435500D02*
X12407100Y-7535500D01*
X12407100Y-7435500D02*
X12307100Y-7535500D01*
X12357100Y-7435500D02*
X12357100Y-7535500D01*
X12307100Y-7485500D02*
X12407100Y-7485500D01*
X12307100Y-7689500D02*
X12407100Y-7789500D01*
X12407100Y-7689500D02*
X12307100Y-7789500D01*
X12357100Y-7689500D02*
X12357100Y-7789500D01*
X12307100Y-7739500D02*
X12407100Y-7739500D01*
X12307100Y-7943500D02*
X12407100Y-8043500D01*
X12407100Y-7943500D02*
X12307100Y-8043500D01*
X12357100Y-7943500D02*
X12357100Y-8043500D01*
X12307100Y-7993500D02*
X12407100Y-7993500D01*
X12307100Y-8197500D02*
X12407100Y-8297500D01*
X12407100Y-8197500D02*
X12307100Y-8297500D01*
X12357100Y-8197500D02*
X12357100Y-8297500D01*
X12307100Y-8247500D02*
X12407100Y-8247500D01*
X12307100Y-8451500D02*
X12407100Y-8551500D01*
X12407100Y-8451500D02*
X12307100Y-8551500D01*
X12357100Y-8451500D02*
X12357100Y-8551500D01*
X12307100Y-8501500D02*
X12407100Y-8501500D01*
X12307100Y-8705500D02*
X12407100Y-8805500D01*
X12407100Y-8705500D02*
X12307100Y-8805500D01*
X12357100Y-8705500D02*
X12357100Y-8805500D01*
X12307100Y-8755500D02*
X12407100Y-8755500D01*
X12307100Y-8959500D02*
X12407100Y-9059500D01*
X12407100Y-8959500D02*
X12307100Y-9059500D01*
X12357100Y-8959500D02*
X12357100Y-9059500D01*
X12307100Y-9009500D02*
X12407100Y-9009500D01*
X12307100Y-9213500D02*
X12407100Y-9313500D01*
X12407100Y-9213500D02*
X12307100Y-9313500D01*
X12357100Y-9213500D02*
X12357100Y-9313500D01*
X12307100Y-9263500D02*
X12407100Y-9263500D01*
X12307100Y-9467500D02*
X12407100Y-9567500D01*
X12407100Y-9467500D02*
X12307100Y-9567500D01*
X12357100Y-9467500D02*
X12357100Y-9567500D01*
X12307100Y-9517500D02*
X12407100Y-9517500D01*
X12307100Y-9721500D02*
X12407100Y-9821500D01*
X12407100Y-9721500D02*
X12307100Y-9821500D01*
X12357100Y-9721500D02*
X12357100Y-9821500D01*
X12307100Y-9771500D02*
X12407100Y-9771500D01*
X12307100Y-9975500D02*
X12407100Y-10075500D01*
X12407100Y-9975500D02*
X12307100Y-10075500D01*
X12357100Y-9975500D02*
X12357100Y-10075500D01*
X12307100Y-10025500D02*
X12407100Y-10025500D01*
X12307100Y-10229500D02*
X12407100Y-10329500D01*
X12407100Y-10229500D02*
X12307100Y-10329500D01*
X12357100Y-10229500D02*
X12357100Y-10329500D01*
X12307100Y-10279500D02*
X12407100Y-10279500D01*
X12307100Y-10483500D02*
X12407100Y-10583500D01*
X12407100Y-10483500D02*
X12307100Y-10583500D01*
X12357100Y-10483500D02*
X12357100Y-10583500D01*
X12307100Y-10533500D02*
X12407100Y-10533500D01*
X12307100Y-10737500D02*
X12407100Y-10837500D01*
X12407100Y-10737500D02*
X12307100Y-10837500D01*
X12357100Y-10737500D02*
X12357100Y-10837500D01*
X12307100Y-10787500D02*
X12407100Y-10787500D01*
X12307100Y-10991500D02*
X12407100Y-11091500D01*
X12407100Y-10991500D02*
X12307100Y-11091500D01*
X12357100Y-10991500D02*
X12357100Y-11091500D01*
X12307100Y-11041500D02*
X12407100Y-11041500D01*
X12307100Y-11245500D02*
X12407100Y-11345500D01*
X12407100Y-11245500D02*
X12307100Y-11345500D01*
X12357100Y-11245500D02*
X12357100Y-11345500D01*
X12307100Y-11295500D02*
X12407100Y-11295500D01*
X12307100Y-11499500D02*
X12407100Y-11599500D01*
X12407100Y-11499500D02*
X12307100Y-11599500D01*
X12357100Y-11499500D02*
X12357100Y-11599500D01*
X12307100Y-11549500D02*
X12407100Y-11549500D01*
X12307100Y-11753500D02*
X12407100Y-11853500D01*
X12407100Y-11753500D02*
X12307100Y-11853500D01*
X12357100Y-11753500D02*
X12357100Y-11853500D01*
X12307100Y-11803500D02*
X12407100Y-11803500D01*
X12307100Y-12007500D02*
X12407100Y-12107500D01*
X12407100Y-12007500D02*
X12307100Y-12107500D01*
X12357100Y-12007500D02*
X12357100Y-12107500D01*
X12307100Y-12057500D02*
X12407100Y-12057500D01*
X12307100Y-12261500D02*
X12407100Y-12361500D01*
X12407100Y-12261500D02*
X12307100Y-12361500D01*
X12357100Y-12261500D02*
X12357100Y-12361500D01*
X12307100Y-12311500D02*
X12407100Y-12311500D01*
X12307100Y-12515500D02*
X12407100Y-12615500D01*
X12407100Y-12515500D02*
X12307100Y-12615500D01*
X12357100Y-12515500D02*
X12357100Y-12615500D01*
X12307100Y-12565500D02*
X12407100Y-12565500D01*
X12307100Y-12769500D02*
X12407100Y-12869500D01*
X12407100Y-12769500D02*
X12307100Y-12869500D01*
X12357100Y-12769500D02*
X12357100Y-12869500D01*
X12307100Y-12819500D02*
X12407100Y-12819500D01*
X12307100Y-13023500D02*
X12407100Y-13123500D01*
X12407100Y-13023500D02*
X12307100Y-13123500D01*
X12357100Y-13023500D02*
X12357100Y-13123500D01*
X12307100Y-13073500D02*
X12407100Y-13073500D01*
X12307100Y-13277500D02*
X12407100Y-13377500D01*
X12407100Y-13277500D02*
X12307100Y-13377500D01*
X12357100Y-13277500D02*
X12357100Y-13377500D01*
X12307100Y-13327500D02*
X12407100Y-13327500D01*
X12307100Y-13531500D02*
X12407100Y-13631500D01*
X12407100Y-13531500D02*
X12307100Y-13631500D01*
X12357100Y-13531500D02*
X12357100Y-13631500D01*
X12307100Y-13581500D02*
X12407100Y-13581500D01*
X12561100Y-7435500D02*
X12661100Y-7535500D01*
X12661100Y-7435500D02*
X12561100Y-7535500D01*
X12611100Y-7435500D02*
X12611100Y-7535500D01*
X12561100Y-7485500D02*
X12661100Y-7485500D01*
X12561100Y-7689500D02*
X12661100Y-7789500D01*
X12661100Y-7689500D02*
X12561100Y-7789500D01*
X12611100Y-7689500D02*
X12611100Y-7789500D01*
X12561100Y-7739500D02*
X12661100Y-7739500D01*
X12561100Y-7943500D02*
X12661100Y-8043500D01*
X12661100Y-7943500D02*
X12561100Y-8043500D01*
X12611100Y-7943500D02*
X12611100Y-8043500D01*
X12561100Y-7993500D02*
X12661100Y-7993500D01*
X12561100Y-8197500D02*
X12661100Y-8297500D01*
X12661100Y-8197500D02*
X12561100Y-8297500D01*
X12611100Y-8197500D02*
X12611100Y-8297500D01*
X12561100Y-8247500D02*
X12661100Y-8247500D01*
X12561100Y-8451500D02*
X12661100Y-8551500D01*
X12661100Y-8451500D02*
X12561100Y-8551500D01*
X12611100Y-8451500D02*
X12611100Y-8551500D01*
X12561100Y-8501500D02*
X12661100Y-8501500D01*
X12561100Y-8705500D02*
X12661100Y-8805500D01*
X12661100Y-8705500D02*
X12561100Y-8805500D01*
X12611100Y-8705500D02*
X12611100Y-8805500D01*
X12561100Y-8755500D02*
X12661100Y-8755500D01*
X12561100Y-8959500D02*
X12661100Y-9059500D01*
X12661100Y-8959500D02*
X12561100Y-9059500D01*
X12611100Y-8959500D02*
X12611100Y-9059500D01*
X12561100Y-9009500D02*
X12661100Y-9009500D01*
X12561100Y-9213500D02*
X12661100Y-9313500D01*
X12661100Y-9213500D02*
X12561100Y-9313500D01*
X12611100Y-9213500D02*
X12611100Y-9313500D01*
X12561100Y-9263500D02*
X12661100Y-9263500D01*
X12561100Y-9467500D02*
X12661100Y-9567500D01*
X12661100Y-9467500D02*
X12561100Y-9567500D01*
X12611100Y-9467500D02*
X12611100Y-9567500D01*
X12561100Y-9517500D02*
X12661100Y-9517500D01*
X12561100Y-9721500D02*
X12661100Y-9821500D01*
X12661100Y-9721500D02*
X12561100Y-9821500D01*
X12611100Y-9721500D02*
X12611100Y-9821500D01*
X12561100Y-9771500D02*
X12661100Y-9771500D01*
X12561100Y-9975500D02*
X12661100Y-10075500D01*
X12661100Y-9975500D02*
X12561100Y-10075500D01*
X12611100Y-9975500D02*
X12611100Y-10075500D01*
X12561100Y-10025500D02*
X12661100Y-10025500D01*
X12561100Y-10229500D02*
X12661100Y-10329500D01*
X12661100Y-10229500D02*
X12561100Y-10329500D01*
X12611100Y-10229500D02*
X12611100Y-10329500D01*
X12561100Y-10279500D02*
X12661100Y-10279500D01*
X12561100Y-10483500D02*
X12661100Y-10583500D01*
X12661100Y-10483500D02*
X12561100Y-10583500D01*
X12611100Y-10483500D02*
X12611100Y-10583500D01*
X12561100Y-10533500D02*
X12661100Y-10533500D01*
X12561100Y-10737500D02*
X12661100Y-10837500D01*
X12661100Y-10737500D02*
X12561100Y-10837500D01*
X12611100Y-10737500D02*
X12611100Y-10837500D01*
X12561100Y-10787500D02*
X12661100Y-10787500D01*
X12561100Y-10991500D02*
X12661100Y-11091500D01*
X12661100Y-10991500D02*
X12561100Y-11091500D01*
X12611100Y-10991500D02*
X12611100Y-11091500D01*
X12561100Y-11041500D02*
X12661100Y-11041500D01*
X12561100Y-11245500D02*
X12661100Y-11345500D01*
X12661100Y-11245500D02*
X12561100Y-11345500D01*
X12611100Y-11245500D02*
X12611100Y-11345500D01*
X12561100Y-11295500D02*
X12661100Y-11295500D01*
X12561100Y-11499500D02*
X12661100Y-11599500D01*
X12661100Y-11499500D02*
X12561100Y-11599500D01*
X12611100Y-11499500D02*
X12611100Y-11599500D01*
X12561100Y-11549500D02*
X12661100Y-11549500D01*
X12561100Y-11753500D02*
X12661100Y-11853500D01*
X12661100Y-11753500D02*
X12561100Y-11853500D01*
X12611100Y-11753500D02*
X12611100Y-11853500D01*
X12561100Y-11803500D02*
X12661100Y-11803500D01*
X12561100Y-12007500D02*
X12661100Y-12107500D01*
X12661100Y-12007500D02*
X12561100Y-12107500D01*
X12611100Y-12007500D02*
X12611100Y-12107500D01*
X12561100Y-12057500D02*
X12661100Y-12057500D01*
X12561100Y-12261500D02*
X12661100Y-12361500D01*
X12661100Y-12261500D02*
X12561100Y-12361500D01*
X12611100Y-12261500D02*
X12611100Y-12361500D01*
X12561100Y-12311500D02*
X12661100Y-12311500D01*
X12561100Y-12515500D02*
X12661100Y-12615500D01*
X12661100Y-12515500D02*
X12561100Y-12615500D01*
X12611100Y-12515500D02*
X12611100Y-12615500D01*
X12561100Y-12565500D02*
X12661100Y-12565500D01*
X12561100Y-12769500D02*
X12661100Y-12869500D01*
X12661100Y-12769500D02*
X12561100Y-12869500D01*
X12611100Y-12769500D02*
X12611100Y-12869500D01*
X12561100Y-12819500D02*
X12661100Y-12819500D01*
X12561100Y-13023500D02*
X12661100Y-13123500D01*
X12661100Y-13023500D02*
X12561100Y-13123500D01*
X12611100Y-13023500D02*
X12611100Y-13123500D01*
X12561100Y-13073500D02*
X12661100Y-13073500D01*
X12561100Y-13277500D02*
X12661100Y-13377500D01*
X12661100Y-13277500D02*
X12561100Y-13377500D01*
X12611100Y-13277500D02*
X12611100Y-13377500D01*
X12561100Y-13327500D02*
X12661100Y-13327500D01*
X12561100Y-13531500D02*
X12661100Y-13631500D01*
X12661100Y-13531500D02*
X12561100Y-13631500D01*
X12611100Y-13531500D02*
X12611100Y-13631500D01*
X12561100Y-13581500D02*
X12661100Y-13581500D01*
X13018300Y-16129800D02*
X13118300Y-16229800D01*
X13118300Y-16129800D02*
X13018300Y-16229800D01*
X13068300Y-16129800D02*
X13068300Y-16229800D01*
X13018300Y-16179800D02*
X13118300Y-16179800D01*
X13018300Y-16383800D02*
X13118300Y-16483800D01*
X13118300Y-16383800D02*
X13018300Y-16483800D01*
X13068300Y-16383800D02*
X13068300Y-16483800D01*
X13018300Y-16433800D02*
X13118300Y-16433800D01*
X13018300Y-16637800D02*
X13118300Y-16737800D01*
X13118300Y-16637800D02*
X13018300Y-16737800D01*
X13068300Y-16637800D02*
X13068300Y-16737800D01*
X13018300Y-16687800D02*
X13118300Y-16687800D01*
X14224800Y-16536200D02*
X14324800Y-16636200D01*
X14324800Y-16536200D02*
X14224800Y-16636200D01*
X14274800Y-16536200D02*
X14274800Y-16636200D01*
X14224800Y-16586200D02*
X14324800Y-16586200D01*
X14478800Y-16536200D02*
X14578800Y-16636200D01*
X14578800Y-16536200D02*
X14478800Y-16636200D01*
X14528800Y-16536200D02*
X14528800Y-16636200D01*
X14478800Y-16586200D02*
X14578800Y-16586200D01*
X14732800Y-16536200D02*
X14832800Y-16636200D01*
X14832800Y-16536200D02*
X14732800Y-16636200D01*
X14782800Y-16536200D02*
X14782800Y-16636200D01*
X14732800Y-16586200D02*
X14832800Y-16586200D01*
X14986800Y-16536200D02*
X15086800Y-16636200D01*
X15086800Y-16536200D02*
X14986800Y-16636200D01*
X15036800Y-16536200D02*
X15036800Y-16636200D01*
X14986800Y-16586200D02*
X15086800Y-16586200D01*
X15431300Y-10287800D02*
X15531300Y-10387800D01*
X15531300Y-10287800D02*
X15431300Y-10387800D01*
X15481300Y-10287800D02*
X15481300Y-10387800D01*
X15431300Y-10337800D02*
X15531300Y-10337800D01*
X15431300Y-10541800D02*
X15531300Y-10641800D01*
X15531300Y-10541800D02*
X15431300Y-10641800D01*
X15481300Y-10541800D02*
X15481300Y-10641800D01*
X15431300Y-10591800D02*
X15531300Y-10591800D01*
X15431300Y-11443500D02*
X15531300Y-11543500D01*
X15531300Y-11443500D02*
X15431300Y-11543500D01*
X15481300Y-11443500D02*
X15481300Y-11543500D01*
X15431300Y-11493500D02*
X15531300Y-11493500D01*
X15431300Y-11697500D02*
X15531300Y-11797500D01*
X15531300Y-11697500D02*
X15431300Y-11797500D01*
X15481300Y-11697500D02*
X15481300Y-11797500D01*
X15431300Y-11747500D02*
X15531300Y-11747500D01*
D18*
X14547800Y-3582200D02*
X14667800Y-3702200D01*
X14667800Y-3582200D02*
X14547800Y-3702200D01*
X14650227Y-3684627D02*
X14650227Y-3599773D01*
X14565373Y-3599773D01*
X14565373Y-3684627D01*
X14650227Y-3684627D01*
X14897800Y-3582200D02*
X15017800Y-3702200D01*
X15017800Y-3582200D02*
X14897800Y-3702200D01*
X15000227Y-3684627D02*
X15000227Y-3599773D01*
X14915373Y-3599773D01*
X14915373Y-3684627D01*
X15000227Y-3684627D01*
D19*
X2637600Y-5558500D02*
X2797600Y-5718500D01*
X2797600Y-5558500D02*
X2637600Y-5718500D01*
X2717600Y-5718500D02*
X2797600Y-5638500D01*
X2717600Y-5558500D01*
X2637600Y-5638500D01*
X2717600Y-5718500D01*
X2637600Y-7108500D02*
X2797600Y-7268500D01*
X2797600Y-7108500D02*
X2637600Y-7268500D01*
X2717600Y-7268500D02*
X2797600Y-7188500D01*
X2717600Y-7108500D01*
X2637600Y-7188500D01*
X2717600Y-7268500D01*
X2637600Y-7527000D02*
X2797600Y-7687000D01*
X2797600Y-7527000D02*
X2637600Y-7687000D01*
X2717600Y-7687000D02*
X2797600Y-7607000D01*
X2717600Y-7527000D01*
X2637600Y-7607000D01*
X2717600Y-7687000D01*
X2637600Y-9077000D02*
X2797600Y-9237000D01*
X2797600Y-9077000D02*
X2637600Y-9237000D01*
X2717600Y-9237000D02*
X2797600Y-9157000D01*
X2717600Y-9077000D01*
X2637600Y-9157000D01*
X2717600Y-9237000D01*
X2637600Y-9508200D02*
X2797600Y-9668200D01*
X2797600Y-9508200D02*
X2637600Y-9668200D01*
X2717600Y-9668200D02*
X2797600Y-9588200D01*
X2717600Y-9508200D01*
X2637600Y-9588200D01*
X2717600Y-9668200D01*
X2637600Y-11058200D02*
X2797600Y-11218200D01*
X2797600Y-11058200D02*
X2637600Y-11218200D01*
X2717600Y-11218200D02*
X2797600Y-11138200D01*
X2717600Y-11058200D01*
X2637600Y-11138200D01*
X2717600Y-11218200D01*
X2637600Y-11489400D02*
X2797600Y-11649400D01*
X2797600Y-11489400D02*
X2637600Y-11649400D01*
X2717600Y-11649400D02*
X2797600Y-11569400D01*
X2717600Y-11489400D01*
X2637600Y-11569400D01*
X2717600Y-11649400D01*
X2637600Y-13039400D02*
X2797600Y-13199400D01*
X2797600Y-13039400D02*
X2637600Y-13199400D01*
X2717600Y-13199400D02*
X2797600Y-13119400D01*
X2717600Y-13039400D01*
X2637600Y-13119400D01*
X2717600Y-13199400D01*
X2637600Y-13457900D02*
X2797600Y-13617900D01*
X2797600Y-13457900D02*
X2637600Y-13617900D01*
X2717600Y-13617900D02*
X2797600Y-13537900D01*
X2717600Y-13457900D01*
X2637600Y-13537900D01*
X2717600Y-13617900D01*
X2637600Y-15007900D02*
X2797600Y-15167900D01*
X2797600Y-15007900D02*
X2637600Y-15167900D01*
X2717600Y-15167900D02*
X2797600Y-15087900D01*
X2717600Y-15007900D01*
X2637600Y-15087900D01*
X2717600Y-15167900D01*
D11*
X2255777Y-17416484D02*
X2255777Y-17216484D01*
X2255777Y-17216484D02*
X2303396Y-17216484D01*
X2303396Y-17216484D02*
X2331967Y-17226008D01*
X2331967Y-17226008D02*
X2351015Y-17245055D01*
X2351015Y-17245055D02*
X2360539Y-17264103D01*
X2360539Y-17264103D02*
X2370063Y-17302198D01*
X2370063Y-17302198D02*
X2370063Y-17330770D01*
X2370063Y-17330770D02*
X2360539Y-17368865D01*
X2360539Y-17368865D02*
X2351015Y-17387912D01*
X2351015Y-17387912D02*
X2331967Y-17406960D01*
X2331967Y-17406960D02*
X2303396Y-17416484D01*
X2303396Y-17416484D02*
X2255777Y-17416484D01*
X2455777Y-17416484D02*
X2455777Y-17283150D01*
X2455777Y-17321246D02*
X2465301Y-17302198D01*
X2465301Y-17302198D02*
X2474824Y-17292674D01*
X2474824Y-17292674D02*
X2493872Y-17283150D01*
X2493872Y-17283150D02*
X2512920Y-17283150D01*
X2579586Y-17416484D02*
X2579586Y-17283150D01*
X2579586Y-17216484D02*
X2570063Y-17226008D01*
X2570063Y-17226008D02*
X2579586Y-17235531D01*
X2579586Y-17235531D02*
X2589110Y-17226008D01*
X2589110Y-17226008D02*
X2579586Y-17216484D01*
X2579586Y-17216484D02*
X2579586Y-17235531D01*
X2703396Y-17416484D02*
X2684348Y-17406960D01*
X2684348Y-17406960D02*
X2674824Y-17387912D01*
X2674824Y-17387912D02*
X2674824Y-17216484D01*
X2808158Y-17416484D02*
X2789110Y-17406960D01*
X2789110Y-17406960D02*
X2779586Y-17387912D01*
X2779586Y-17387912D02*
X2779586Y-17216484D01*
X3036729Y-17416484D02*
X3036729Y-17216484D01*
X3036729Y-17216484D02*
X3103396Y-17359341D01*
X3103396Y-17359341D02*
X3170062Y-17216484D01*
X3170062Y-17216484D02*
X3170062Y-17416484D01*
X3351015Y-17416484D02*
X3351015Y-17311722D01*
X3351015Y-17311722D02*
X3341491Y-17292674D01*
X3341491Y-17292674D02*
X3322443Y-17283150D01*
X3322443Y-17283150D02*
X3284348Y-17283150D01*
X3284348Y-17283150D02*
X3265301Y-17292674D01*
X3351015Y-17406960D02*
X3331967Y-17416484D01*
X3331967Y-17416484D02*
X3284348Y-17416484D01*
X3284348Y-17416484D02*
X3265301Y-17406960D01*
X3265301Y-17406960D02*
X3255777Y-17387912D01*
X3255777Y-17387912D02*
X3255777Y-17368865D01*
X3255777Y-17368865D02*
X3265301Y-17349817D01*
X3265301Y-17349817D02*
X3284348Y-17340293D01*
X3284348Y-17340293D02*
X3331967Y-17340293D01*
X3331967Y-17340293D02*
X3351015Y-17330770D01*
X3446253Y-17283150D02*
X3446253Y-17483150D01*
X3446253Y-17292674D02*
X3465301Y-17283150D01*
X3465301Y-17283150D02*
X3503396Y-17283150D01*
X3503396Y-17283150D02*
X3522443Y-17292674D01*
X3522443Y-17292674D02*
X3531967Y-17302198D01*
X3531967Y-17302198D02*
X3541491Y-17321246D01*
X3541491Y-17321246D02*
X3541491Y-17378389D01*
X3541491Y-17378389D02*
X3531967Y-17397436D01*
X3531967Y-17397436D02*
X3522443Y-17406960D01*
X3522443Y-17406960D02*
X3503396Y-17416484D01*
X3503396Y-17416484D02*
X3465301Y-17416484D01*
X3465301Y-17416484D02*
X3446253Y-17406960D01*
X3627205Y-17397436D02*
X3636729Y-17406960D01*
X3636729Y-17406960D02*
X3627205Y-17416484D01*
X3627205Y-17416484D02*
X3617682Y-17406960D01*
X3617682Y-17406960D02*
X3627205Y-17397436D01*
X3627205Y-17397436D02*
X3627205Y-17416484D01*
X3627205Y-17292674D02*
X3636729Y-17302198D01*
X3636729Y-17302198D02*
X3627205Y-17311722D01*
X3627205Y-17311722D02*
X3617682Y-17302198D01*
X3617682Y-17302198D02*
X3627205Y-17292674D01*
X3627205Y-17292674D02*
X3627205Y-17311722D01*
D12*
X1965000Y-17730000D02*
X1995000Y-17760000D01*
X1995000Y-17730000D02*
X1965000Y-17760000D01*
D11*
X2293872Y-17636484D02*
X2312920Y-17636484D01*
X2312920Y-17636484D02*
X2331967Y-17646008D01*
X2331967Y-17646008D02*
X2341491Y-17655531D01*
X2341491Y-17655531D02*
X2351015Y-17674579D01*
X2351015Y-17674579D02*
X2360539Y-17712674D01*
X2360539Y-17712674D02*
X2360539Y-17760293D01*
X2360539Y-17760293D02*
X2351015Y-17798389D01*
X2351015Y-17798389D02*
X2341491Y-17817436D01*
X2341491Y-17817436D02*
X2331967Y-17826960D01*
X2331967Y-17826960D02*
X2312920Y-17836484D01*
X2312920Y-17836484D02*
X2293872Y-17836484D01*
X2293872Y-17836484D02*
X2274824Y-17826960D01*
X2274824Y-17826960D02*
X2265301Y-17817436D01*
X2265301Y-17817436D02*
X2255777Y-17798389D01*
X2255777Y-17798389D02*
X2246253Y-17760293D01*
X2246253Y-17760293D02*
X2246253Y-17712674D01*
X2246253Y-17712674D02*
X2255777Y-17674579D01*
X2255777Y-17674579D02*
X2265301Y-17655531D01*
X2265301Y-17655531D02*
X2274824Y-17646008D01*
X2274824Y-17646008D02*
X2293872Y-17636484D01*
X2446253Y-17817436D02*
X2455777Y-17826960D01*
X2455777Y-17826960D02*
X2446253Y-17836484D01*
X2446253Y-17836484D02*
X2436729Y-17826960D01*
X2436729Y-17826960D02*
X2446253Y-17817436D01*
X2446253Y-17817436D02*
X2446253Y-17836484D01*
X2522444Y-17636484D02*
X2646253Y-17636484D01*
X2646253Y-17636484D02*
X2579586Y-17712674D01*
X2579586Y-17712674D02*
X2608158Y-17712674D01*
X2608158Y-17712674D02*
X2627205Y-17722198D01*
X2627205Y-17722198D02*
X2636729Y-17731722D01*
X2636729Y-17731722D02*
X2646253Y-17750770D01*
X2646253Y-17750770D02*
X2646253Y-17798389D01*
X2646253Y-17798389D02*
X2636729Y-17817436D01*
X2636729Y-17817436D02*
X2627205Y-17826960D01*
X2627205Y-17826960D02*
X2608158Y-17836484D01*
X2608158Y-17836484D02*
X2551015Y-17836484D01*
X2551015Y-17836484D02*
X2531967Y-17826960D01*
X2531967Y-17826960D02*
X2522444Y-17817436D01*
X2770063Y-17636484D02*
X2789110Y-17636484D01*
X2789110Y-17636484D02*
X2808158Y-17646008D01*
X2808158Y-17646008D02*
X2817682Y-17655531D01*
X2817682Y-17655531D02*
X2827205Y-17674579D01*
X2827205Y-17674579D02*
X2836729Y-17712674D01*
X2836729Y-17712674D02*
X2836729Y-17760293D01*
X2836729Y-17760293D02*
X2827205Y-17798389D01*
X2827205Y-17798389D02*
X2817682Y-17817436D01*
X2817682Y-17817436D02*
X2808158Y-17826960D01*
X2808158Y-17826960D02*
X2789110Y-17836484D01*
X2789110Y-17836484D02*
X2770063Y-17836484D01*
X2770063Y-17836484D02*
X2751015Y-17826960D01*
X2751015Y-17826960D02*
X2741491Y-17817436D01*
X2741491Y-17817436D02*
X2731967Y-17798389D01*
X2731967Y-17798389D02*
X2722444Y-17760293D01*
X2722444Y-17760293D02*
X2722444Y-17712674D01*
X2722444Y-17712674D02*
X2731967Y-17674579D01*
X2731967Y-17674579D02*
X2741491Y-17655531D01*
X2741491Y-17655531D02*
X2751015Y-17646008D01*
X2751015Y-17646008D02*
X2770063Y-17636484D01*
X2960539Y-17636484D02*
X2979586Y-17636484D01*
X2979586Y-17636484D02*
X2998634Y-17646008D01*
X2998634Y-17646008D02*
X3008158Y-17655531D01*
X3008158Y-17655531D02*
X3017682Y-17674579D01*
X3017682Y-17674579D02*
X3027205Y-17712674D01*
X3027205Y-17712674D02*
X3027205Y-17760293D01*
X3027205Y-17760293D02*
X3017682Y-17798389D01*
X3017682Y-17798389D02*
X3008158Y-17817436D01*
X3008158Y-17817436D02*
X2998634Y-17826960D01*
X2998634Y-17826960D02*
X2979586Y-17836484D01*
X2979586Y-17836484D02*
X2960539Y-17836484D01*
X2960539Y-17836484D02*
X2941491Y-17826960D01*
X2941491Y-17826960D02*
X2931967Y-17817436D01*
X2931967Y-17817436D02*
X2922443Y-17798389D01*
X2922443Y-17798389D02*
X2912920Y-17760293D01*
X2912920Y-17760293D02*
X2912920Y-17712674D01*
X2912920Y-17712674D02*
X2922443Y-17674579D01*
X2922443Y-17674579D02*
X2931967Y-17655531D01*
X2931967Y-17655531D02*
X2941491Y-17646008D01*
X2941491Y-17646008D02*
X2960539Y-17636484D01*
X3112920Y-17836484D02*
X3112920Y-17703150D01*
X3112920Y-17722198D02*
X3122443Y-17712674D01*
X3122443Y-17712674D02*
X3141491Y-17703150D01*
X3141491Y-17703150D02*
X3170063Y-17703150D01*
X3170063Y-17703150D02*
X3189110Y-17712674D01*
X3189110Y-17712674D02*
X3198634Y-17731722D01*
X3198634Y-17731722D02*
X3198634Y-17836484D01*
X3198634Y-17731722D02*
X3208158Y-17712674D01*
X3208158Y-17712674D02*
X3227205Y-17703150D01*
X3227205Y-17703150D02*
X3255777Y-17703150D01*
X3255777Y-17703150D02*
X3274824Y-17712674D01*
X3274824Y-17712674D02*
X3284348Y-17731722D01*
X3284348Y-17731722D02*
X3284348Y-17836484D01*
X3379586Y-17836484D02*
X3379586Y-17703150D01*
X3379586Y-17722198D02*
X3389110Y-17712674D01*
X3389110Y-17712674D02*
X3408158Y-17703150D01*
X3408158Y-17703150D02*
X3436729Y-17703150D01*
X3436729Y-17703150D02*
X3455777Y-17712674D01*
X3455777Y-17712674D02*
X3465301Y-17731722D01*
X3465301Y-17731722D02*
X3465301Y-17836484D01*
X3465301Y-17731722D02*
X3474824Y-17712674D01*
X3474824Y-17712674D02*
X3493872Y-17703150D01*
X3493872Y-17703150D02*
X3522443Y-17703150D01*
X3522443Y-17703150D02*
X3541491Y-17712674D01*
X3541491Y-17712674D02*
X3551015Y-17731722D01*
X3551015Y-17731722D02*
X3551015Y-17836484D01*
X3941491Y-17626960D02*
X3770063Y-17884103D01*
X4198634Y-17636484D02*
X4217682Y-17636484D01*
X4217682Y-17636484D02*
X4236729Y-17646008D01*
X4236729Y-17646008D02*
X4246253Y-17655531D01*
X4246253Y-17655531D02*
X4255777Y-17674579D01*
X4255777Y-17674579D02*
X4265301Y-17712674D01*
X4265301Y-17712674D02*
X4265301Y-17760293D01*
X4265301Y-17760293D02*
X4255777Y-17798389D01*
X4255777Y-17798389D02*
X4246253Y-17817436D01*
X4246253Y-17817436D02*
X4236729Y-17826960D01*
X4236729Y-17826960D02*
X4217682Y-17836484D01*
X4217682Y-17836484D02*
X4198634Y-17836484D01*
X4198634Y-17836484D02*
X4179586Y-17826960D01*
X4179586Y-17826960D02*
X4170063Y-17817436D01*
X4170063Y-17817436D02*
X4160539Y-17798389D01*
X4160539Y-17798389D02*
X4151015Y-17760293D01*
X4151015Y-17760293D02*
X4151015Y-17712674D01*
X4151015Y-17712674D02*
X4160539Y-17674579D01*
X4160539Y-17674579D02*
X4170063Y-17655531D01*
X4170063Y-17655531D02*
X4179586Y-17646008D01*
X4179586Y-17646008D02*
X4198634Y-17636484D01*
X4351015Y-17817436D02*
X4360539Y-17826960D01*
X4360539Y-17826960D02*
X4351015Y-17836484D01*
X4351015Y-17836484D02*
X4341491Y-17826960D01*
X4341491Y-17826960D02*
X4351015Y-17817436D01*
X4351015Y-17817436D02*
X4351015Y-17836484D01*
X4484348Y-17636484D02*
X4503396Y-17636484D01*
X4503396Y-17636484D02*
X4522444Y-17646008D01*
X4522444Y-17646008D02*
X4531968Y-17655531D01*
X4531968Y-17655531D02*
X4541491Y-17674579D01*
X4541491Y-17674579D02*
X4551015Y-17712674D01*
X4551015Y-17712674D02*
X4551015Y-17760293D01*
X4551015Y-17760293D02*
X4541491Y-17798389D01*
X4541491Y-17798389D02*
X4531968Y-17817436D01*
X4531968Y-17817436D02*
X4522444Y-17826960D01*
X4522444Y-17826960D02*
X4503396Y-17836484D01*
X4503396Y-17836484D02*
X4484348Y-17836484D01*
X4484348Y-17836484D02*
X4465301Y-17826960D01*
X4465301Y-17826960D02*
X4455777Y-17817436D01*
X4455777Y-17817436D02*
X4446253Y-17798389D01*
X4446253Y-17798389D02*
X4436729Y-17760293D01*
X4436729Y-17760293D02*
X4436729Y-17712674D01*
X4436729Y-17712674D02*
X4446253Y-17674579D01*
X4446253Y-17674579D02*
X4455777Y-17655531D01*
X4455777Y-17655531D02*
X4465301Y-17646008D01*
X4465301Y-17646008D02*
X4484348Y-17636484D01*
X4741491Y-17836484D02*
X4627206Y-17836484D01*
X4684348Y-17836484D02*
X4684348Y-17636484D01*
X4684348Y-17636484D02*
X4665301Y-17665055D01*
X4665301Y-17665055D02*
X4646253Y-17684103D01*
X4646253Y-17684103D02*
X4627206Y-17693627D01*
X4931968Y-17836484D02*
X4817682Y-17836484D01*
X4874825Y-17836484D02*
X4874825Y-17636484D01*
X4874825Y-17636484D02*
X4855777Y-17665055D01*
X4855777Y-17665055D02*
X4836729Y-17684103D01*
X4836729Y-17684103D02*
X4817682Y-17693627D01*
X5046253Y-17722198D02*
X5027206Y-17712674D01*
X5027206Y-17712674D02*
X5017682Y-17703150D01*
X5017682Y-17703150D02*
X5008158Y-17684103D01*
X5008158Y-17684103D02*
X5008158Y-17674579D01*
X5008158Y-17674579D02*
X5017682Y-17655531D01*
X5017682Y-17655531D02*
X5027206Y-17646008D01*
X5027206Y-17646008D02*
X5046253Y-17636484D01*
X5046253Y-17636484D02*
X5084349Y-17636484D01*
X5084349Y-17636484D02*
X5103396Y-17646008D01*
X5103396Y-17646008D02*
X5112920Y-17655531D01*
X5112920Y-17655531D02*
X5122444Y-17674579D01*
X5122444Y-17674579D02*
X5122444Y-17684103D01*
X5122444Y-17684103D02*
X5112920Y-17703150D01*
X5112920Y-17703150D02*
X5103396Y-17712674D01*
X5103396Y-17712674D02*
X5084349Y-17722198D01*
X5084349Y-17722198D02*
X5046253Y-17722198D01*
X5046253Y-17722198D02*
X5027206Y-17731722D01*
X5027206Y-17731722D02*
X5017682Y-17741246D01*
X5017682Y-17741246D02*
X5008158Y-17760293D01*
X5008158Y-17760293D02*
X5008158Y-17798389D01*
X5008158Y-17798389D02*
X5017682Y-17817436D01*
X5017682Y-17817436D02*
X5027206Y-17826960D01*
X5027206Y-17826960D02*
X5046253Y-17836484D01*
X5046253Y-17836484D02*
X5084349Y-17836484D01*
X5084349Y-17836484D02*
X5103396Y-17826960D01*
X5103396Y-17826960D02*
X5112920Y-17817436D01*
X5112920Y-17817436D02*
X5122444Y-17798389D01*
X5122444Y-17798389D02*
X5122444Y-17760293D01*
X5122444Y-17760293D02*
X5112920Y-17741246D01*
X5112920Y-17741246D02*
X5103396Y-17731722D01*
X5103396Y-17731722D02*
X5084349Y-17722198D01*
X5198634Y-17636484D02*
X5198634Y-17674579D01*
X5274825Y-17636484D02*
X5274825Y-17674579D01*
X5570063Y-17912674D02*
X5560539Y-17903150D01*
X5560539Y-17903150D02*
X5541491Y-17874579D01*
X5541491Y-17874579D02*
X5531968Y-17855531D01*
X5531968Y-17855531D02*
X5522444Y-17826960D01*
X5522444Y-17826960D02*
X5512920Y-17779341D01*
X5512920Y-17779341D02*
X5512920Y-17741246D01*
X5512920Y-17741246D02*
X5522444Y-17693627D01*
X5522444Y-17693627D02*
X5531968Y-17665055D01*
X5531968Y-17665055D02*
X5541491Y-17646008D01*
X5541491Y-17646008D02*
X5560539Y-17617436D01*
X5560539Y-17617436D02*
X5570063Y-17607912D01*
X5627206Y-17636484D02*
X5751015Y-17636484D01*
X5751015Y-17636484D02*
X5684348Y-17712674D01*
X5684348Y-17712674D02*
X5712920Y-17712674D01*
X5712920Y-17712674D02*
X5731968Y-17722198D01*
X5731968Y-17722198D02*
X5741491Y-17731722D01*
X5741491Y-17731722D02*
X5751015Y-17750770D01*
X5751015Y-17750770D02*
X5751015Y-17798389D01*
X5751015Y-17798389D02*
X5741491Y-17817436D01*
X5741491Y-17817436D02*
X5731968Y-17826960D01*
X5731968Y-17826960D02*
X5712920Y-17836484D01*
X5712920Y-17836484D02*
X5655777Y-17836484D01*
X5655777Y-17836484D02*
X5636729Y-17826960D01*
X5636729Y-17826960D02*
X5627206Y-17817436D01*
X5989110Y-17836484D02*
X5989110Y-17636484D01*
X6074825Y-17836484D02*
X6074825Y-17731722D01*
X6074825Y-17731722D02*
X6065301Y-17712674D01*
X6065301Y-17712674D02*
X6046253Y-17703150D01*
X6046253Y-17703150D02*
X6017682Y-17703150D01*
X6017682Y-17703150D02*
X5998634Y-17712674D01*
X5998634Y-17712674D02*
X5989110Y-17722198D01*
X6198634Y-17836484D02*
X6179587Y-17826960D01*
X6179587Y-17826960D02*
X6170063Y-17817436D01*
X6170063Y-17817436D02*
X6160539Y-17798389D01*
X6160539Y-17798389D02*
X6160539Y-17741246D01*
X6160539Y-17741246D02*
X6170063Y-17722198D01*
X6170063Y-17722198D02*
X6179587Y-17712674D01*
X6179587Y-17712674D02*
X6198634Y-17703150D01*
X6198634Y-17703150D02*
X6227206Y-17703150D01*
X6227206Y-17703150D02*
X6246253Y-17712674D01*
X6246253Y-17712674D02*
X6255777Y-17722198D01*
X6255777Y-17722198D02*
X6265301Y-17741246D01*
X6265301Y-17741246D02*
X6265301Y-17798389D01*
X6265301Y-17798389D02*
X6255777Y-17817436D01*
X6255777Y-17817436D02*
X6246253Y-17826960D01*
X6246253Y-17826960D02*
X6227206Y-17836484D01*
X6227206Y-17836484D02*
X6198634Y-17836484D01*
X6379587Y-17836484D02*
X6360539Y-17826960D01*
X6360539Y-17826960D02*
X6351015Y-17807912D01*
X6351015Y-17807912D02*
X6351015Y-17636484D01*
X6531968Y-17826960D02*
X6512920Y-17836484D01*
X6512920Y-17836484D02*
X6474825Y-17836484D01*
X6474825Y-17836484D02*
X6455777Y-17826960D01*
X6455777Y-17826960D02*
X6446253Y-17807912D01*
X6446253Y-17807912D02*
X6446253Y-17731722D01*
X6446253Y-17731722D02*
X6455777Y-17712674D01*
X6455777Y-17712674D02*
X6474825Y-17703150D01*
X6474825Y-17703150D02*
X6512920Y-17703150D01*
X6512920Y-17703150D02*
X6531968Y-17712674D01*
X6531968Y-17712674D02*
X6541491Y-17731722D01*
X6541491Y-17731722D02*
X6541491Y-17750770D01*
X6541491Y-17750770D02*
X6446253Y-17769817D01*
X6617682Y-17826960D02*
X6636730Y-17836484D01*
X6636730Y-17836484D02*
X6674825Y-17836484D01*
X6674825Y-17836484D02*
X6693872Y-17826960D01*
X6693872Y-17826960D02*
X6703396Y-17807912D01*
X6703396Y-17807912D02*
X6703396Y-17798389D01*
X6703396Y-17798389D02*
X6693872Y-17779341D01*
X6693872Y-17779341D02*
X6674825Y-17769817D01*
X6674825Y-17769817D02*
X6646253Y-17769817D01*
X6646253Y-17769817D02*
X6627206Y-17760293D01*
X6627206Y-17760293D02*
X6617682Y-17741246D01*
X6617682Y-17741246D02*
X6617682Y-17731722D01*
X6617682Y-17731722D02*
X6627206Y-17712674D01*
X6627206Y-17712674D02*
X6646253Y-17703150D01*
X6646253Y-17703150D02*
X6674825Y-17703150D01*
X6674825Y-17703150D02*
X6693872Y-17712674D01*
X6770063Y-17912674D02*
X6779587Y-17903150D01*
X6779587Y-17903150D02*
X6798634Y-17874579D01*
X6798634Y-17874579D02*
X6808158Y-17855531D01*
X6808158Y-17855531D02*
X6817682Y-17826960D01*
X6817682Y-17826960D02*
X6827206Y-17779341D01*
X6827206Y-17779341D02*
X6827206Y-17741246D01*
X6827206Y-17741246D02*
X6817682Y-17693627D01*
X6817682Y-17693627D02*
X6808158Y-17665055D01*
X6808158Y-17665055D02*
X6798634Y-17646008D01*
X6798634Y-17646008D02*
X6779587Y-17617436D01*
X6779587Y-17617436D02*
X6770063Y-17607912D01*
D13*
X1995000Y-18009000D02*
G75*
G03*
X1995000Y-18009000I-20000J0D01*
G01*
D11*
X2293872Y-17900484D02*
X2312920Y-17900484D01*
X2312920Y-17900484D02*
X2331967Y-17910008D01*
X2331967Y-17910008D02*
X2341491Y-17919531D01*
X2341491Y-17919531D02*
X2351015Y-17938579D01*
X2351015Y-17938579D02*
X2360539Y-17976674D01*
X2360539Y-17976674D02*
X2360539Y-18024293D01*
X2360539Y-18024293D02*
X2351015Y-18062389D01*
X2351015Y-18062389D02*
X2341491Y-18081436D01*
X2341491Y-18081436D02*
X2331967Y-18090960D01*
X2331967Y-18090960D02*
X2312920Y-18100484D01*
X2312920Y-18100484D02*
X2293872Y-18100484D01*
X2293872Y-18100484D02*
X2274824Y-18090960D01*
X2274824Y-18090960D02*
X2265301Y-18081436D01*
X2265301Y-18081436D02*
X2255777Y-18062389D01*
X2255777Y-18062389D02*
X2246253Y-18024293D01*
X2246253Y-18024293D02*
X2246253Y-17976674D01*
X2246253Y-17976674D02*
X2255777Y-17938579D01*
X2255777Y-17938579D02*
X2265301Y-17919531D01*
X2265301Y-17919531D02*
X2274824Y-17910008D01*
X2274824Y-17910008D02*
X2293872Y-17900484D01*
X2446253Y-18081436D02*
X2455777Y-18090960D01*
X2455777Y-18090960D02*
X2446253Y-18100484D01*
X2446253Y-18100484D02*
X2436729Y-18090960D01*
X2436729Y-18090960D02*
X2446253Y-18081436D01*
X2446253Y-18081436D02*
X2446253Y-18100484D01*
X2627205Y-17967150D02*
X2627205Y-18100484D01*
X2579586Y-17890960D02*
X2531967Y-18033817D01*
X2531967Y-18033817D02*
X2655777Y-18033817D01*
X2770063Y-17900484D02*
X2789110Y-17900484D01*
X2789110Y-17900484D02*
X2808158Y-17910008D01*
X2808158Y-17910008D02*
X2817682Y-17919531D01*
X2817682Y-17919531D02*
X2827205Y-17938579D01*
X2827205Y-17938579D02*
X2836729Y-17976674D01*
X2836729Y-17976674D02*
X2836729Y-18024293D01*
X2836729Y-18024293D02*
X2827205Y-18062389D01*
X2827205Y-18062389D02*
X2817682Y-18081436D01*
X2817682Y-18081436D02*
X2808158Y-18090960D01*
X2808158Y-18090960D02*
X2789110Y-18100484D01*
X2789110Y-18100484D02*
X2770063Y-18100484D01*
X2770063Y-18100484D02*
X2751015Y-18090960D01*
X2751015Y-18090960D02*
X2741491Y-18081436D01*
X2741491Y-18081436D02*
X2731967Y-18062389D01*
X2731967Y-18062389D02*
X2722444Y-18024293D01*
X2722444Y-18024293D02*
X2722444Y-17976674D01*
X2722444Y-17976674D02*
X2731967Y-17938579D01*
X2731967Y-17938579D02*
X2741491Y-17919531D01*
X2741491Y-17919531D02*
X2751015Y-17910008D01*
X2751015Y-17910008D02*
X2770063Y-17900484D01*
X2960539Y-17900484D02*
X2979586Y-17900484D01*
X2979586Y-17900484D02*
X2998634Y-17910008D01*
X2998634Y-17910008D02*
X3008158Y-17919531D01*
X3008158Y-17919531D02*
X3017682Y-17938579D01*
X3017682Y-17938579D02*
X3027205Y-17976674D01*
X3027205Y-17976674D02*
X3027205Y-18024293D01*
X3027205Y-18024293D02*
X3017682Y-18062389D01*
X3017682Y-18062389D02*
X3008158Y-18081436D01*
X3008158Y-18081436D02*
X2998634Y-18090960D01*
X2998634Y-18090960D02*
X2979586Y-18100484D01*
X2979586Y-18100484D02*
X2960539Y-18100484D01*
X2960539Y-18100484D02*
X2941491Y-18090960D01*
X2941491Y-18090960D02*
X2931967Y-18081436D01*
X2931967Y-18081436D02*
X2922443Y-18062389D01*
X2922443Y-18062389D02*
X2912920Y-18024293D01*
X2912920Y-18024293D02*
X2912920Y-17976674D01*
X2912920Y-17976674D02*
X2922443Y-17938579D01*
X2922443Y-17938579D02*
X2931967Y-17919531D01*
X2931967Y-17919531D02*
X2941491Y-17910008D01*
X2941491Y-17910008D02*
X2960539Y-17900484D01*
X3112920Y-18100484D02*
X3112920Y-17967150D01*
X3112920Y-17986198D02*
X3122443Y-17976674D01*
X3122443Y-17976674D02*
X3141491Y-17967150D01*
X3141491Y-17967150D02*
X3170063Y-17967150D01*
X3170063Y-17967150D02*
X3189110Y-17976674D01*
X3189110Y-17976674D02*
X3198634Y-17995722D01*
X3198634Y-17995722D02*
X3198634Y-18100484D01*
X3198634Y-17995722D02*
X3208158Y-17976674D01*
X3208158Y-17976674D02*
X3227205Y-17967150D01*
X3227205Y-17967150D02*
X3255777Y-17967150D01*
X3255777Y-17967150D02*
X3274824Y-17976674D01*
X3274824Y-17976674D02*
X3284348Y-17995722D01*
X3284348Y-17995722D02*
X3284348Y-18100484D01*
X3379586Y-18100484D02*
X3379586Y-17967150D01*
X3379586Y-17986198D02*
X3389110Y-17976674D01*
X3389110Y-17976674D02*
X3408158Y-17967150D01*
X3408158Y-17967150D02*
X3436729Y-17967150D01*
X3436729Y-17967150D02*
X3455777Y-17976674D01*
X3455777Y-17976674D02*
X3465301Y-17995722D01*
X3465301Y-17995722D02*
X3465301Y-18100484D01*
X3465301Y-17995722D02*
X3474824Y-17976674D01*
X3474824Y-17976674D02*
X3493872Y-17967150D01*
X3493872Y-17967150D02*
X3522443Y-17967150D01*
X3522443Y-17967150D02*
X3541491Y-17976674D01*
X3541491Y-17976674D02*
X3551015Y-17995722D01*
X3551015Y-17995722D02*
X3551015Y-18100484D01*
X3941491Y-17890960D02*
X3770063Y-18148103D01*
X4198634Y-17900484D02*
X4217682Y-17900484D01*
X4217682Y-17900484D02*
X4236729Y-17910008D01*
X4236729Y-17910008D02*
X4246253Y-17919531D01*
X4246253Y-17919531D02*
X4255777Y-17938579D01*
X4255777Y-17938579D02*
X4265301Y-17976674D01*
X4265301Y-17976674D02*
X4265301Y-18024293D01*
X4265301Y-18024293D02*
X4255777Y-18062389D01*
X4255777Y-18062389D02*
X4246253Y-18081436D01*
X4246253Y-18081436D02*
X4236729Y-18090960D01*
X4236729Y-18090960D02*
X4217682Y-18100484D01*
X4217682Y-18100484D02*
X4198634Y-18100484D01*
X4198634Y-18100484D02*
X4179586Y-18090960D01*
X4179586Y-18090960D02*
X4170063Y-18081436D01*
X4170063Y-18081436D02*
X4160539Y-18062389D01*
X4160539Y-18062389D02*
X4151015Y-18024293D01*
X4151015Y-18024293D02*
X4151015Y-17976674D01*
X4151015Y-17976674D02*
X4160539Y-17938579D01*
X4160539Y-17938579D02*
X4170063Y-17919531D01*
X4170063Y-17919531D02*
X4179586Y-17910008D01*
X4179586Y-17910008D02*
X4198634Y-17900484D01*
X4351015Y-18081436D02*
X4360539Y-18090960D01*
X4360539Y-18090960D02*
X4351015Y-18100484D01*
X4351015Y-18100484D02*
X4341491Y-18090960D01*
X4341491Y-18090960D02*
X4351015Y-18081436D01*
X4351015Y-18081436D02*
X4351015Y-18100484D01*
X4484348Y-17900484D02*
X4503396Y-17900484D01*
X4503396Y-17900484D02*
X4522444Y-17910008D01*
X4522444Y-17910008D02*
X4531968Y-17919531D01*
X4531968Y-17919531D02*
X4541491Y-17938579D01*
X4541491Y-17938579D02*
X4551015Y-17976674D01*
X4551015Y-17976674D02*
X4551015Y-18024293D01*
X4551015Y-18024293D02*
X4541491Y-18062389D01*
X4541491Y-18062389D02*
X4531968Y-18081436D01*
X4531968Y-18081436D02*
X4522444Y-18090960D01*
X4522444Y-18090960D02*
X4503396Y-18100484D01*
X4503396Y-18100484D02*
X4484348Y-18100484D01*
X4484348Y-18100484D02*
X4465301Y-18090960D01*
X4465301Y-18090960D02*
X4455777Y-18081436D01*
X4455777Y-18081436D02*
X4446253Y-18062389D01*
X4446253Y-18062389D02*
X4436729Y-18024293D01*
X4436729Y-18024293D02*
X4436729Y-17976674D01*
X4436729Y-17976674D02*
X4446253Y-17938579D01*
X4446253Y-17938579D02*
X4455777Y-17919531D01*
X4455777Y-17919531D02*
X4465301Y-17910008D01*
X4465301Y-17910008D02*
X4484348Y-17900484D01*
X4741491Y-18100484D02*
X4627206Y-18100484D01*
X4684348Y-18100484D02*
X4684348Y-17900484D01*
X4684348Y-17900484D02*
X4665301Y-17929055D01*
X4665301Y-17929055D02*
X4646253Y-17948103D01*
X4646253Y-17948103D02*
X4627206Y-17957627D01*
X4922444Y-17900484D02*
X4827206Y-17900484D01*
X4827206Y-17900484D02*
X4817682Y-17995722D01*
X4817682Y-17995722D02*
X4827206Y-17986198D01*
X4827206Y-17986198D02*
X4846253Y-17976674D01*
X4846253Y-17976674D02*
X4893872Y-17976674D01*
X4893872Y-17976674D02*
X4912920Y-17986198D01*
X4912920Y-17986198D02*
X4922444Y-17995722D01*
X4922444Y-17995722D02*
X4931968Y-18014770D01*
X4931968Y-18014770D02*
X4931968Y-18062389D01*
X4931968Y-18062389D02*
X4922444Y-18081436D01*
X4922444Y-18081436D02*
X4912920Y-18090960D01*
X4912920Y-18090960D02*
X4893872Y-18100484D01*
X4893872Y-18100484D02*
X4846253Y-18100484D01*
X4846253Y-18100484D02*
X4827206Y-18090960D01*
X4827206Y-18090960D02*
X4817682Y-18081436D01*
X4998634Y-17900484D02*
X5131968Y-17900484D01*
X5131968Y-17900484D02*
X5046253Y-18100484D01*
X5198634Y-17900484D02*
X5198634Y-17938579D01*
X5274825Y-17900484D02*
X5274825Y-17938579D01*
X5570063Y-18176674D02*
X5560539Y-18167150D01*
X5560539Y-18167150D02*
X5541491Y-18138579D01*
X5541491Y-18138579D02*
X5531968Y-18119531D01*
X5531968Y-18119531D02*
X5522444Y-18090960D01*
X5522444Y-18090960D02*
X5512920Y-18043341D01*
X5512920Y-18043341D02*
X5512920Y-18005246D01*
X5512920Y-18005246D02*
X5522444Y-17957627D01*
X5522444Y-17957627D02*
X5531968Y-17929055D01*
X5531968Y-17929055D02*
X5541491Y-17910008D01*
X5541491Y-17910008D02*
X5560539Y-17881436D01*
X5560539Y-17881436D02*
X5570063Y-17871912D01*
X5674825Y-17986198D02*
X5655777Y-17976674D01*
X5655777Y-17976674D02*
X5646253Y-17967150D01*
X5646253Y-17967150D02*
X5636729Y-17948103D01*
X5636729Y-17948103D02*
X5636729Y-17938579D01*
X5636729Y-17938579D02*
X5646253Y-17919531D01*
X5646253Y-17919531D02*
X5655777Y-17910008D01*
X5655777Y-17910008D02*
X5674825Y-17900484D01*
X5674825Y-17900484D02*
X5712920Y-17900484D01*
X5712920Y-17900484D02*
X5731968Y-17910008D01*
X5731968Y-17910008D02*
X5741491Y-17919531D01*
X5741491Y-17919531D02*
X5751015Y-17938579D01*
X5751015Y-17938579D02*
X5751015Y-17948103D01*
X5751015Y-17948103D02*
X5741491Y-17967150D01*
X5741491Y-17967150D02*
X5731968Y-17976674D01*
X5731968Y-17976674D02*
X5712920Y-17986198D01*
X5712920Y-17986198D02*
X5674825Y-17986198D01*
X5674825Y-17986198D02*
X5655777Y-17995722D01*
X5655777Y-17995722D02*
X5646253Y-18005246D01*
X5646253Y-18005246D02*
X5636729Y-18024293D01*
X5636729Y-18024293D02*
X5636729Y-18062389D01*
X5636729Y-18062389D02*
X5646253Y-18081436D01*
X5646253Y-18081436D02*
X5655777Y-18090960D01*
X5655777Y-18090960D02*
X5674825Y-18100484D01*
X5674825Y-18100484D02*
X5712920Y-18100484D01*
X5712920Y-18100484D02*
X5731968Y-18090960D01*
X5731968Y-18090960D02*
X5741491Y-18081436D01*
X5741491Y-18081436D02*
X5751015Y-18062389D01*
X5751015Y-18062389D02*
X5751015Y-18024293D01*
X5751015Y-18024293D02*
X5741491Y-18005246D01*
X5741491Y-18005246D02*
X5731968Y-17995722D01*
X5731968Y-17995722D02*
X5712920Y-17986198D01*
X5922444Y-17967150D02*
X5922444Y-18100484D01*
X5874825Y-17890960D02*
X5827206Y-18033817D01*
X5827206Y-18033817D02*
X5951015Y-18033817D01*
X6179587Y-18100484D02*
X6179587Y-17900484D01*
X6265301Y-18100484D02*
X6265301Y-17995722D01*
X6265301Y-17995722D02*
X6255777Y-17976674D01*
X6255777Y-17976674D02*
X6236730Y-17967150D01*
X6236730Y-17967150D02*
X6208158Y-17967150D01*
X6208158Y-17967150D02*
X6189110Y-17976674D01*
X6189110Y-17976674D02*
X6179587Y-17986198D01*
X6389110Y-18100484D02*
X6370063Y-18090960D01*
X6370063Y-18090960D02*
X6360539Y-18081436D01*
X6360539Y-18081436D02*
X6351015Y-18062389D01*
X6351015Y-18062389D02*
X6351015Y-18005246D01*
X6351015Y-18005246D02*
X6360539Y-17986198D01*
X6360539Y-17986198D02*
X6370063Y-17976674D01*
X6370063Y-17976674D02*
X6389110Y-17967150D01*
X6389110Y-17967150D02*
X6417682Y-17967150D01*
X6417682Y-17967150D02*
X6436730Y-17976674D01*
X6436730Y-17976674D02*
X6446253Y-17986198D01*
X6446253Y-17986198D02*
X6455777Y-18005246D01*
X6455777Y-18005246D02*
X6455777Y-18062389D01*
X6455777Y-18062389D02*
X6446253Y-18081436D01*
X6446253Y-18081436D02*
X6436730Y-18090960D01*
X6436730Y-18090960D02*
X6417682Y-18100484D01*
X6417682Y-18100484D02*
X6389110Y-18100484D01*
X6570063Y-18100484D02*
X6551015Y-18090960D01*
X6551015Y-18090960D02*
X6541491Y-18071912D01*
X6541491Y-18071912D02*
X6541491Y-17900484D01*
X6722444Y-18090960D02*
X6703396Y-18100484D01*
X6703396Y-18100484D02*
X6665301Y-18100484D01*
X6665301Y-18100484D02*
X6646253Y-18090960D01*
X6646253Y-18090960D02*
X6636730Y-18071912D01*
X6636730Y-18071912D02*
X6636730Y-17995722D01*
X6636730Y-17995722D02*
X6646253Y-17976674D01*
X6646253Y-17976674D02*
X6665301Y-17967150D01*
X6665301Y-17967150D02*
X6703396Y-17967150D01*
X6703396Y-17967150D02*
X6722444Y-17976674D01*
X6722444Y-17976674D02*
X6731968Y-17995722D01*
X6731968Y-17995722D02*
X6731968Y-18014770D01*
X6731968Y-18014770D02*
X6636730Y-18033817D01*
X6808158Y-18090960D02*
X6827206Y-18100484D01*
X6827206Y-18100484D02*
X6865301Y-18100484D01*
X6865301Y-18100484D02*
X6884349Y-18090960D01*
X6884349Y-18090960D02*
X6893872Y-18071912D01*
X6893872Y-18071912D02*
X6893872Y-18062389D01*
X6893872Y-18062389D02*
X6884349Y-18043341D01*
X6884349Y-18043341D02*
X6865301Y-18033817D01*
X6865301Y-18033817D02*
X6836730Y-18033817D01*
X6836730Y-18033817D02*
X6817682Y-18024293D01*
X6817682Y-18024293D02*
X6808158Y-18005246D01*
X6808158Y-18005246D02*
X6808158Y-17995722D01*
X6808158Y-17995722D02*
X6817682Y-17976674D01*
X6817682Y-17976674D02*
X6836730Y-17967150D01*
X6836730Y-17967150D02*
X6865301Y-17967150D01*
X6865301Y-17967150D02*
X6884349Y-17976674D01*
X6960539Y-18176674D02*
X6970063Y-18167150D01*
X6970063Y-18167150D02*
X6989111Y-18138579D01*
X6989111Y-18138579D02*
X6998634Y-18119531D01*
X6998634Y-18119531D02*
X7008158Y-18090960D01*
X7008158Y-18090960D02*
X7017682Y-18043341D01*
X7017682Y-18043341D02*
X7017682Y-18005246D01*
X7017682Y-18005246D02*
X7008158Y-17957627D01*
X7008158Y-17957627D02*
X6998634Y-17929055D01*
X6998634Y-17929055D02*
X6989111Y-17910008D01*
X6989111Y-17910008D02*
X6970063Y-17881436D01*
X6970063Y-17881436D02*
X6960539Y-17871912D01*
D14*
X1970000Y-18248000D02*
X1970000Y-18298000D01*
X1945000Y-18273000D02*
X1995000Y-18273000D01*
D11*
X2293872Y-18164484D02*
X2312920Y-18164484D01*
X2312920Y-18164484D02*
X2331967Y-18174008D01*
X2331967Y-18174008D02*
X2341491Y-18183531D01*
X2341491Y-18183531D02*
X2351015Y-18202579D01*
X2351015Y-18202579D02*
X2360539Y-18240674D01*
X2360539Y-18240674D02*
X2360539Y-18288293D01*
X2360539Y-18288293D02*
X2351015Y-18326389D01*
X2351015Y-18326389D02*
X2341491Y-18345436D01*
X2341491Y-18345436D02*
X2331967Y-18354960D01*
X2331967Y-18354960D02*
X2312920Y-18364484D01*
X2312920Y-18364484D02*
X2293872Y-18364484D01*
X2293872Y-18364484D02*
X2274824Y-18354960D01*
X2274824Y-18354960D02*
X2265301Y-18345436D01*
X2265301Y-18345436D02*
X2255777Y-18326389D01*
X2255777Y-18326389D02*
X2246253Y-18288293D01*
X2246253Y-18288293D02*
X2246253Y-18240674D01*
X2246253Y-18240674D02*
X2255777Y-18202579D01*
X2255777Y-18202579D02*
X2265301Y-18183531D01*
X2265301Y-18183531D02*
X2274824Y-18174008D01*
X2274824Y-18174008D02*
X2293872Y-18164484D01*
X2446253Y-18345436D02*
X2455777Y-18354960D01*
X2455777Y-18354960D02*
X2446253Y-18364484D01*
X2446253Y-18364484D02*
X2436729Y-18354960D01*
X2436729Y-18354960D02*
X2446253Y-18345436D01*
X2446253Y-18345436D02*
X2446253Y-18364484D01*
X2636729Y-18164484D02*
X2541491Y-18164484D01*
X2541491Y-18164484D02*
X2531967Y-18259722D01*
X2531967Y-18259722D02*
X2541491Y-18250198D01*
X2541491Y-18250198D02*
X2560539Y-18240674D01*
X2560539Y-18240674D02*
X2608158Y-18240674D01*
X2608158Y-18240674D02*
X2627205Y-18250198D01*
X2627205Y-18250198D02*
X2636729Y-18259722D01*
X2636729Y-18259722D02*
X2646253Y-18278770D01*
X2646253Y-18278770D02*
X2646253Y-18326389D01*
X2646253Y-18326389D02*
X2636729Y-18345436D01*
X2636729Y-18345436D02*
X2627205Y-18354960D01*
X2627205Y-18354960D02*
X2608158Y-18364484D01*
X2608158Y-18364484D02*
X2560539Y-18364484D01*
X2560539Y-18364484D02*
X2541491Y-18354960D01*
X2541491Y-18354960D02*
X2531967Y-18345436D01*
X2770063Y-18164484D02*
X2789110Y-18164484D01*
X2789110Y-18164484D02*
X2808158Y-18174008D01*
X2808158Y-18174008D02*
X2817682Y-18183531D01*
X2817682Y-18183531D02*
X2827205Y-18202579D01*
X2827205Y-18202579D02*
X2836729Y-18240674D01*
X2836729Y-18240674D02*
X2836729Y-18288293D01*
X2836729Y-18288293D02*
X2827205Y-18326389D01*
X2827205Y-18326389D02*
X2817682Y-18345436D01*
X2817682Y-18345436D02*
X2808158Y-18354960D01*
X2808158Y-18354960D02*
X2789110Y-18364484D01*
X2789110Y-18364484D02*
X2770063Y-18364484D01*
X2770063Y-18364484D02*
X2751015Y-18354960D01*
X2751015Y-18354960D02*
X2741491Y-18345436D01*
X2741491Y-18345436D02*
X2731967Y-18326389D01*
X2731967Y-18326389D02*
X2722444Y-18288293D01*
X2722444Y-18288293D02*
X2722444Y-18240674D01*
X2722444Y-18240674D02*
X2731967Y-18202579D01*
X2731967Y-18202579D02*
X2741491Y-18183531D01*
X2741491Y-18183531D02*
X2751015Y-18174008D01*
X2751015Y-18174008D02*
X2770063Y-18164484D01*
X2960539Y-18164484D02*
X2979586Y-18164484D01*
X2979586Y-18164484D02*
X2998634Y-18174008D01*
X2998634Y-18174008D02*
X3008158Y-18183531D01*
X3008158Y-18183531D02*
X3017682Y-18202579D01*
X3017682Y-18202579D02*
X3027205Y-18240674D01*
X3027205Y-18240674D02*
X3027205Y-18288293D01*
X3027205Y-18288293D02*
X3017682Y-18326389D01*
X3017682Y-18326389D02*
X3008158Y-18345436D01*
X3008158Y-18345436D02*
X2998634Y-18354960D01*
X2998634Y-18354960D02*
X2979586Y-18364484D01*
X2979586Y-18364484D02*
X2960539Y-18364484D01*
X2960539Y-18364484D02*
X2941491Y-18354960D01*
X2941491Y-18354960D02*
X2931967Y-18345436D01*
X2931967Y-18345436D02*
X2922443Y-18326389D01*
X2922443Y-18326389D02*
X2912920Y-18288293D01*
X2912920Y-18288293D02*
X2912920Y-18240674D01*
X2912920Y-18240674D02*
X2922443Y-18202579D01*
X2922443Y-18202579D02*
X2931967Y-18183531D01*
X2931967Y-18183531D02*
X2941491Y-18174008D01*
X2941491Y-18174008D02*
X2960539Y-18164484D01*
X3112920Y-18364484D02*
X3112920Y-18231150D01*
X3112920Y-18250198D02*
X3122443Y-18240674D01*
X3122443Y-18240674D02*
X3141491Y-18231150D01*
X3141491Y-18231150D02*
X3170063Y-18231150D01*
X3170063Y-18231150D02*
X3189110Y-18240674D01*
X3189110Y-18240674D02*
X3198634Y-18259722D01*
X3198634Y-18259722D02*
X3198634Y-18364484D01*
X3198634Y-18259722D02*
X3208158Y-18240674D01*
X3208158Y-18240674D02*
X3227205Y-18231150D01*
X3227205Y-18231150D02*
X3255777Y-18231150D01*
X3255777Y-18231150D02*
X3274824Y-18240674D01*
X3274824Y-18240674D02*
X3284348Y-18259722D01*
X3284348Y-18259722D02*
X3284348Y-18364484D01*
X3379586Y-18364484D02*
X3379586Y-18231150D01*
X3379586Y-18250198D02*
X3389110Y-18240674D01*
X3389110Y-18240674D02*
X3408158Y-18231150D01*
X3408158Y-18231150D02*
X3436729Y-18231150D01*
X3436729Y-18231150D02*
X3455777Y-18240674D01*
X3455777Y-18240674D02*
X3465301Y-18259722D01*
X3465301Y-18259722D02*
X3465301Y-18364484D01*
X3465301Y-18259722D02*
X3474824Y-18240674D01*
X3474824Y-18240674D02*
X3493872Y-18231150D01*
X3493872Y-18231150D02*
X3522443Y-18231150D01*
X3522443Y-18231150D02*
X3541491Y-18240674D01*
X3541491Y-18240674D02*
X3551015Y-18259722D01*
X3551015Y-18259722D02*
X3551015Y-18364484D01*
X3941491Y-18154960D02*
X3770063Y-18412103D01*
X4198634Y-18164484D02*
X4217682Y-18164484D01*
X4217682Y-18164484D02*
X4236729Y-18174008D01*
X4236729Y-18174008D02*
X4246253Y-18183531D01*
X4246253Y-18183531D02*
X4255777Y-18202579D01*
X4255777Y-18202579D02*
X4265301Y-18240674D01*
X4265301Y-18240674D02*
X4265301Y-18288293D01*
X4265301Y-18288293D02*
X4255777Y-18326389D01*
X4255777Y-18326389D02*
X4246253Y-18345436D01*
X4246253Y-18345436D02*
X4236729Y-18354960D01*
X4236729Y-18354960D02*
X4217682Y-18364484D01*
X4217682Y-18364484D02*
X4198634Y-18364484D01*
X4198634Y-18364484D02*
X4179586Y-18354960D01*
X4179586Y-18354960D02*
X4170063Y-18345436D01*
X4170063Y-18345436D02*
X4160539Y-18326389D01*
X4160539Y-18326389D02*
X4151015Y-18288293D01*
X4151015Y-18288293D02*
X4151015Y-18240674D01*
X4151015Y-18240674D02*
X4160539Y-18202579D01*
X4160539Y-18202579D02*
X4170063Y-18183531D01*
X4170063Y-18183531D02*
X4179586Y-18174008D01*
X4179586Y-18174008D02*
X4198634Y-18164484D01*
X4351015Y-18345436D02*
X4360539Y-18354960D01*
X4360539Y-18354960D02*
X4351015Y-18364484D01*
X4351015Y-18364484D02*
X4341491Y-18354960D01*
X4341491Y-18354960D02*
X4351015Y-18345436D01*
X4351015Y-18345436D02*
X4351015Y-18364484D01*
X4484348Y-18164484D02*
X4503396Y-18164484D01*
X4503396Y-18164484D02*
X4522444Y-18174008D01*
X4522444Y-18174008D02*
X4531968Y-18183531D01*
X4531968Y-18183531D02*
X4541491Y-18202579D01*
X4541491Y-18202579D02*
X4551015Y-18240674D01*
X4551015Y-18240674D02*
X4551015Y-18288293D01*
X4551015Y-18288293D02*
X4541491Y-18326389D01*
X4541491Y-18326389D02*
X4531968Y-18345436D01*
X4531968Y-18345436D02*
X4522444Y-18354960D01*
X4522444Y-18354960D02*
X4503396Y-18364484D01*
X4503396Y-18364484D02*
X4484348Y-18364484D01*
X4484348Y-18364484D02*
X4465301Y-18354960D01*
X4465301Y-18354960D02*
X4455777Y-18345436D01*
X4455777Y-18345436D02*
X4446253Y-18326389D01*
X4446253Y-18326389D02*
X4436729Y-18288293D01*
X4436729Y-18288293D02*
X4436729Y-18240674D01*
X4436729Y-18240674D02*
X4446253Y-18202579D01*
X4446253Y-18202579D02*
X4455777Y-18183531D01*
X4455777Y-18183531D02*
X4465301Y-18174008D01*
X4465301Y-18174008D02*
X4484348Y-18164484D01*
X4741491Y-18364484D02*
X4627206Y-18364484D01*
X4684348Y-18364484D02*
X4684348Y-18164484D01*
X4684348Y-18164484D02*
X4665301Y-18193055D01*
X4665301Y-18193055D02*
X4646253Y-18212103D01*
X4646253Y-18212103D02*
X4627206Y-18221627D01*
X4836729Y-18364484D02*
X4874825Y-18364484D01*
X4874825Y-18364484D02*
X4893872Y-18354960D01*
X4893872Y-18354960D02*
X4903396Y-18345436D01*
X4903396Y-18345436D02*
X4922444Y-18316865D01*
X4922444Y-18316865D02*
X4931968Y-18278770D01*
X4931968Y-18278770D02*
X4931968Y-18202579D01*
X4931968Y-18202579D02*
X4922444Y-18183531D01*
X4922444Y-18183531D02*
X4912920Y-18174008D01*
X4912920Y-18174008D02*
X4893872Y-18164484D01*
X4893872Y-18164484D02*
X4855777Y-18164484D01*
X4855777Y-18164484D02*
X4836729Y-18174008D01*
X4836729Y-18174008D02*
X4827206Y-18183531D01*
X4827206Y-18183531D02*
X4817682Y-18202579D01*
X4817682Y-18202579D02*
X4817682Y-18250198D01*
X4817682Y-18250198D02*
X4827206Y-18269246D01*
X4827206Y-18269246D02*
X4836729Y-18278770D01*
X4836729Y-18278770D02*
X4855777Y-18288293D01*
X4855777Y-18288293D02*
X4893872Y-18288293D01*
X4893872Y-18288293D02*
X4912920Y-18278770D01*
X4912920Y-18278770D02*
X4922444Y-18269246D01*
X4922444Y-18269246D02*
X4931968Y-18250198D01*
X4998634Y-18164484D02*
X5131968Y-18164484D01*
X5131968Y-18164484D02*
X5046253Y-18364484D01*
X5198634Y-18164484D02*
X5198634Y-18202579D01*
X5274825Y-18164484D02*
X5274825Y-18202579D01*
X5570063Y-18440674D02*
X5560539Y-18431150D01*
X5560539Y-18431150D02*
X5541491Y-18402579D01*
X5541491Y-18402579D02*
X5531968Y-18383531D01*
X5531968Y-18383531D02*
X5522444Y-18354960D01*
X5522444Y-18354960D02*
X5512920Y-18307341D01*
X5512920Y-18307341D02*
X5512920Y-18269246D01*
X5512920Y-18269246D02*
X5522444Y-18221627D01*
X5522444Y-18221627D02*
X5531968Y-18193055D01*
X5531968Y-18193055D02*
X5541491Y-18174008D01*
X5541491Y-18174008D02*
X5560539Y-18145436D01*
X5560539Y-18145436D02*
X5570063Y-18135912D01*
X5636729Y-18183531D02*
X5646253Y-18174008D01*
X5646253Y-18174008D02*
X5665301Y-18164484D01*
X5665301Y-18164484D02*
X5712920Y-18164484D01*
X5712920Y-18164484D02*
X5731968Y-18174008D01*
X5731968Y-18174008D02*
X5741491Y-18183531D01*
X5741491Y-18183531D02*
X5751015Y-18202579D01*
X5751015Y-18202579D02*
X5751015Y-18221627D01*
X5751015Y-18221627D02*
X5741491Y-18250198D01*
X5741491Y-18250198D02*
X5627206Y-18364484D01*
X5627206Y-18364484D02*
X5751015Y-18364484D01*
X5922444Y-18164484D02*
X5884348Y-18164484D01*
X5884348Y-18164484D02*
X5865301Y-18174008D01*
X5865301Y-18174008D02*
X5855777Y-18183531D01*
X5855777Y-18183531D02*
X5836729Y-18212103D01*
X5836729Y-18212103D02*
X5827206Y-18250198D01*
X5827206Y-18250198D02*
X5827206Y-18326389D01*
X5827206Y-18326389D02*
X5836729Y-18345436D01*
X5836729Y-18345436D02*
X5846253Y-18354960D01*
X5846253Y-18354960D02*
X5865301Y-18364484D01*
X5865301Y-18364484D02*
X5903396Y-18364484D01*
X5903396Y-18364484D02*
X5922444Y-18354960D01*
X5922444Y-18354960D02*
X5931968Y-18345436D01*
X5931968Y-18345436D02*
X5941491Y-18326389D01*
X5941491Y-18326389D02*
X5941491Y-18278770D01*
X5941491Y-18278770D02*
X5931968Y-18259722D01*
X5931968Y-18259722D02*
X5922444Y-18250198D01*
X5922444Y-18250198D02*
X5903396Y-18240674D01*
X5903396Y-18240674D02*
X5865301Y-18240674D01*
X5865301Y-18240674D02*
X5846253Y-18250198D01*
X5846253Y-18250198D02*
X5836729Y-18259722D01*
X5836729Y-18259722D02*
X5827206Y-18278770D01*
X6179587Y-18364484D02*
X6179587Y-18164484D01*
X6265301Y-18364484D02*
X6265301Y-18259722D01*
X6265301Y-18259722D02*
X6255777Y-18240674D01*
X6255777Y-18240674D02*
X6236730Y-18231150D01*
X6236730Y-18231150D02*
X6208158Y-18231150D01*
X6208158Y-18231150D02*
X6189110Y-18240674D01*
X6189110Y-18240674D02*
X6179587Y-18250198D01*
X6389110Y-18364484D02*
X6370063Y-18354960D01*
X6370063Y-18354960D02*
X6360539Y-18345436D01*
X6360539Y-18345436D02*
X6351015Y-18326389D01*
X6351015Y-18326389D02*
X6351015Y-18269246D01*
X6351015Y-18269246D02*
X6360539Y-18250198D01*
X6360539Y-18250198D02*
X6370063Y-18240674D01*
X6370063Y-18240674D02*
X6389110Y-18231150D01*
X6389110Y-18231150D02*
X6417682Y-18231150D01*
X6417682Y-18231150D02*
X6436730Y-18240674D01*
X6436730Y-18240674D02*
X6446253Y-18250198D01*
X6446253Y-18250198D02*
X6455777Y-18269246D01*
X6455777Y-18269246D02*
X6455777Y-18326389D01*
X6455777Y-18326389D02*
X6446253Y-18345436D01*
X6446253Y-18345436D02*
X6436730Y-18354960D01*
X6436730Y-18354960D02*
X6417682Y-18364484D01*
X6417682Y-18364484D02*
X6389110Y-18364484D01*
X6570063Y-18364484D02*
X6551015Y-18354960D01*
X6551015Y-18354960D02*
X6541491Y-18335912D01*
X6541491Y-18335912D02*
X6541491Y-18164484D01*
X6722444Y-18354960D02*
X6703396Y-18364484D01*
X6703396Y-18364484D02*
X6665301Y-18364484D01*
X6665301Y-18364484D02*
X6646253Y-18354960D01*
X6646253Y-18354960D02*
X6636730Y-18335912D01*
X6636730Y-18335912D02*
X6636730Y-18259722D01*
X6636730Y-18259722D02*
X6646253Y-18240674D01*
X6646253Y-18240674D02*
X6665301Y-18231150D01*
X6665301Y-18231150D02*
X6703396Y-18231150D01*
X6703396Y-18231150D02*
X6722444Y-18240674D01*
X6722444Y-18240674D02*
X6731968Y-18259722D01*
X6731968Y-18259722D02*
X6731968Y-18278770D01*
X6731968Y-18278770D02*
X6636730Y-18297817D01*
X6808158Y-18354960D02*
X6827206Y-18364484D01*
X6827206Y-18364484D02*
X6865301Y-18364484D01*
X6865301Y-18364484D02*
X6884349Y-18354960D01*
X6884349Y-18354960D02*
X6893872Y-18335912D01*
X6893872Y-18335912D02*
X6893872Y-18326389D01*
X6893872Y-18326389D02*
X6884349Y-18307341D01*
X6884349Y-18307341D02*
X6865301Y-18297817D01*
X6865301Y-18297817D02*
X6836730Y-18297817D01*
X6836730Y-18297817D02*
X6817682Y-18288293D01*
X6817682Y-18288293D02*
X6808158Y-18269246D01*
X6808158Y-18269246D02*
X6808158Y-18259722D01*
X6808158Y-18259722D02*
X6817682Y-18240674D01*
X6817682Y-18240674D02*
X6836730Y-18231150D01*
X6836730Y-18231150D02*
X6865301Y-18231150D01*
X6865301Y-18231150D02*
X6884349Y-18240674D01*
X6960539Y-18440674D02*
X6970063Y-18431150D01*
X6970063Y-18431150D02*
X6989111Y-18402579D01*
X6989111Y-18402579D02*
X6998634Y-18383531D01*
X6998634Y-18383531D02*
X7008158Y-18354960D01*
X7008158Y-18354960D02*
X7017682Y-18307341D01*
X7017682Y-18307341D02*
X7017682Y-18269246D01*
X7017682Y-18269246D02*
X7008158Y-18221627D01*
X7008158Y-18221627D02*
X6998634Y-18193055D01*
X6998634Y-18193055D02*
X6989111Y-18174008D01*
X6989111Y-18174008D02*
X6970063Y-18145436D01*
X6970063Y-18145436D02*
X6960539Y-18135912D01*
D15*
X1984749Y-18561749D02*
X1984749Y-18512251D01*
X1935251Y-18512251D01*
X1935251Y-18561749D01*
X1984749Y-18561749D01*
D11*
X2293872Y-18428484D02*
X2312920Y-18428484D01*
X2312920Y-18428484D02*
X2331967Y-18438008D01*
X2331967Y-18438008D02*
X2341491Y-18447531D01*
X2341491Y-18447531D02*
X2351015Y-18466579D01*
X2351015Y-18466579D02*
X2360539Y-18504674D01*
X2360539Y-18504674D02*
X2360539Y-18552293D01*
X2360539Y-18552293D02*
X2351015Y-18590389D01*
X2351015Y-18590389D02*
X2341491Y-18609436D01*
X2341491Y-18609436D02*
X2331967Y-18618960D01*
X2331967Y-18618960D02*
X2312920Y-18628484D01*
X2312920Y-18628484D02*
X2293872Y-18628484D01*
X2293872Y-18628484D02*
X2274824Y-18618960D01*
X2274824Y-18618960D02*
X2265301Y-18609436D01*
X2265301Y-18609436D02*
X2255777Y-18590389D01*
X2255777Y-18590389D02*
X2246253Y-18552293D01*
X2246253Y-18552293D02*
X2246253Y-18504674D01*
X2246253Y-18504674D02*
X2255777Y-18466579D01*
X2255777Y-18466579D02*
X2265301Y-18447531D01*
X2265301Y-18447531D02*
X2274824Y-18438008D01*
X2274824Y-18438008D02*
X2293872Y-18428484D01*
X2446253Y-18609436D02*
X2455777Y-18618960D01*
X2455777Y-18618960D02*
X2446253Y-18628484D01*
X2446253Y-18628484D02*
X2436729Y-18618960D01*
X2436729Y-18618960D02*
X2446253Y-18609436D01*
X2446253Y-18609436D02*
X2446253Y-18628484D01*
X2522444Y-18428484D02*
X2655777Y-18428484D01*
X2655777Y-18428484D02*
X2570063Y-18628484D01*
X2770063Y-18428484D02*
X2789110Y-18428484D01*
X2789110Y-18428484D02*
X2808158Y-18438008D01*
X2808158Y-18438008D02*
X2817682Y-18447531D01*
X2817682Y-18447531D02*
X2827205Y-18466579D01*
X2827205Y-18466579D02*
X2836729Y-18504674D01*
X2836729Y-18504674D02*
X2836729Y-18552293D01*
X2836729Y-18552293D02*
X2827205Y-18590389D01*
X2827205Y-18590389D02*
X2817682Y-18609436D01*
X2817682Y-18609436D02*
X2808158Y-18618960D01*
X2808158Y-18618960D02*
X2789110Y-18628484D01*
X2789110Y-18628484D02*
X2770063Y-18628484D01*
X2770063Y-18628484D02*
X2751015Y-18618960D01*
X2751015Y-18618960D02*
X2741491Y-18609436D01*
X2741491Y-18609436D02*
X2731967Y-18590389D01*
X2731967Y-18590389D02*
X2722444Y-18552293D01*
X2722444Y-18552293D02*
X2722444Y-18504674D01*
X2722444Y-18504674D02*
X2731967Y-18466579D01*
X2731967Y-18466579D02*
X2741491Y-18447531D01*
X2741491Y-18447531D02*
X2751015Y-18438008D01*
X2751015Y-18438008D02*
X2770063Y-18428484D01*
X2960539Y-18428484D02*
X2979586Y-18428484D01*
X2979586Y-18428484D02*
X2998634Y-18438008D01*
X2998634Y-18438008D02*
X3008158Y-18447531D01*
X3008158Y-18447531D02*
X3017682Y-18466579D01*
X3017682Y-18466579D02*
X3027205Y-18504674D01*
X3027205Y-18504674D02*
X3027205Y-18552293D01*
X3027205Y-18552293D02*
X3017682Y-18590389D01*
X3017682Y-18590389D02*
X3008158Y-18609436D01*
X3008158Y-18609436D02*
X2998634Y-18618960D01*
X2998634Y-18618960D02*
X2979586Y-18628484D01*
X2979586Y-18628484D02*
X2960539Y-18628484D01*
X2960539Y-18628484D02*
X2941491Y-18618960D01*
X2941491Y-18618960D02*
X2931967Y-18609436D01*
X2931967Y-18609436D02*
X2922443Y-18590389D01*
X2922443Y-18590389D02*
X2912920Y-18552293D01*
X2912920Y-18552293D02*
X2912920Y-18504674D01*
X2912920Y-18504674D02*
X2922443Y-18466579D01*
X2922443Y-18466579D02*
X2931967Y-18447531D01*
X2931967Y-18447531D02*
X2941491Y-18438008D01*
X2941491Y-18438008D02*
X2960539Y-18428484D01*
X3112920Y-18628484D02*
X3112920Y-18495150D01*
X3112920Y-18514198D02*
X3122443Y-18504674D01*
X3122443Y-18504674D02*
X3141491Y-18495150D01*
X3141491Y-18495150D02*
X3170063Y-18495150D01*
X3170063Y-18495150D02*
X3189110Y-18504674D01*
X3189110Y-18504674D02*
X3198634Y-18523722D01*
X3198634Y-18523722D02*
X3198634Y-18628484D01*
X3198634Y-18523722D02*
X3208158Y-18504674D01*
X3208158Y-18504674D02*
X3227205Y-18495150D01*
X3227205Y-18495150D02*
X3255777Y-18495150D01*
X3255777Y-18495150D02*
X3274824Y-18504674D01*
X3274824Y-18504674D02*
X3284348Y-18523722D01*
X3284348Y-18523722D02*
X3284348Y-18628484D01*
X3379586Y-18628484D02*
X3379586Y-18495150D01*
X3379586Y-18514198D02*
X3389110Y-18504674D01*
X3389110Y-18504674D02*
X3408158Y-18495150D01*
X3408158Y-18495150D02*
X3436729Y-18495150D01*
X3436729Y-18495150D02*
X3455777Y-18504674D01*
X3455777Y-18504674D02*
X3465301Y-18523722D01*
X3465301Y-18523722D02*
X3465301Y-18628484D01*
X3465301Y-18523722D02*
X3474824Y-18504674D01*
X3474824Y-18504674D02*
X3493872Y-18495150D01*
X3493872Y-18495150D02*
X3522443Y-18495150D01*
X3522443Y-18495150D02*
X3541491Y-18504674D01*
X3541491Y-18504674D02*
X3551015Y-18523722D01*
X3551015Y-18523722D02*
X3551015Y-18628484D01*
X3941491Y-18418960D02*
X3770063Y-18676103D01*
X4198634Y-18428484D02*
X4217682Y-18428484D01*
X4217682Y-18428484D02*
X4236729Y-18438008D01*
X4236729Y-18438008D02*
X4246253Y-18447531D01*
X4246253Y-18447531D02*
X4255777Y-18466579D01*
X4255777Y-18466579D02*
X4265301Y-18504674D01*
X4265301Y-18504674D02*
X4265301Y-18552293D01*
X4265301Y-18552293D02*
X4255777Y-18590389D01*
X4255777Y-18590389D02*
X4246253Y-18609436D01*
X4246253Y-18609436D02*
X4236729Y-18618960D01*
X4236729Y-18618960D02*
X4217682Y-18628484D01*
X4217682Y-18628484D02*
X4198634Y-18628484D01*
X4198634Y-18628484D02*
X4179586Y-18618960D01*
X4179586Y-18618960D02*
X4170063Y-18609436D01*
X4170063Y-18609436D02*
X4160539Y-18590389D01*
X4160539Y-18590389D02*
X4151015Y-18552293D01*
X4151015Y-18552293D02*
X4151015Y-18504674D01*
X4151015Y-18504674D02*
X4160539Y-18466579D01*
X4160539Y-18466579D02*
X4170063Y-18447531D01*
X4170063Y-18447531D02*
X4179586Y-18438008D01*
X4179586Y-18438008D02*
X4198634Y-18428484D01*
X4351015Y-18609436D02*
X4360539Y-18618960D01*
X4360539Y-18618960D02*
X4351015Y-18628484D01*
X4351015Y-18628484D02*
X4341491Y-18618960D01*
X4341491Y-18618960D02*
X4351015Y-18609436D01*
X4351015Y-18609436D02*
X4351015Y-18628484D01*
X4484348Y-18428484D02*
X4503396Y-18428484D01*
X4503396Y-18428484D02*
X4522444Y-18438008D01*
X4522444Y-18438008D02*
X4531968Y-18447531D01*
X4531968Y-18447531D02*
X4541491Y-18466579D01*
X4541491Y-18466579D02*
X4551015Y-18504674D01*
X4551015Y-18504674D02*
X4551015Y-18552293D01*
X4551015Y-18552293D02*
X4541491Y-18590389D01*
X4541491Y-18590389D02*
X4531968Y-18609436D01*
X4531968Y-18609436D02*
X4522444Y-18618960D01*
X4522444Y-18618960D02*
X4503396Y-18628484D01*
X4503396Y-18628484D02*
X4484348Y-18628484D01*
X4484348Y-18628484D02*
X4465301Y-18618960D01*
X4465301Y-18618960D02*
X4455777Y-18609436D01*
X4455777Y-18609436D02*
X4446253Y-18590389D01*
X4446253Y-18590389D02*
X4436729Y-18552293D01*
X4436729Y-18552293D02*
X4436729Y-18504674D01*
X4436729Y-18504674D02*
X4446253Y-18466579D01*
X4446253Y-18466579D02*
X4455777Y-18447531D01*
X4455777Y-18447531D02*
X4465301Y-18438008D01*
X4465301Y-18438008D02*
X4484348Y-18428484D01*
X4627206Y-18447531D02*
X4636729Y-18438008D01*
X4636729Y-18438008D02*
X4655777Y-18428484D01*
X4655777Y-18428484D02*
X4703396Y-18428484D01*
X4703396Y-18428484D02*
X4722444Y-18438008D01*
X4722444Y-18438008D02*
X4731968Y-18447531D01*
X4731968Y-18447531D02*
X4741491Y-18466579D01*
X4741491Y-18466579D02*
X4741491Y-18485627D01*
X4741491Y-18485627D02*
X4731968Y-18514198D01*
X4731968Y-18514198D02*
X4617682Y-18628484D01*
X4617682Y-18628484D02*
X4741491Y-18628484D01*
X4808158Y-18428484D02*
X4941491Y-18428484D01*
X4941491Y-18428484D02*
X4855777Y-18628484D01*
X5103396Y-18428484D02*
X5065301Y-18428484D01*
X5065301Y-18428484D02*
X5046253Y-18438008D01*
X5046253Y-18438008D02*
X5036729Y-18447531D01*
X5036729Y-18447531D02*
X5017682Y-18476103D01*
X5017682Y-18476103D02*
X5008158Y-18514198D01*
X5008158Y-18514198D02*
X5008158Y-18590389D01*
X5008158Y-18590389D02*
X5017682Y-18609436D01*
X5017682Y-18609436D02*
X5027206Y-18618960D01*
X5027206Y-18618960D02*
X5046253Y-18628484D01*
X5046253Y-18628484D02*
X5084349Y-18628484D01*
X5084349Y-18628484D02*
X5103396Y-18618960D01*
X5103396Y-18618960D02*
X5112920Y-18609436D01*
X5112920Y-18609436D02*
X5122444Y-18590389D01*
X5122444Y-18590389D02*
X5122444Y-18542770D01*
X5122444Y-18542770D02*
X5112920Y-18523722D01*
X5112920Y-18523722D02*
X5103396Y-18514198D01*
X5103396Y-18514198D02*
X5084349Y-18504674D01*
X5084349Y-18504674D02*
X5046253Y-18504674D01*
X5046253Y-18504674D02*
X5027206Y-18514198D01*
X5027206Y-18514198D02*
X5017682Y-18523722D01*
X5017682Y-18523722D02*
X5008158Y-18542770D01*
X5198634Y-18428484D02*
X5198634Y-18466579D01*
X5274825Y-18428484D02*
X5274825Y-18466579D01*
X5570063Y-18704674D02*
X5560539Y-18695150D01*
X5560539Y-18695150D02*
X5541491Y-18666579D01*
X5541491Y-18666579D02*
X5531968Y-18647531D01*
X5531968Y-18647531D02*
X5522444Y-18618960D01*
X5522444Y-18618960D02*
X5512920Y-18571341D01*
X5512920Y-18571341D02*
X5512920Y-18533246D01*
X5512920Y-18533246D02*
X5522444Y-18485627D01*
X5522444Y-18485627D02*
X5531968Y-18457055D01*
X5531968Y-18457055D02*
X5541491Y-18438008D01*
X5541491Y-18438008D02*
X5560539Y-18409436D01*
X5560539Y-18409436D02*
X5570063Y-18399912D01*
X5731968Y-18428484D02*
X5693872Y-18428484D01*
X5693872Y-18428484D02*
X5674825Y-18438008D01*
X5674825Y-18438008D02*
X5665301Y-18447531D01*
X5665301Y-18447531D02*
X5646253Y-18476103D01*
X5646253Y-18476103D02*
X5636729Y-18514198D01*
X5636729Y-18514198D02*
X5636729Y-18590389D01*
X5636729Y-18590389D02*
X5646253Y-18609436D01*
X5646253Y-18609436D02*
X5655777Y-18618960D01*
X5655777Y-18618960D02*
X5674825Y-18628484D01*
X5674825Y-18628484D02*
X5712920Y-18628484D01*
X5712920Y-18628484D02*
X5731968Y-18618960D01*
X5731968Y-18618960D02*
X5741491Y-18609436D01*
X5741491Y-18609436D02*
X5751015Y-18590389D01*
X5751015Y-18590389D02*
X5751015Y-18542770D01*
X5751015Y-18542770D02*
X5741491Y-18523722D01*
X5741491Y-18523722D02*
X5731968Y-18514198D01*
X5731968Y-18514198D02*
X5712920Y-18504674D01*
X5712920Y-18504674D02*
X5674825Y-18504674D01*
X5674825Y-18504674D02*
X5655777Y-18514198D01*
X5655777Y-18514198D02*
X5646253Y-18523722D01*
X5646253Y-18523722D02*
X5636729Y-18542770D01*
X5989110Y-18628484D02*
X5989110Y-18428484D01*
X6074825Y-18628484D02*
X6074825Y-18523722D01*
X6074825Y-18523722D02*
X6065301Y-18504674D01*
X6065301Y-18504674D02*
X6046253Y-18495150D01*
X6046253Y-18495150D02*
X6017682Y-18495150D01*
X6017682Y-18495150D02*
X5998634Y-18504674D01*
X5998634Y-18504674D02*
X5989110Y-18514198D01*
X6198634Y-18628484D02*
X6179587Y-18618960D01*
X6179587Y-18618960D02*
X6170063Y-18609436D01*
X6170063Y-18609436D02*
X6160539Y-18590389D01*
X6160539Y-18590389D02*
X6160539Y-18533246D01*
X6160539Y-18533246D02*
X6170063Y-18514198D01*
X6170063Y-18514198D02*
X6179587Y-18504674D01*
X6179587Y-18504674D02*
X6198634Y-18495150D01*
X6198634Y-18495150D02*
X6227206Y-18495150D01*
X6227206Y-18495150D02*
X6246253Y-18504674D01*
X6246253Y-18504674D02*
X6255777Y-18514198D01*
X6255777Y-18514198D02*
X6265301Y-18533246D01*
X6265301Y-18533246D02*
X6265301Y-18590389D01*
X6265301Y-18590389D02*
X6255777Y-18609436D01*
X6255777Y-18609436D02*
X6246253Y-18618960D01*
X6246253Y-18618960D02*
X6227206Y-18628484D01*
X6227206Y-18628484D02*
X6198634Y-18628484D01*
X6379587Y-18628484D02*
X6360539Y-18618960D01*
X6360539Y-18618960D02*
X6351015Y-18599912D01*
X6351015Y-18599912D02*
X6351015Y-18428484D01*
X6531968Y-18618960D02*
X6512920Y-18628484D01*
X6512920Y-18628484D02*
X6474825Y-18628484D01*
X6474825Y-18628484D02*
X6455777Y-18618960D01*
X6455777Y-18618960D02*
X6446253Y-18599912D01*
X6446253Y-18599912D02*
X6446253Y-18523722D01*
X6446253Y-18523722D02*
X6455777Y-18504674D01*
X6455777Y-18504674D02*
X6474825Y-18495150D01*
X6474825Y-18495150D02*
X6512920Y-18495150D01*
X6512920Y-18495150D02*
X6531968Y-18504674D01*
X6531968Y-18504674D02*
X6541491Y-18523722D01*
X6541491Y-18523722D02*
X6541491Y-18542770D01*
X6541491Y-18542770D02*
X6446253Y-18561817D01*
X6617682Y-18618960D02*
X6636730Y-18628484D01*
X6636730Y-18628484D02*
X6674825Y-18628484D01*
X6674825Y-18628484D02*
X6693872Y-18618960D01*
X6693872Y-18618960D02*
X6703396Y-18599912D01*
X6703396Y-18599912D02*
X6703396Y-18590389D01*
X6703396Y-18590389D02*
X6693872Y-18571341D01*
X6693872Y-18571341D02*
X6674825Y-18561817D01*
X6674825Y-18561817D02*
X6646253Y-18561817D01*
X6646253Y-18561817D02*
X6627206Y-18552293D01*
X6627206Y-18552293D02*
X6617682Y-18533246D01*
X6617682Y-18533246D02*
X6617682Y-18523722D01*
X6617682Y-18523722D02*
X6627206Y-18504674D01*
X6627206Y-18504674D02*
X6646253Y-18495150D01*
X6646253Y-18495150D02*
X6674825Y-18495150D01*
X6674825Y-18495150D02*
X6693872Y-18504674D01*
X6770063Y-18704674D02*
X6779587Y-18695150D01*
X6779587Y-18695150D02*
X6798634Y-18666579D01*
X6798634Y-18666579D02*
X6808158Y-18647531D01*
X6808158Y-18647531D02*
X6817682Y-18618960D01*
X6817682Y-18618960D02*
X6827206Y-18571341D01*
X6827206Y-18571341D02*
X6827206Y-18533246D01*
X6827206Y-18533246D02*
X6817682Y-18485627D01*
X6817682Y-18485627D02*
X6808158Y-18457055D01*
X6808158Y-18457055D02*
X6798634Y-18438008D01*
X6798634Y-18438008D02*
X6779587Y-18409436D01*
X6779587Y-18409436D02*
X6770063Y-18399912D01*
D16*
X1959500Y-18836500D02*
X1995000Y-18801000D01*
X1959500Y-18765500D01*
X1924000Y-18801000D01*
X1959500Y-18836500D01*
D11*
X2293872Y-18692484D02*
X2312920Y-18692484D01*
X2312920Y-18692484D02*
X2331967Y-18702008D01*
X2331967Y-18702008D02*
X2341491Y-18711531D01*
X2341491Y-18711531D02*
X2351015Y-18730579D01*
X2351015Y-18730579D02*
X2360539Y-18768674D01*
X2360539Y-18768674D02*
X2360539Y-18816293D01*
X2360539Y-18816293D02*
X2351015Y-18854389D01*
X2351015Y-18854389D02*
X2341491Y-18873436D01*
X2341491Y-18873436D02*
X2331967Y-18882960D01*
X2331967Y-18882960D02*
X2312920Y-18892484D01*
X2312920Y-18892484D02*
X2293872Y-18892484D01*
X2293872Y-18892484D02*
X2274824Y-18882960D01*
X2274824Y-18882960D02*
X2265301Y-18873436D01*
X2265301Y-18873436D02*
X2255777Y-18854389D01*
X2255777Y-18854389D02*
X2246253Y-18816293D01*
X2246253Y-18816293D02*
X2246253Y-18768674D01*
X2246253Y-18768674D02*
X2255777Y-18730579D01*
X2255777Y-18730579D02*
X2265301Y-18711531D01*
X2265301Y-18711531D02*
X2274824Y-18702008D01*
X2274824Y-18702008D02*
X2293872Y-18692484D01*
X2446253Y-18873436D02*
X2455777Y-18882960D01*
X2455777Y-18882960D02*
X2446253Y-18892484D01*
X2446253Y-18892484D02*
X2436729Y-18882960D01*
X2436729Y-18882960D02*
X2446253Y-18873436D01*
X2446253Y-18873436D02*
X2446253Y-18892484D01*
X2522444Y-18692484D02*
X2655777Y-18692484D01*
X2655777Y-18692484D02*
X2570063Y-18892484D01*
X2836729Y-18892484D02*
X2722444Y-18892484D01*
X2779586Y-18892484D02*
X2779586Y-18692484D01*
X2779586Y-18692484D02*
X2760539Y-18721055D01*
X2760539Y-18721055D02*
X2741491Y-18740103D01*
X2741491Y-18740103D02*
X2722444Y-18749627D01*
X2960539Y-18692484D02*
X2979586Y-18692484D01*
X2979586Y-18692484D02*
X2998634Y-18702008D01*
X2998634Y-18702008D02*
X3008158Y-18711531D01*
X3008158Y-18711531D02*
X3017682Y-18730579D01*
X3017682Y-18730579D02*
X3027205Y-18768674D01*
X3027205Y-18768674D02*
X3027205Y-18816293D01*
X3027205Y-18816293D02*
X3017682Y-18854389D01*
X3017682Y-18854389D02*
X3008158Y-18873436D01*
X3008158Y-18873436D02*
X2998634Y-18882960D01*
X2998634Y-18882960D02*
X2979586Y-18892484D01*
X2979586Y-18892484D02*
X2960539Y-18892484D01*
X2960539Y-18892484D02*
X2941491Y-18882960D01*
X2941491Y-18882960D02*
X2931967Y-18873436D01*
X2931967Y-18873436D02*
X2922443Y-18854389D01*
X2922443Y-18854389D02*
X2912920Y-18816293D01*
X2912920Y-18816293D02*
X2912920Y-18768674D01*
X2912920Y-18768674D02*
X2922443Y-18730579D01*
X2922443Y-18730579D02*
X2931967Y-18711531D01*
X2931967Y-18711531D02*
X2941491Y-18702008D01*
X2941491Y-18702008D02*
X2960539Y-18692484D01*
X3112920Y-18892484D02*
X3112920Y-18759150D01*
X3112920Y-18778198D02*
X3122443Y-18768674D01*
X3122443Y-18768674D02*
X3141491Y-18759150D01*
X3141491Y-18759150D02*
X3170063Y-18759150D01*
X3170063Y-18759150D02*
X3189110Y-18768674D01*
X3189110Y-18768674D02*
X3198634Y-18787722D01*
X3198634Y-18787722D02*
X3198634Y-18892484D01*
X3198634Y-18787722D02*
X3208158Y-18768674D01*
X3208158Y-18768674D02*
X3227205Y-18759150D01*
X3227205Y-18759150D02*
X3255777Y-18759150D01*
X3255777Y-18759150D02*
X3274824Y-18768674D01*
X3274824Y-18768674D02*
X3284348Y-18787722D01*
X3284348Y-18787722D02*
X3284348Y-18892484D01*
X3379586Y-18892484D02*
X3379586Y-18759150D01*
X3379586Y-18778198D02*
X3389110Y-18768674D01*
X3389110Y-18768674D02*
X3408158Y-18759150D01*
X3408158Y-18759150D02*
X3436729Y-18759150D01*
X3436729Y-18759150D02*
X3455777Y-18768674D01*
X3455777Y-18768674D02*
X3465301Y-18787722D01*
X3465301Y-18787722D02*
X3465301Y-18892484D01*
X3465301Y-18787722D02*
X3474824Y-18768674D01*
X3474824Y-18768674D02*
X3493872Y-18759150D01*
X3493872Y-18759150D02*
X3522443Y-18759150D01*
X3522443Y-18759150D02*
X3541491Y-18768674D01*
X3541491Y-18768674D02*
X3551015Y-18787722D01*
X3551015Y-18787722D02*
X3551015Y-18892484D01*
X3941491Y-18682960D02*
X3770063Y-18940103D01*
X4198634Y-18692484D02*
X4217682Y-18692484D01*
X4217682Y-18692484D02*
X4236729Y-18702008D01*
X4236729Y-18702008D02*
X4246253Y-18711531D01*
X4246253Y-18711531D02*
X4255777Y-18730579D01*
X4255777Y-18730579D02*
X4265301Y-18768674D01*
X4265301Y-18768674D02*
X4265301Y-18816293D01*
X4265301Y-18816293D02*
X4255777Y-18854389D01*
X4255777Y-18854389D02*
X4246253Y-18873436D01*
X4246253Y-18873436D02*
X4236729Y-18882960D01*
X4236729Y-18882960D02*
X4217682Y-18892484D01*
X4217682Y-18892484D02*
X4198634Y-18892484D01*
X4198634Y-18892484D02*
X4179586Y-18882960D01*
X4179586Y-18882960D02*
X4170063Y-18873436D01*
X4170063Y-18873436D02*
X4160539Y-18854389D01*
X4160539Y-18854389D02*
X4151015Y-18816293D01*
X4151015Y-18816293D02*
X4151015Y-18768674D01*
X4151015Y-18768674D02*
X4160539Y-18730579D01*
X4160539Y-18730579D02*
X4170063Y-18711531D01*
X4170063Y-18711531D02*
X4179586Y-18702008D01*
X4179586Y-18702008D02*
X4198634Y-18692484D01*
X4351015Y-18873436D02*
X4360539Y-18882960D01*
X4360539Y-18882960D02*
X4351015Y-18892484D01*
X4351015Y-18892484D02*
X4341491Y-18882960D01*
X4341491Y-18882960D02*
X4351015Y-18873436D01*
X4351015Y-18873436D02*
X4351015Y-18892484D01*
X4484348Y-18692484D02*
X4503396Y-18692484D01*
X4503396Y-18692484D02*
X4522444Y-18702008D01*
X4522444Y-18702008D02*
X4531968Y-18711531D01*
X4531968Y-18711531D02*
X4541491Y-18730579D01*
X4541491Y-18730579D02*
X4551015Y-18768674D01*
X4551015Y-18768674D02*
X4551015Y-18816293D01*
X4551015Y-18816293D02*
X4541491Y-18854389D01*
X4541491Y-18854389D02*
X4531968Y-18873436D01*
X4531968Y-18873436D02*
X4522444Y-18882960D01*
X4522444Y-18882960D02*
X4503396Y-18892484D01*
X4503396Y-18892484D02*
X4484348Y-18892484D01*
X4484348Y-18892484D02*
X4465301Y-18882960D01*
X4465301Y-18882960D02*
X4455777Y-18873436D01*
X4455777Y-18873436D02*
X4446253Y-18854389D01*
X4446253Y-18854389D02*
X4436729Y-18816293D01*
X4436729Y-18816293D02*
X4436729Y-18768674D01*
X4436729Y-18768674D02*
X4446253Y-18730579D01*
X4446253Y-18730579D02*
X4455777Y-18711531D01*
X4455777Y-18711531D02*
X4465301Y-18702008D01*
X4465301Y-18702008D02*
X4484348Y-18692484D01*
X4627206Y-18711531D02*
X4636729Y-18702008D01*
X4636729Y-18702008D02*
X4655777Y-18692484D01*
X4655777Y-18692484D02*
X4703396Y-18692484D01*
X4703396Y-18692484D02*
X4722444Y-18702008D01*
X4722444Y-18702008D02*
X4731968Y-18711531D01*
X4731968Y-18711531D02*
X4741491Y-18730579D01*
X4741491Y-18730579D02*
X4741491Y-18749627D01*
X4741491Y-18749627D02*
X4731968Y-18778198D01*
X4731968Y-18778198D02*
X4617682Y-18892484D01*
X4617682Y-18892484D02*
X4741491Y-18892484D01*
X4855777Y-18778198D02*
X4836729Y-18768674D01*
X4836729Y-18768674D02*
X4827206Y-18759150D01*
X4827206Y-18759150D02*
X4817682Y-18740103D01*
X4817682Y-18740103D02*
X4817682Y-18730579D01*
X4817682Y-18730579D02*
X4827206Y-18711531D01*
X4827206Y-18711531D02*
X4836729Y-18702008D01*
X4836729Y-18702008D02*
X4855777Y-18692484D01*
X4855777Y-18692484D02*
X4893872Y-18692484D01*
X4893872Y-18692484D02*
X4912920Y-18702008D01*
X4912920Y-18702008D02*
X4922444Y-18711531D01*
X4922444Y-18711531D02*
X4931968Y-18730579D01*
X4931968Y-18730579D02*
X4931968Y-18740103D01*
X4931968Y-18740103D02*
X4922444Y-18759150D01*
X4922444Y-18759150D02*
X4912920Y-18768674D01*
X4912920Y-18768674D02*
X4893872Y-18778198D01*
X4893872Y-18778198D02*
X4855777Y-18778198D01*
X4855777Y-18778198D02*
X4836729Y-18787722D01*
X4836729Y-18787722D02*
X4827206Y-18797246D01*
X4827206Y-18797246D02*
X4817682Y-18816293D01*
X4817682Y-18816293D02*
X4817682Y-18854389D01*
X4817682Y-18854389D02*
X4827206Y-18873436D01*
X4827206Y-18873436D02*
X4836729Y-18882960D01*
X4836729Y-18882960D02*
X4855777Y-18892484D01*
X4855777Y-18892484D02*
X4893872Y-18892484D01*
X4893872Y-18892484D02*
X4912920Y-18882960D01*
X4912920Y-18882960D02*
X4922444Y-18873436D01*
X4922444Y-18873436D02*
X4931968Y-18854389D01*
X4931968Y-18854389D02*
X4931968Y-18816293D01*
X4931968Y-18816293D02*
X4922444Y-18797246D01*
X4922444Y-18797246D02*
X4912920Y-18787722D01*
X4912920Y-18787722D02*
X4893872Y-18778198D01*
X5055777Y-18692484D02*
X5074825Y-18692484D01*
X5074825Y-18692484D02*
X5093872Y-18702008D01*
X5093872Y-18702008D02*
X5103396Y-18711531D01*
X5103396Y-18711531D02*
X5112920Y-18730579D01*
X5112920Y-18730579D02*
X5122444Y-18768674D01*
X5122444Y-18768674D02*
X5122444Y-18816293D01*
X5122444Y-18816293D02*
X5112920Y-18854389D01*
X5112920Y-18854389D02*
X5103396Y-18873436D01*
X5103396Y-18873436D02*
X5093872Y-18882960D01*
X5093872Y-18882960D02*
X5074825Y-18892484D01*
X5074825Y-18892484D02*
X5055777Y-18892484D01*
X5055777Y-18892484D02*
X5036729Y-18882960D01*
X5036729Y-18882960D02*
X5027206Y-18873436D01*
X5027206Y-18873436D02*
X5017682Y-18854389D01*
X5017682Y-18854389D02*
X5008158Y-18816293D01*
X5008158Y-18816293D02*
X5008158Y-18768674D01*
X5008158Y-18768674D02*
X5017682Y-18730579D01*
X5017682Y-18730579D02*
X5027206Y-18711531D01*
X5027206Y-18711531D02*
X5036729Y-18702008D01*
X5036729Y-18702008D02*
X5055777Y-18692484D01*
X5198634Y-18692484D02*
X5198634Y-18730579D01*
X5274825Y-18692484D02*
X5274825Y-18730579D01*
X5570063Y-18968674D02*
X5560539Y-18959150D01*
X5560539Y-18959150D02*
X5541491Y-18930579D01*
X5541491Y-18930579D02*
X5531968Y-18911531D01*
X5531968Y-18911531D02*
X5522444Y-18882960D01*
X5522444Y-18882960D02*
X5512920Y-18835341D01*
X5512920Y-18835341D02*
X5512920Y-18797246D01*
X5512920Y-18797246D02*
X5522444Y-18749627D01*
X5522444Y-18749627D02*
X5531968Y-18721055D01*
X5531968Y-18721055D02*
X5541491Y-18702008D01*
X5541491Y-18702008D02*
X5560539Y-18673436D01*
X5560539Y-18673436D02*
X5570063Y-18663912D01*
X5627206Y-18692484D02*
X5751015Y-18692484D01*
X5751015Y-18692484D02*
X5684348Y-18768674D01*
X5684348Y-18768674D02*
X5712920Y-18768674D01*
X5712920Y-18768674D02*
X5731968Y-18778198D01*
X5731968Y-18778198D02*
X5741491Y-18787722D01*
X5741491Y-18787722D02*
X5751015Y-18806770D01*
X5751015Y-18806770D02*
X5751015Y-18854389D01*
X5751015Y-18854389D02*
X5741491Y-18873436D01*
X5741491Y-18873436D02*
X5731968Y-18882960D01*
X5731968Y-18882960D02*
X5712920Y-18892484D01*
X5712920Y-18892484D02*
X5655777Y-18892484D01*
X5655777Y-18892484D02*
X5636729Y-18882960D01*
X5636729Y-18882960D02*
X5627206Y-18873436D01*
X5989110Y-18892484D02*
X5989110Y-18692484D01*
X6074825Y-18892484D02*
X6074825Y-18787722D01*
X6074825Y-18787722D02*
X6065301Y-18768674D01*
X6065301Y-18768674D02*
X6046253Y-18759150D01*
X6046253Y-18759150D02*
X6017682Y-18759150D01*
X6017682Y-18759150D02*
X5998634Y-18768674D01*
X5998634Y-18768674D02*
X5989110Y-18778198D01*
X6198634Y-18892484D02*
X6179587Y-18882960D01*
X6179587Y-18882960D02*
X6170063Y-18873436D01*
X6170063Y-18873436D02*
X6160539Y-18854389D01*
X6160539Y-18854389D02*
X6160539Y-18797246D01*
X6160539Y-18797246D02*
X6170063Y-18778198D01*
X6170063Y-18778198D02*
X6179587Y-18768674D01*
X6179587Y-18768674D02*
X6198634Y-18759150D01*
X6198634Y-18759150D02*
X6227206Y-18759150D01*
X6227206Y-18759150D02*
X6246253Y-18768674D01*
X6246253Y-18768674D02*
X6255777Y-18778198D01*
X6255777Y-18778198D02*
X6265301Y-18797246D01*
X6265301Y-18797246D02*
X6265301Y-18854389D01*
X6265301Y-18854389D02*
X6255777Y-18873436D01*
X6255777Y-18873436D02*
X6246253Y-18882960D01*
X6246253Y-18882960D02*
X6227206Y-18892484D01*
X6227206Y-18892484D02*
X6198634Y-18892484D01*
X6379587Y-18892484D02*
X6360539Y-18882960D01*
X6360539Y-18882960D02*
X6351015Y-18863912D01*
X6351015Y-18863912D02*
X6351015Y-18692484D01*
X6531968Y-18882960D02*
X6512920Y-18892484D01*
X6512920Y-18892484D02*
X6474825Y-18892484D01*
X6474825Y-18892484D02*
X6455777Y-18882960D01*
X6455777Y-18882960D02*
X6446253Y-18863912D01*
X6446253Y-18863912D02*
X6446253Y-18787722D01*
X6446253Y-18787722D02*
X6455777Y-18768674D01*
X6455777Y-18768674D02*
X6474825Y-18759150D01*
X6474825Y-18759150D02*
X6512920Y-18759150D01*
X6512920Y-18759150D02*
X6531968Y-18768674D01*
X6531968Y-18768674D02*
X6541491Y-18787722D01*
X6541491Y-18787722D02*
X6541491Y-18806770D01*
X6541491Y-18806770D02*
X6446253Y-18825817D01*
X6617682Y-18882960D02*
X6636730Y-18892484D01*
X6636730Y-18892484D02*
X6674825Y-18892484D01*
X6674825Y-18892484D02*
X6693872Y-18882960D01*
X6693872Y-18882960D02*
X6703396Y-18863912D01*
X6703396Y-18863912D02*
X6703396Y-18854389D01*
X6703396Y-18854389D02*
X6693872Y-18835341D01*
X6693872Y-18835341D02*
X6674825Y-18825817D01*
X6674825Y-18825817D02*
X6646253Y-18825817D01*
X6646253Y-18825817D02*
X6627206Y-18816293D01*
X6627206Y-18816293D02*
X6617682Y-18797246D01*
X6617682Y-18797246D02*
X6617682Y-18787722D01*
X6617682Y-18787722D02*
X6627206Y-18768674D01*
X6627206Y-18768674D02*
X6646253Y-18759150D01*
X6646253Y-18759150D02*
X6674825Y-18759150D01*
X6674825Y-18759150D02*
X6693872Y-18768674D01*
X6770063Y-18968674D02*
X6779587Y-18959150D01*
X6779587Y-18959150D02*
X6798634Y-18930579D01*
X6798634Y-18930579D02*
X6808158Y-18911531D01*
X6808158Y-18911531D02*
X6817682Y-18882960D01*
X6817682Y-18882960D02*
X6827206Y-18835341D01*
X6827206Y-18835341D02*
X6827206Y-18797246D01*
X6827206Y-18797246D02*
X6817682Y-18749627D01*
X6817682Y-18749627D02*
X6808158Y-18721055D01*
X6808158Y-18721055D02*
X6798634Y-18702008D01*
X6798634Y-18702008D02*
X6779587Y-18673436D01*
X6779587Y-18673436D02*
X6770063Y-18663912D01*
D17*
X1905000Y-19020000D02*
X1995000Y-19110000D01*
X1995000Y-19020000D02*
X1905000Y-19110000D01*
X1995000Y-19065000D02*
G75*
G03*
X1995000Y-19065000I-45000J0D01*
G01*
D11*
X2293872Y-18956484D02*
X2312920Y-18956484D01*
X2312920Y-18956484D02*
X2331967Y-18966008D01*
X2331967Y-18966008D02*
X2341491Y-18975531D01*
X2341491Y-18975531D02*
X2351015Y-18994579D01*
X2351015Y-18994579D02*
X2360539Y-19032674D01*
X2360539Y-19032674D02*
X2360539Y-19080293D01*
X2360539Y-19080293D02*
X2351015Y-19118389D01*
X2351015Y-19118389D02*
X2341491Y-19137436D01*
X2341491Y-19137436D02*
X2331967Y-19146960D01*
X2331967Y-19146960D02*
X2312920Y-19156484D01*
X2312920Y-19156484D02*
X2293872Y-19156484D01*
X2293872Y-19156484D02*
X2274824Y-19146960D01*
X2274824Y-19146960D02*
X2265301Y-19137436D01*
X2265301Y-19137436D02*
X2255777Y-19118389D01*
X2255777Y-19118389D02*
X2246253Y-19080293D01*
X2246253Y-19080293D02*
X2246253Y-19032674D01*
X2246253Y-19032674D02*
X2255777Y-18994579D01*
X2255777Y-18994579D02*
X2265301Y-18975531D01*
X2265301Y-18975531D02*
X2274824Y-18966008D01*
X2274824Y-18966008D02*
X2293872Y-18956484D01*
X2446253Y-19137436D02*
X2455777Y-19146960D01*
X2455777Y-19146960D02*
X2446253Y-19156484D01*
X2446253Y-19156484D02*
X2436729Y-19146960D01*
X2436729Y-19146960D02*
X2446253Y-19137436D01*
X2446253Y-19137436D02*
X2446253Y-19156484D01*
X2551015Y-19156484D02*
X2589110Y-19156484D01*
X2589110Y-19156484D02*
X2608158Y-19146960D01*
X2608158Y-19146960D02*
X2617682Y-19137436D01*
X2617682Y-19137436D02*
X2636729Y-19108865D01*
X2636729Y-19108865D02*
X2646253Y-19070770D01*
X2646253Y-19070770D02*
X2646253Y-18994579D01*
X2646253Y-18994579D02*
X2636729Y-18975531D01*
X2636729Y-18975531D02*
X2627205Y-18966008D01*
X2627205Y-18966008D02*
X2608158Y-18956484D01*
X2608158Y-18956484D02*
X2570063Y-18956484D01*
X2570063Y-18956484D02*
X2551015Y-18966008D01*
X2551015Y-18966008D02*
X2541491Y-18975531D01*
X2541491Y-18975531D02*
X2531967Y-18994579D01*
X2531967Y-18994579D02*
X2531967Y-19042198D01*
X2531967Y-19042198D02*
X2541491Y-19061246D01*
X2541491Y-19061246D02*
X2551015Y-19070770D01*
X2551015Y-19070770D02*
X2570063Y-19080293D01*
X2570063Y-19080293D02*
X2608158Y-19080293D01*
X2608158Y-19080293D02*
X2627205Y-19070770D01*
X2627205Y-19070770D02*
X2636729Y-19061246D01*
X2636729Y-19061246D02*
X2646253Y-19042198D01*
X2770063Y-18956484D02*
X2789110Y-18956484D01*
X2789110Y-18956484D02*
X2808158Y-18966008D01*
X2808158Y-18966008D02*
X2817682Y-18975531D01*
X2817682Y-18975531D02*
X2827205Y-18994579D01*
X2827205Y-18994579D02*
X2836729Y-19032674D01*
X2836729Y-19032674D02*
X2836729Y-19080293D01*
X2836729Y-19080293D02*
X2827205Y-19118389D01*
X2827205Y-19118389D02*
X2817682Y-19137436D01*
X2817682Y-19137436D02*
X2808158Y-19146960D01*
X2808158Y-19146960D02*
X2789110Y-19156484D01*
X2789110Y-19156484D02*
X2770063Y-19156484D01*
X2770063Y-19156484D02*
X2751015Y-19146960D01*
X2751015Y-19146960D02*
X2741491Y-19137436D01*
X2741491Y-19137436D02*
X2731967Y-19118389D01*
X2731967Y-19118389D02*
X2722444Y-19080293D01*
X2722444Y-19080293D02*
X2722444Y-19032674D01*
X2722444Y-19032674D02*
X2731967Y-18994579D01*
X2731967Y-18994579D02*
X2741491Y-18975531D01*
X2741491Y-18975531D02*
X2751015Y-18966008D01*
X2751015Y-18966008D02*
X2770063Y-18956484D01*
X2960539Y-18956484D02*
X2979586Y-18956484D01*
X2979586Y-18956484D02*
X2998634Y-18966008D01*
X2998634Y-18966008D02*
X3008158Y-18975531D01*
X3008158Y-18975531D02*
X3017682Y-18994579D01*
X3017682Y-18994579D02*
X3027205Y-19032674D01*
X3027205Y-19032674D02*
X3027205Y-19080293D01*
X3027205Y-19080293D02*
X3017682Y-19118389D01*
X3017682Y-19118389D02*
X3008158Y-19137436D01*
X3008158Y-19137436D02*
X2998634Y-19146960D01*
X2998634Y-19146960D02*
X2979586Y-19156484D01*
X2979586Y-19156484D02*
X2960539Y-19156484D01*
X2960539Y-19156484D02*
X2941491Y-19146960D01*
X2941491Y-19146960D02*
X2931967Y-19137436D01*
X2931967Y-19137436D02*
X2922443Y-19118389D01*
X2922443Y-19118389D02*
X2912920Y-19080293D01*
X2912920Y-19080293D02*
X2912920Y-19032674D01*
X2912920Y-19032674D02*
X2922443Y-18994579D01*
X2922443Y-18994579D02*
X2931967Y-18975531D01*
X2931967Y-18975531D02*
X2941491Y-18966008D01*
X2941491Y-18966008D02*
X2960539Y-18956484D01*
X3112920Y-19156484D02*
X3112920Y-19023150D01*
X3112920Y-19042198D02*
X3122443Y-19032674D01*
X3122443Y-19032674D02*
X3141491Y-19023150D01*
X3141491Y-19023150D02*
X3170063Y-19023150D01*
X3170063Y-19023150D02*
X3189110Y-19032674D01*
X3189110Y-19032674D02*
X3198634Y-19051722D01*
X3198634Y-19051722D02*
X3198634Y-19156484D01*
X3198634Y-19051722D02*
X3208158Y-19032674D01*
X3208158Y-19032674D02*
X3227205Y-19023150D01*
X3227205Y-19023150D02*
X3255777Y-19023150D01*
X3255777Y-19023150D02*
X3274824Y-19032674D01*
X3274824Y-19032674D02*
X3284348Y-19051722D01*
X3284348Y-19051722D02*
X3284348Y-19156484D01*
X3379586Y-19156484D02*
X3379586Y-19023150D01*
X3379586Y-19042198D02*
X3389110Y-19032674D01*
X3389110Y-19032674D02*
X3408158Y-19023150D01*
X3408158Y-19023150D02*
X3436729Y-19023150D01*
X3436729Y-19023150D02*
X3455777Y-19032674D01*
X3455777Y-19032674D02*
X3465301Y-19051722D01*
X3465301Y-19051722D02*
X3465301Y-19156484D01*
X3465301Y-19051722D02*
X3474824Y-19032674D01*
X3474824Y-19032674D02*
X3493872Y-19023150D01*
X3493872Y-19023150D02*
X3522443Y-19023150D01*
X3522443Y-19023150D02*
X3541491Y-19032674D01*
X3541491Y-19032674D02*
X3551015Y-19051722D01*
X3551015Y-19051722D02*
X3551015Y-19156484D01*
X3941491Y-18946960D02*
X3770063Y-19204103D01*
X4198634Y-18956484D02*
X4217682Y-18956484D01*
X4217682Y-18956484D02*
X4236729Y-18966008D01*
X4236729Y-18966008D02*
X4246253Y-18975531D01*
X4246253Y-18975531D02*
X4255777Y-18994579D01*
X4255777Y-18994579D02*
X4265301Y-19032674D01*
X4265301Y-19032674D02*
X4265301Y-19080293D01*
X4265301Y-19080293D02*
X4255777Y-19118389D01*
X4255777Y-19118389D02*
X4246253Y-19137436D01*
X4246253Y-19137436D02*
X4236729Y-19146960D01*
X4236729Y-19146960D02*
X4217682Y-19156484D01*
X4217682Y-19156484D02*
X4198634Y-19156484D01*
X4198634Y-19156484D02*
X4179586Y-19146960D01*
X4179586Y-19146960D02*
X4170063Y-19137436D01*
X4170063Y-19137436D02*
X4160539Y-19118389D01*
X4160539Y-19118389D02*
X4151015Y-19080293D01*
X4151015Y-19080293D02*
X4151015Y-19032674D01*
X4151015Y-19032674D02*
X4160539Y-18994579D01*
X4160539Y-18994579D02*
X4170063Y-18975531D01*
X4170063Y-18975531D02*
X4179586Y-18966008D01*
X4179586Y-18966008D02*
X4198634Y-18956484D01*
X4351015Y-19137436D02*
X4360539Y-19146960D01*
X4360539Y-19146960D02*
X4351015Y-19156484D01*
X4351015Y-19156484D02*
X4341491Y-19146960D01*
X4341491Y-19146960D02*
X4351015Y-19137436D01*
X4351015Y-19137436D02*
X4351015Y-19156484D01*
X4484348Y-18956484D02*
X4503396Y-18956484D01*
X4503396Y-18956484D02*
X4522444Y-18966008D01*
X4522444Y-18966008D02*
X4531968Y-18975531D01*
X4531968Y-18975531D02*
X4541491Y-18994579D01*
X4541491Y-18994579D02*
X4551015Y-19032674D01*
X4551015Y-19032674D02*
X4551015Y-19080293D01*
X4551015Y-19080293D02*
X4541491Y-19118389D01*
X4541491Y-19118389D02*
X4531968Y-19137436D01*
X4531968Y-19137436D02*
X4522444Y-19146960D01*
X4522444Y-19146960D02*
X4503396Y-19156484D01*
X4503396Y-19156484D02*
X4484348Y-19156484D01*
X4484348Y-19156484D02*
X4465301Y-19146960D01*
X4465301Y-19146960D02*
X4455777Y-19137436D01*
X4455777Y-19137436D02*
X4446253Y-19118389D01*
X4446253Y-19118389D02*
X4436729Y-19080293D01*
X4436729Y-19080293D02*
X4436729Y-19032674D01*
X4436729Y-19032674D02*
X4446253Y-18994579D01*
X4446253Y-18994579D02*
X4455777Y-18975531D01*
X4455777Y-18975531D02*
X4465301Y-18966008D01*
X4465301Y-18966008D02*
X4484348Y-18956484D01*
X4617682Y-18956484D02*
X4741491Y-18956484D01*
X4741491Y-18956484D02*
X4674825Y-19032674D01*
X4674825Y-19032674D02*
X4703396Y-19032674D01*
X4703396Y-19032674D02*
X4722444Y-19042198D01*
X4722444Y-19042198D02*
X4731968Y-19051722D01*
X4731968Y-19051722D02*
X4741491Y-19070770D01*
X4741491Y-19070770D02*
X4741491Y-19118389D01*
X4741491Y-19118389D02*
X4731968Y-19137436D01*
X4731968Y-19137436D02*
X4722444Y-19146960D01*
X4722444Y-19146960D02*
X4703396Y-19156484D01*
X4703396Y-19156484D02*
X4646253Y-19156484D01*
X4646253Y-19156484D02*
X4627206Y-19146960D01*
X4627206Y-19146960D02*
X4617682Y-19137436D01*
X4922444Y-18956484D02*
X4827206Y-18956484D01*
X4827206Y-18956484D02*
X4817682Y-19051722D01*
X4817682Y-19051722D02*
X4827206Y-19042198D01*
X4827206Y-19042198D02*
X4846253Y-19032674D01*
X4846253Y-19032674D02*
X4893872Y-19032674D01*
X4893872Y-19032674D02*
X4912920Y-19042198D01*
X4912920Y-19042198D02*
X4922444Y-19051722D01*
X4922444Y-19051722D02*
X4931968Y-19070770D01*
X4931968Y-19070770D02*
X4931968Y-19118389D01*
X4931968Y-19118389D02*
X4922444Y-19137436D01*
X4922444Y-19137436D02*
X4912920Y-19146960D01*
X4912920Y-19146960D02*
X4893872Y-19156484D01*
X4893872Y-19156484D02*
X4846253Y-19156484D01*
X4846253Y-19156484D02*
X4827206Y-19146960D01*
X4827206Y-19146960D02*
X4817682Y-19137436D01*
X5103396Y-19023150D02*
X5103396Y-19156484D01*
X5055777Y-18946960D02*
X5008158Y-19089817D01*
X5008158Y-19089817D02*
X5131968Y-19089817D01*
X5198634Y-18956484D02*
X5198634Y-18994579D01*
X5274825Y-18956484D02*
X5274825Y-18994579D01*
X5570063Y-19232674D02*
X5560539Y-19223150D01*
X5560539Y-19223150D02*
X5541491Y-19194579D01*
X5541491Y-19194579D02*
X5531968Y-19175531D01*
X5531968Y-19175531D02*
X5522444Y-19146960D01*
X5522444Y-19146960D02*
X5512920Y-19099341D01*
X5512920Y-19099341D02*
X5512920Y-19061246D01*
X5512920Y-19061246D02*
X5522444Y-19013627D01*
X5522444Y-19013627D02*
X5531968Y-18985055D01*
X5531968Y-18985055D02*
X5541491Y-18966008D01*
X5541491Y-18966008D02*
X5560539Y-18937436D01*
X5560539Y-18937436D02*
X5570063Y-18927912D01*
X5731968Y-19023150D02*
X5731968Y-19156484D01*
X5684348Y-18946960D02*
X5636729Y-19089817D01*
X5636729Y-19089817D02*
X5760539Y-19089817D01*
X5874825Y-18956484D02*
X5893872Y-18956484D01*
X5893872Y-18956484D02*
X5912920Y-18966008D01*
X5912920Y-18966008D02*
X5922444Y-18975531D01*
X5922444Y-18975531D02*
X5931968Y-18994579D01*
X5931968Y-18994579D02*
X5941491Y-19032674D01*
X5941491Y-19032674D02*
X5941491Y-19080293D01*
X5941491Y-19080293D02*
X5931968Y-19118389D01*
X5931968Y-19118389D02*
X5922444Y-19137436D01*
X5922444Y-19137436D02*
X5912920Y-19146960D01*
X5912920Y-19146960D02*
X5893872Y-19156484D01*
X5893872Y-19156484D02*
X5874825Y-19156484D01*
X5874825Y-19156484D02*
X5855777Y-19146960D01*
X5855777Y-19146960D02*
X5846253Y-19137436D01*
X5846253Y-19137436D02*
X5836729Y-19118389D01*
X5836729Y-19118389D02*
X5827206Y-19080293D01*
X5827206Y-19080293D02*
X5827206Y-19032674D01*
X5827206Y-19032674D02*
X5836729Y-18994579D01*
X5836729Y-18994579D02*
X5846253Y-18975531D01*
X5846253Y-18975531D02*
X5855777Y-18966008D01*
X5855777Y-18966008D02*
X5874825Y-18956484D01*
X6179587Y-19156484D02*
X6179587Y-18956484D01*
X6265301Y-19156484D02*
X6265301Y-19051722D01*
X6265301Y-19051722D02*
X6255777Y-19032674D01*
X6255777Y-19032674D02*
X6236730Y-19023150D01*
X6236730Y-19023150D02*
X6208158Y-19023150D01*
X6208158Y-19023150D02*
X6189110Y-19032674D01*
X6189110Y-19032674D02*
X6179587Y-19042198D01*
X6389110Y-19156484D02*
X6370063Y-19146960D01*
X6370063Y-19146960D02*
X6360539Y-19137436D01*
X6360539Y-19137436D02*
X6351015Y-19118389D01*
X6351015Y-19118389D02*
X6351015Y-19061246D01*
X6351015Y-19061246D02*
X6360539Y-19042198D01*
X6360539Y-19042198D02*
X6370063Y-19032674D01*
X6370063Y-19032674D02*
X6389110Y-19023150D01*
X6389110Y-19023150D02*
X6417682Y-19023150D01*
X6417682Y-19023150D02*
X6436730Y-19032674D01*
X6436730Y-19032674D02*
X6446253Y-19042198D01*
X6446253Y-19042198D02*
X6455777Y-19061246D01*
X6455777Y-19061246D02*
X6455777Y-19118389D01*
X6455777Y-19118389D02*
X6446253Y-19137436D01*
X6446253Y-19137436D02*
X6436730Y-19146960D01*
X6436730Y-19146960D02*
X6417682Y-19156484D01*
X6417682Y-19156484D02*
X6389110Y-19156484D01*
X6570063Y-19156484D02*
X6551015Y-19146960D01*
X6551015Y-19146960D02*
X6541491Y-19127912D01*
X6541491Y-19127912D02*
X6541491Y-18956484D01*
X6722444Y-19146960D02*
X6703396Y-19156484D01*
X6703396Y-19156484D02*
X6665301Y-19156484D01*
X6665301Y-19156484D02*
X6646253Y-19146960D01*
X6646253Y-19146960D02*
X6636730Y-19127912D01*
X6636730Y-19127912D02*
X6636730Y-19051722D01*
X6636730Y-19051722D02*
X6646253Y-19032674D01*
X6646253Y-19032674D02*
X6665301Y-19023150D01*
X6665301Y-19023150D02*
X6703396Y-19023150D01*
X6703396Y-19023150D02*
X6722444Y-19032674D01*
X6722444Y-19032674D02*
X6731968Y-19051722D01*
X6731968Y-19051722D02*
X6731968Y-19070770D01*
X6731968Y-19070770D02*
X6636730Y-19089817D01*
X6808158Y-19146960D02*
X6827206Y-19156484D01*
X6827206Y-19156484D02*
X6865301Y-19156484D01*
X6865301Y-19156484D02*
X6884349Y-19146960D01*
X6884349Y-19146960D02*
X6893872Y-19127912D01*
X6893872Y-19127912D02*
X6893872Y-19118389D01*
X6893872Y-19118389D02*
X6884349Y-19099341D01*
X6884349Y-19099341D02*
X6865301Y-19089817D01*
X6865301Y-19089817D02*
X6836730Y-19089817D01*
X6836730Y-19089817D02*
X6817682Y-19080293D01*
X6817682Y-19080293D02*
X6808158Y-19061246D01*
X6808158Y-19061246D02*
X6808158Y-19051722D01*
X6808158Y-19051722D02*
X6817682Y-19032674D01*
X6817682Y-19032674D02*
X6836730Y-19023150D01*
X6836730Y-19023150D02*
X6865301Y-19023150D01*
X6865301Y-19023150D02*
X6884349Y-19032674D01*
X6960539Y-19232674D02*
X6970063Y-19223150D01*
X6970063Y-19223150D02*
X6989111Y-19194579D01*
X6989111Y-19194579D02*
X6998634Y-19175531D01*
X6998634Y-19175531D02*
X7008158Y-19146960D01*
X7008158Y-19146960D02*
X7017682Y-19099341D01*
X7017682Y-19099341D02*
X7017682Y-19061246D01*
X7017682Y-19061246D02*
X7008158Y-19013627D01*
X7008158Y-19013627D02*
X6998634Y-18985055D01*
X6998634Y-18985055D02*
X6989111Y-18966008D01*
X6989111Y-18966008D02*
X6970063Y-18937436D01*
X6970063Y-18937436D02*
X6960539Y-18927912D01*
D10*
X1895000Y-19279000D02*
X1995000Y-19379000D01*
X1995000Y-19279000D02*
X1895000Y-19379000D01*
X1945000Y-19279000D02*
X1945000Y-19379000D01*
X1895000Y-19329000D02*
X1995000Y-19329000D01*
D11*
X2360539Y-19420484D02*
X2246253Y-19420484D01*
X2303396Y-19420484D02*
X2303396Y-19220484D01*
X2303396Y-19220484D02*
X2284348Y-19249055D01*
X2284348Y-19249055D02*
X2265301Y-19268103D01*
X2265301Y-19268103D02*
X2246253Y-19277627D01*
X2446253Y-19401436D02*
X2455777Y-19410960D01*
X2455777Y-19410960D02*
X2446253Y-19420484D01*
X2446253Y-19420484D02*
X2436729Y-19410960D01*
X2436729Y-19410960D02*
X2446253Y-19401436D01*
X2446253Y-19401436D02*
X2446253Y-19420484D01*
X2579586Y-19220484D02*
X2598634Y-19220484D01*
X2598634Y-19220484D02*
X2617682Y-19230008D01*
X2617682Y-19230008D02*
X2627205Y-19239531D01*
X2627205Y-19239531D02*
X2636729Y-19258579D01*
X2636729Y-19258579D02*
X2646253Y-19296674D01*
X2646253Y-19296674D02*
X2646253Y-19344293D01*
X2646253Y-19344293D02*
X2636729Y-19382389D01*
X2636729Y-19382389D02*
X2627205Y-19401436D01*
X2627205Y-19401436D02*
X2617682Y-19410960D01*
X2617682Y-19410960D02*
X2598634Y-19420484D01*
X2598634Y-19420484D02*
X2579586Y-19420484D01*
X2579586Y-19420484D02*
X2560539Y-19410960D01*
X2560539Y-19410960D02*
X2551015Y-19401436D01*
X2551015Y-19401436D02*
X2541491Y-19382389D01*
X2541491Y-19382389D02*
X2531967Y-19344293D01*
X2531967Y-19344293D02*
X2531967Y-19296674D01*
X2531967Y-19296674D02*
X2541491Y-19258579D01*
X2541491Y-19258579D02*
X2551015Y-19239531D01*
X2551015Y-19239531D02*
X2560539Y-19230008D01*
X2560539Y-19230008D02*
X2579586Y-19220484D01*
X2770063Y-19220484D02*
X2789110Y-19220484D01*
X2789110Y-19220484D02*
X2808158Y-19230008D01*
X2808158Y-19230008D02*
X2817682Y-19239531D01*
X2817682Y-19239531D02*
X2827205Y-19258579D01*
X2827205Y-19258579D02*
X2836729Y-19296674D01*
X2836729Y-19296674D02*
X2836729Y-19344293D01*
X2836729Y-19344293D02*
X2827205Y-19382389D01*
X2827205Y-19382389D02*
X2817682Y-19401436D01*
X2817682Y-19401436D02*
X2808158Y-19410960D01*
X2808158Y-19410960D02*
X2789110Y-19420484D01*
X2789110Y-19420484D02*
X2770063Y-19420484D01*
X2770063Y-19420484D02*
X2751015Y-19410960D01*
X2751015Y-19410960D02*
X2741491Y-19401436D01*
X2741491Y-19401436D02*
X2731967Y-19382389D01*
X2731967Y-19382389D02*
X2722444Y-19344293D01*
X2722444Y-19344293D02*
X2722444Y-19296674D01*
X2722444Y-19296674D02*
X2731967Y-19258579D01*
X2731967Y-19258579D02*
X2741491Y-19239531D01*
X2741491Y-19239531D02*
X2751015Y-19230008D01*
X2751015Y-19230008D02*
X2770063Y-19220484D01*
X2960539Y-19220484D02*
X2979586Y-19220484D01*
X2979586Y-19220484D02*
X2998634Y-19230008D01*
X2998634Y-19230008D02*
X3008158Y-19239531D01*
X3008158Y-19239531D02*
X3017682Y-19258579D01*
X3017682Y-19258579D02*
X3027205Y-19296674D01*
X3027205Y-19296674D02*
X3027205Y-19344293D01*
X3027205Y-19344293D02*
X3017682Y-19382389D01*
X3017682Y-19382389D02*
X3008158Y-19401436D01*
X3008158Y-19401436D02*
X2998634Y-19410960D01*
X2998634Y-19410960D02*
X2979586Y-19420484D01*
X2979586Y-19420484D02*
X2960539Y-19420484D01*
X2960539Y-19420484D02*
X2941491Y-19410960D01*
X2941491Y-19410960D02*
X2931967Y-19401436D01*
X2931967Y-19401436D02*
X2922443Y-19382389D01*
X2922443Y-19382389D02*
X2912920Y-19344293D01*
X2912920Y-19344293D02*
X2912920Y-19296674D01*
X2912920Y-19296674D02*
X2922443Y-19258579D01*
X2922443Y-19258579D02*
X2931967Y-19239531D01*
X2931967Y-19239531D02*
X2941491Y-19230008D01*
X2941491Y-19230008D02*
X2960539Y-19220484D01*
X3112920Y-19420484D02*
X3112920Y-19287150D01*
X3112920Y-19306198D02*
X3122443Y-19296674D01*
X3122443Y-19296674D02*
X3141491Y-19287150D01*
X3141491Y-19287150D02*
X3170063Y-19287150D01*
X3170063Y-19287150D02*
X3189110Y-19296674D01*
X3189110Y-19296674D02*
X3198634Y-19315722D01*
X3198634Y-19315722D02*
X3198634Y-19420484D01*
X3198634Y-19315722D02*
X3208158Y-19296674D01*
X3208158Y-19296674D02*
X3227205Y-19287150D01*
X3227205Y-19287150D02*
X3255777Y-19287150D01*
X3255777Y-19287150D02*
X3274824Y-19296674D01*
X3274824Y-19296674D02*
X3284348Y-19315722D01*
X3284348Y-19315722D02*
X3284348Y-19420484D01*
X3379586Y-19420484D02*
X3379586Y-19287150D01*
X3379586Y-19306198D02*
X3389110Y-19296674D01*
X3389110Y-19296674D02*
X3408158Y-19287150D01*
X3408158Y-19287150D02*
X3436729Y-19287150D01*
X3436729Y-19287150D02*
X3455777Y-19296674D01*
X3455777Y-19296674D02*
X3465301Y-19315722D01*
X3465301Y-19315722D02*
X3465301Y-19420484D01*
X3465301Y-19315722D02*
X3474824Y-19296674D01*
X3474824Y-19296674D02*
X3493872Y-19287150D01*
X3493872Y-19287150D02*
X3522443Y-19287150D01*
X3522443Y-19287150D02*
X3541491Y-19296674D01*
X3541491Y-19296674D02*
X3551015Y-19315722D01*
X3551015Y-19315722D02*
X3551015Y-19420484D01*
X3941491Y-19210960D02*
X3770063Y-19468103D01*
X4198634Y-19220484D02*
X4217682Y-19220484D01*
X4217682Y-19220484D02*
X4236729Y-19230008D01*
X4236729Y-19230008D02*
X4246253Y-19239531D01*
X4246253Y-19239531D02*
X4255777Y-19258579D01*
X4255777Y-19258579D02*
X4265301Y-19296674D01*
X4265301Y-19296674D02*
X4265301Y-19344293D01*
X4265301Y-19344293D02*
X4255777Y-19382389D01*
X4255777Y-19382389D02*
X4246253Y-19401436D01*
X4246253Y-19401436D02*
X4236729Y-19410960D01*
X4236729Y-19410960D02*
X4217682Y-19420484D01*
X4217682Y-19420484D02*
X4198634Y-19420484D01*
X4198634Y-19420484D02*
X4179586Y-19410960D01*
X4179586Y-19410960D02*
X4170063Y-19401436D01*
X4170063Y-19401436D02*
X4160539Y-19382389D01*
X4160539Y-19382389D02*
X4151015Y-19344293D01*
X4151015Y-19344293D02*
X4151015Y-19296674D01*
X4151015Y-19296674D02*
X4160539Y-19258579D01*
X4160539Y-19258579D02*
X4170063Y-19239531D01*
X4170063Y-19239531D02*
X4179586Y-19230008D01*
X4179586Y-19230008D02*
X4198634Y-19220484D01*
X4351015Y-19401436D02*
X4360539Y-19410960D01*
X4360539Y-19410960D02*
X4351015Y-19420484D01*
X4351015Y-19420484D02*
X4341491Y-19410960D01*
X4341491Y-19410960D02*
X4351015Y-19401436D01*
X4351015Y-19401436D02*
X4351015Y-19420484D01*
X4484348Y-19220484D02*
X4503396Y-19220484D01*
X4503396Y-19220484D02*
X4522444Y-19230008D01*
X4522444Y-19230008D02*
X4531968Y-19239531D01*
X4531968Y-19239531D02*
X4541491Y-19258579D01*
X4541491Y-19258579D02*
X4551015Y-19296674D01*
X4551015Y-19296674D02*
X4551015Y-19344293D01*
X4551015Y-19344293D02*
X4541491Y-19382389D01*
X4541491Y-19382389D02*
X4531968Y-19401436D01*
X4531968Y-19401436D02*
X4522444Y-19410960D01*
X4522444Y-19410960D02*
X4503396Y-19420484D01*
X4503396Y-19420484D02*
X4484348Y-19420484D01*
X4484348Y-19420484D02*
X4465301Y-19410960D01*
X4465301Y-19410960D02*
X4455777Y-19401436D01*
X4455777Y-19401436D02*
X4446253Y-19382389D01*
X4446253Y-19382389D02*
X4436729Y-19344293D01*
X4436729Y-19344293D02*
X4436729Y-19296674D01*
X4436729Y-19296674D02*
X4446253Y-19258579D01*
X4446253Y-19258579D02*
X4455777Y-19239531D01*
X4455777Y-19239531D02*
X4465301Y-19230008D01*
X4465301Y-19230008D02*
X4484348Y-19220484D01*
X4617682Y-19220484D02*
X4741491Y-19220484D01*
X4741491Y-19220484D02*
X4674825Y-19296674D01*
X4674825Y-19296674D02*
X4703396Y-19296674D01*
X4703396Y-19296674D02*
X4722444Y-19306198D01*
X4722444Y-19306198D02*
X4731968Y-19315722D01*
X4731968Y-19315722D02*
X4741491Y-19334770D01*
X4741491Y-19334770D02*
X4741491Y-19382389D01*
X4741491Y-19382389D02*
X4731968Y-19401436D01*
X4731968Y-19401436D02*
X4722444Y-19410960D01*
X4722444Y-19410960D02*
X4703396Y-19420484D01*
X4703396Y-19420484D02*
X4646253Y-19420484D01*
X4646253Y-19420484D02*
X4627206Y-19410960D01*
X4627206Y-19410960D02*
X4617682Y-19401436D01*
X4836729Y-19420484D02*
X4874825Y-19420484D01*
X4874825Y-19420484D02*
X4893872Y-19410960D01*
X4893872Y-19410960D02*
X4903396Y-19401436D01*
X4903396Y-19401436D02*
X4922444Y-19372865D01*
X4922444Y-19372865D02*
X4931968Y-19334770D01*
X4931968Y-19334770D02*
X4931968Y-19258579D01*
X4931968Y-19258579D02*
X4922444Y-19239531D01*
X4922444Y-19239531D02*
X4912920Y-19230008D01*
X4912920Y-19230008D02*
X4893872Y-19220484D01*
X4893872Y-19220484D02*
X4855777Y-19220484D01*
X4855777Y-19220484D02*
X4836729Y-19230008D01*
X4836729Y-19230008D02*
X4827206Y-19239531D01*
X4827206Y-19239531D02*
X4817682Y-19258579D01*
X4817682Y-19258579D02*
X4817682Y-19306198D01*
X4817682Y-19306198D02*
X4827206Y-19325246D01*
X4827206Y-19325246D02*
X4836729Y-19334770D01*
X4836729Y-19334770D02*
X4855777Y-19344293D01*
X4855777Y-19344293D02*
X4893872Y-19344293D01*
X4893872Y-19344293D02*
X4912920Y-19334770D01*
X4912920Y-19334770D02*
X4922444Y-19325246D01*
X4922444Y-19325246D02*
X4931968Y-19306198D01*
X5103396Y-19287150D02*
X5103396Y-19420484D01*
X5055777Y-19210960D02*
X5008158Y-19353817D01*
X5008158Y-19353817D02*
X5131968Y-19353817D01*
X5198634Y-19220484D02*
X5198634Y-19258579D01*
X5274825Y-19220484D02*
X5274825Y-19258579D01*
X5570063Y-19496674D02*
X5560539Y-19487150D01*
X5560539Y-19487150D02*
X5541491Y-19458579D01*
X5541491Y-19458579D02*
X5531968Y-19439531D01*
X5531968Y-19439531D02*
X5522444Y-19410960D01*
X5522444Y-19410960D02*
X5512920Y-19363341D01*
X5512920Y-19363341D02*
X5512920Y-19325246D01*
X5512920Y-19325246D02*
X5522444Y-19277627D01*
X5522444Y-19277627D02*
X5531968Y-19249055D01*
X5531968Y-19249055D02*
X5541491Y-19230008D01*
X5541491Y-19230008D02*
X5560539Y-19201436D01*
X5560539Y-19201436D02*
X5570063Y-19191912D01*
X5751015Y-19420484D02*
X5636729Y-19420484D01*
X5693872Y-19420484D02*
X5693872Y-19220484D01*
X5693872Y-19220484D02*
X5674825Y-19249055D01*
X5674825Y-19249055D02*
X5655777Y-19268103D01*
X5655777Y-19268103D02*
X5636729Y-19277627D01*
X5931968Y-19220484D02*
X5836729Y-19220484D01*
X5836729Y-19220484D02*
X5827206Y-19315722D01*
X5827206Y-19315722D02*
X5836729Y-19306198D01*
X5836729Y-19306198D02*
X5855777Y-19296674D01*
X5855777Y-19296674D02*
X5903396Y-19296674D01*
X5903396Y-19296674D02*
X5922444Y-19306198D01*
X5922444Y-19306198D02*
X5931968Y-19315722D01*
X5931968Y-19315722D02*
X5941491Y-19334770D01*
X5941491Y-19334770D02*
X5941491Y-19382389D01*
X5941491Y-19382389D02*
X5931968Y-19401436D01*
X5931968Y-19401436D02*
X5922444Y-19410960D01*
X5922444Y-19410960D02*
X5903396Y-19420484D01*
X5903396Y-19420484D02*
X5855777Y-19420484D01*
X5855777Y-19420484D02*
X5836729Y-19410960D01*
X5836729Y-19410960D02*
X5827206Y-19401436D01*
X6112920Y-19220484D02*
X6074825Y-19220484D01*
X6074825Y-19220484D02*
X6055777Y-19230008D01*
X6055777Y-19230008D02*
X6046253Y-19239531D01*
X6046253Y-19239531D02*
X6027206Y-19268103D01*
X6027206Y-19268103D02*
X6017682Y-19306198D01*
X6017682Y-19306198D02*
X6017682Y-19382389D01*
X6017682Y-19382389D02*
X6027206Y-19401436D01*
X6027206Y-19401436D02*
X6036729Y-19410960D01*
X6036729Y-19410960D02*
X6055777Y-19420484D01*
X6055777Y-19420484D02*
X6093872Y-19420484D01*
X6093872Y-19420484D02*
X6112920Y-19410960D01*
X6112920Y-19410960D02*
X6122444Y-19401436D01*
X6122444Y-19401436D02*
X6131968Y-19382389D01*
X6131968Y-19382389D02*
X6131968Y-19334770D01*
X6131968Y-19334770D02*
X6122444Y-19315722D01*
X6122444Y-19315722D02*
X6112920Y-19306198D01*
X6112920Y-19306198D02*
X6093872Y-19296674D01*
X6093872Y-19296674D02*
X6055777Y-19296674D01*
X6055777Y-19296674D02*
X6036729Y-19306198D01*
X6036729Y-19306198D02*
X6027206Y-19315722D01*
X6027206Y-19315722D02*
X6017682Y-19334770D01*
X6370063Y-19420484D02*
X6370063Y-19220484D01*
X6455777Y-19420484D02*
X6455777Y-19315722D01*
X6455777Y-19315722D02*
X6446253Y-19296674D01*
X6446253Y-19296674D02*
X6427206Y-19287150D01*
X6427206Y-19287150D02*
X6398634Y-19287150D01*
X6398634Y-19287150D02*
X6379587Y-19296674D01*
X6379587Y-19296674D02*
X6370063Y-19306198D01*
X6579587Y-19420484D02*
X6560539Y-19410960D01*
X6560539Y-19410960D02*
X6551015Y-19401436D01*
X6551015Y-19401436D02*
X6541491Y-19382389D01*
X6541491Y-19382389D02*
X6541491Y-19325246D01*
X6541491Y-19325246D02*
X6551015Y-19306198D01*
X6551015Y-19306198D02*
X6560539Y-19296674D01*
X6560539Y-19296674D02*
X6579587Y-19287150D01*
X6579587Y-19287150D02*
X6608158Y-19287150D01*
X6608158Y-19287150D02*
X6627206Y-19296674D01*
X6627206Y-19296674D02*
X6636730Y-19306198D01*
X6636730Y-19306198D02*
X6646253Y-19325246D01*
X6646253Y-19325246D02*
X6646253Y-19382389D01*
X6646253Y-19382389D02*
X6636730Y-19401436D01*
X6636730Y-19401436D02*
X6627206Y-19410960D01*
X6627206Y-19410960D02*
X6608158Y-19420484D01*
X6608158Y-19420484D02*
X6579587Y-19420484D01*
X6760539Y-19420484D02*
X6741491Y-19410960D01*
X6741491Y-19410960D02*
X6731968Y-19391912D01*
X6731968Y-19391912D02*
X6731968Y-19220484D01*
X6912920Y-19410960D02*
X6893872Y-19420484D01*
X6893872Y-19420484D02*
X6855777Y-19420484D01*
X6855777Y-19420484D02*
X6836730Y-19410960D01*
X6836730Y-19410960D02*
X6827206Y-19391912D01*
X6827206Y-19391912D02*
X6827206Y-19315722D01*
X6827206Y-19315722D02*
X6836730Y-19296674D01*
X6836730Y-19296674D02*
X6855777Y-19287150D01*
X6855777Y-19287150D02*
X6893872Y-19287150D01*
X6893872Y-19287150D02*
X6912920Y-19296674D01*
X6912920Y-19296674D02*
X6922444Y-19315722D01*
X6922444Y-19315722D02*
X6922444Y-19334770D01*
X6922444Y-19334770D02*
X6827206Y-19353817D01*
X6998634Y-19410960D02*
X7017682Y-19420484D01*
X7017682Y-19420484D02*
X7055777Y-19420484D01*
X7055777Y-19420484D02*
X7074825Y-19410960D01*
X7074825Y-19410960D02*
X7084349Y-19391912D01*
X7084349Y-19391912D02*
X7084349Y-19382389D01*
X7084349Y-19382389D02*
X7074825Y-19363341D01*
X7074825Y-19363341D02*
X7055777Y-19353817D01*
X7055777Y-19353817D02*
X7027206Y-19353817D01*
X7027206Y-19353817D02*
X7008158Y-19344293D01*
X7008158Y-19344293D02*
X6998634Y-19325246D01*
X6998634Y-19325246D02*
X6998634Y-19315722D01*
X6998634Y-19315722D02*
X7008158Y-19296674D01*
X7008158Y-19296674D02*
X7027206Y-19287150D01*
X7027206Y-19287150D02*
X7055777Y-19287150D01*
X7055777Y-19287150D02*
X7074825Y-19296674D01*
X7151015Y-19496674D02*
X7160539Y-19487150D01*
X7160539Y-19487150D02*
X7179587Y-19458579D01*
X7179587Y-19458579D02*
X7189111Y-19439531D01*
X7189111Y-19439531D02*
X7198634Y-19410960D01*
X7198634Y-19410960D02*
X7208158Y-19363341D01*
X7208158Y-19363341D02*
X7208158Y-19325246D01*
X7208158Y-19325246D02*
X7198634Y-19277627D01*
X7198634Y-19277627D02*
X7189111Y-19249055D01*
X7189111Y-19249055D02*
X7179587Y-19230008D01*
X7179587Y-19230008D02*
X7160539Y-19201436D01*
X7160539Y-19201436D02*
X7151015Y-19191912D01*
D18*
X1875000Y-19533000D02*
X1995000Y-19653000D01*
X1995000Y-19533000D02*
X1875000Y-19653000D01*
X1977427Y-19635427D02*
X1977427Y-19550573D01*
X1892573Y-19550573D01*
X1892573Y-19635427D01*
X1977427Y-19635427D01*
D11*
X2360539Y-19684484D02*
X2246253Y-19684484D01*
X2303396Y-19684484D02*
X2303396Y-19484484D01*
X2303396Y-19484484D02*
X2284348Y-19513055D01*
X2284348Y-19513055D02*
X2265301Y-19532103D01*
X2265301Y-19532103D02*
X2246253Y-19541627D01*
X2446253Y-19665436D02*
X2455777Y-19674960D01*
X2455777Y-19674960D02*
X2446253Y-19684484D01*
X2446253Y-19684484D02*
X2436729Y-19674960D01*
X2436729Y-19674960D02*
X2446253Y-19665436D01*
X2446253Y-19665436D02*
X2446253Y-19684484D01*
X2531967Y-19503531D02*
X2541491Y-19494008D01*
X2541491Y-19494008D02*
X2560539Y-19484484D01*
X2560539Y-19484484D02*
X2608158Y-19484484D01*
X2608158Y-19484484D02*
X2627205Y-19494008D01*
X2627205Y-19494008D02*
X2636729Y-19503531D01*
X2636729Y-19503531D02*
X2646253Y-19522579D01*
X2646253Y-19522579D02*
X2646253Y-19541627D01*
X2646253Y-19541627D02*
X2636729Y-19570198D01*
X2636729Y-19570198D02*
X2522444Y-19684484D01*
X2522444Y-19684484D02*
X2646253Y-19684484D01*
X2770063Y-19484484D02*
X2789110Y-19484484D01*
X2789110Y-19484484D02*
X2808158Y-19494008D01*
X2808158Y-19494008D02*
X2817682Y-19503531D01*
X2817682Y-19503531D02*
X2827205Y-19522579D01*
X2827205Y-19522579D02*
X2836729Y-19560674D01*
X2836729Y-19560674D02*
X2836729Y-19608293D01*
X2836729Y-19608293D02*
X2827205Y-19646389D01*
X2827205Y-19646389D02*
X2817682Y-19665436D01*
X2817682Y-19665436D02*
X2808158Y-19674960D01*
X2808158Y-19674960D02*
X2789110Y-19684484D01*
X2789110Y-19684484D02*
X2770063Y-19684484D01*
X2770063Y-19684484D02*
X2751015Y-19674960D01*
X2751015Y-19674960D02*
X2741491Y-19665436D01*
X2741491Y-19665436D02*
X2731967Y-19646389D01*
X2731967Y-19646389D02*
X2722444Y-19608293D01*
X2722444Y-19608293D02*
X2722444Y-19560674D01*
X2722444Y-19560674D02*
X2731967Y-19522579D01*
X2731967Y-19522579D02*
X2741491Y-19503531D01*
X2741491Y-19503531D02*
X2751015Y-19494008D01*
X2751015Y-19494008D02*
X2770063Y-19484484D01*
X2960539Y-19484484D02*
X2979586Y-19484484D01*
X2979586Y-19484484D02*
X2998634Y-19494008D01*
X2998634Y-19494008D02*
X3008158Y-19503531D01*
X3008158Y-19503531D02*
X3017682Y-19522579D01*
X3017682Y-19522579D02*
X3027205Y-19560674D01*
X3027205Y-19560674D02*
X3027205Y-19608293D01*
X3027205Y-19608293D02*
X3017682Y-19646389D01*
X3017682Y-19646389D02*
X3008158Y-19665436D01*
X3008158Y-19665436D02*
X2998634Y-19674960D01*
X2998634Y-19674960D02*
X2979586Y-19684484D01*
X2979586Y-19684484D02*
X2960539Y-19684484D01*
X2960539Y-19684484D02*
X2941491Y-19674960D01*
X2941491Y-19674960D02*
X2931967Y-19665436D01*
X2931967Y-19665436D02*
X2922443Y-19646389D01*
X2922443Y-19646389D02*
X2912920Y-19608293D01*
X2912920Y-19608293D02*
X2912920Y-19560674D01*
X2912920Y-19560674D02*
X2922443Y-19522579D01*
X2922443Y-19522579D02*
X2931967Y-19503531D01*
X2931967Y-19503531D02*
X2941491Y-19494008D01*
X2941491Y-19494008D02*
X2960539Y-19484484D01*
X3112920Y-19684484D02*
X3112920Y-19551150D01*
X3112920Y-19570198D02*
X3122443Y-19560674D01*
X3122443Y-19560674D02*
X3141491Y-19551150D01*
X3141491Y-19551150D02*
X3170063Y-19551150D01*
X3170063Y-19551150D02*
X3189110Y-19560674D01*
X3189110Y-19560674D02*
X3198634Y-19579722D01*
X3198634Y-19579722D02*
X3198634Y-19684484D01*
X3198634Y-19579722D02*
X3208158Y-19560674D01*
X3208158Y-19560674D02*
X3227205Y-19551150D01*
X3227205Y-19551150D02*
X3255777Y-19551150D01*
X3255777Y-19551150D02*
X3274824Y-19560674D01*
X3274824Y-19560674D02*
X3284348Y-19579722D01*
X3284348Y-19579722D02*
X3284348Y-19684484D01*
X3379586Y-19684484D02*
X3379586Y-19551150D01*
X3379586Y-19570198D02*
X3389110Y-19560674D01*
X3389110Y-19560674D02*
X3408158Y-19551150D01*
X3408158Y-19551150D02*
X3436729Y-19551150D01*
X3436729Y-19551150D02*
X3455777Y-19560674D01*
X3455777Y-19560674D02*
X3465301Y-19579722D01*
X3465301Y-19579722D02*
X3465301Y-19684484D01*
X3465301Y-19579722D02*
X3474824Y-19560674D01*
X3474824Y-19560674D02*
X3493872Y-19551150D01*
X3493872Y-19551150D02*
X3522443Y-19551150D01*
X3522443Y-19551150D02*
X3541491Y-19560674D01*
X3541491Y-19560674D02*
X3551015Y-19579722D01*
X3551015Y-19579722D02*
X3551015Y-19684484D01*
X3941491Y-19474960D02*
X3770063Y-19732103D01*
X4198634Y-19484484D02*
X4217682Y-19484484D01*
X4217682Y-19484484D02*
X4236729Y-19494008D01*
X4236729Y-19494008D02*
X4246253Y-19503531D01*
X4246253Y-19503531D02*
X4255777Y-19522579D01*
X4255777Y-19522579D02*
X4265301Y-19560674D01*
X4265301Y-19560674D02*
X4265301Y-19608293D01*
X4265301Y-19608293D02*
X4255777Y-19646389D01*
X4255777Y-19646389D02*
X4246253Y-19665436D01*
X4246253Y-19665436D02*
X4236729Y-19674960D01*
X4236729Y-19674960D02*
X4217682Y-19684484D01*
X4217682Y-19684484D02*
X4198634Y-19684484D01*
X4198634Y-19684484D02*
X4179586Y-19674960D01*
X4179586Y-19674960D02*
X4170063Y-19665436D01*
X4170063Y-19665436D02*
X4160539Y-19646389D01*
X4160539Y-19646389D02*
X4151015Y-19608293D01*
X4151015Y-19608293D02*
X4151015Y-19560674D01*
X4151015Y-19560674D02*
X4160539Y-19522579D01*
X4160539Y-19522579D02*
X4170063Y-19503531D01*
X4170063Y-19503531D02*
X4179586Y-19494008D01*
X4179586Y-19494008D02*
X4198634Y-19484484D01*
X4351015Y-19665436D02*
X4360539Y-19674960D01*
X4360539Y-19674960D02*
X4351015Y-19684484D01*
X4351015Y-19684484D02*
X4341491Y-19674960D01*
X4341491Y-19674960D02*
X4351015Y-19665436D01*
X4351015Y-19665436D02*
X4351015Y-19684484D01*
X4484348Y-19484484D02*
X4503396Y-19484484D01*
X4503396Y-19484484D02*
X4522444Y-19494008D01*
X4522444Y-19494008D02*
X4531968Y-19503531D01*
X4531968Y-19503531D02*
X4541491Y-19522579D01*
X4541491Y-19522579D02*
X4551015Y-19560674D01*
X4551015Y-19560674D02*
X4551015Y-19608293D01*
X4551015Y-19608293D02*
X4541491Y-19646389D01*
X4541491Y-19646389D02*
X4531968Y-19665436D01*
X4531968Y-19665436D02*
X4522444Y-19674960D01*
X4522444Y-19674960D02*
X4503396Y-19684484D01*
X4503396Y-19684484D02*
X4484348Y-19684484D01*
X4484348Y-19684484D02*
X4465301Y-19674960D01*
X4465301Y-19674960D02*
X4455777Y-19665436D01*
X4455777Y-19665436D02*
X4446253Y-19646389D01*
X4446253Y-19646389D02*
X4436729Y-19608293D01*
X4436729Y-19608293D02*
X4436729Y-19560674D01*
X4436729Y-19560674D02*
X4446253Y-19522579D01*
X4446253Y-19522579D02*
X4455777Y-19503531D01*
X4455777Y-19503531D02*
X4465301Y-19494008D01*
X4465301Y-19494008D02*
X4484348Y-19484484D01*
X4722444Y-19551150D02*
X4722444Y-19684484D01*
X4674825Y-19474960D02*
X4627206Y-19617817D01*
X4627206Y-19617817D02*
X4751015Y-19617817D01*
X4808158Y-19484484D02*
X4941491Y-19484484D01*
X4941491Y-19484484D02*
X4855777Y-19684484D01*
X5008158Y-19503531D02*
X5017682Y-19494008D01*
X5017682Y-19494008D02*
X5036729Y-19484484D01*
X5036729Y-19484484D02*
X5084349Y-19484484D01*
X5084349Y-19484484D02*
X5103396Y-19494008D01*
X5103396Y-19494008D02*
X5112920Y-19503531D01*
X5112920Y-19503531D02*
X5122444Y-19522579D01*
X5122444Y-19522579D02*
X5122444Y-19541627D01*
X5122444Y-19541627D02*
X5112920Y-19570198D01*
X5112920Y-19570198D02*
X4998634Y-19684484D01*
X4998634Y-19684484D02*
X5122444Y-19684484D01*
X5198634Y-19484484D02*
X5198634Y-19522579D01*
X5274825Y-19484484D02*
X5274825Y-19522579D01*
X5570063Y-19760674D02*
X5560539Y-19751150D01*
X5560539Y-19751150D02*
X5541491Y-19722579D01*
X5541491Y-19722579D02*
X5531968Y-19703531D01*
X5531968Y-19703531D02*
X5522444Y-19674960D01*
X5522444Y-19674960D02*
X5512920Y-19627341D01*
X5512920Y-19627341D02*
X5512920Y-19589246D01*
X5512920Y-19589246D02*
X5522444Y-19541627D01*
X5522444Y-19541627D02*
X5531968Y-19513055D01*
X5531968Y-19513055D02*
X5541491Y-19494008D01*
X5541491Y-19494008D02*
X5560539Y-19465436D01*
X5560539Y-19465436D02*
X5570063Y-19455912D01*
X5636729Y-19503531D02*
X5646253Y-19494008D01*
X5646253Y-19494008D02*
X5665301Y-19484484D01*
X5665301Y-19484484D02*
X5712920Y-19484484D01*
X5712920Y-19484484D02*
X5731968Y-19494008D01*
X5731968Y-19494008D02*
X5741491Y-19503531D01*
X5741491Y-19503531D02*
X5751015Y-19522579D01*
X5751015Y-19522579D02*
X5751015Y-19541627D01*
X5751015Y-19541627D02*
X5741491Y-19570198D01*
X5741491Y-19570198D02*
X5627206Y-19684484D01*
X5627206Y-19684484D02*
X5751015Y-19684484D01*
X5989110Y-19684484D02*
X5989110Y-19484484D01*
X6074825Y-19684484D02*
X6074825Y-19579722D01*
X6074825Y-19579722D02*
X6065301Y-19560674D01*
X6065301Y-19560674D02*
X6046253Y-19551150D01*
X6046253Y-19551150D02*
X6017682Y-19551150D01*
X6017682Y-19551150D02*
X5998634Y-19560674D01*
X5998634Y-19560674D02*
X5989110Y-19570198D01*
X6198634Y-19684484D02*
X6179587Y-19674960D01*
X6179587Y-19674960D02*
X6170063Y-19665436D01*
X6170063Y-19665436D02*
X6160539Y-19646389D01*
X6160539Y-19646389D02*
X6160539Y-19589246D01*
X6160539Y-19589246D02*
X6170063Y-19570198D01*
X6170063Y-19570198D02*
X6179587Y-19560674D01*
X6179587Y-19560674D02*
X6198634Y-19551150D01*
X6198634Y-19551150D02*
X6227206Y-19551150D01*
X6227206Y-19551150D02*
X6246253Y-19560674D01*
X6246253Y-19560674D02*
X6255777Y-19570198D01*
X6255777Y-19570198D02*
X6265301Y-19589246D01*
X6265301Y-19589246D02*
X6265301Y-19646389D01*
X6265301Y-19646389D02*
X6255777Y-19665436D01*
X6255777Y-19665436D02*
X6246253Y-19674960D01*
X6246253Y-19674960D02*
X6227206Y-19684484D01*
X6227206Y-19684484D02*
X6198634Y-19684484D01*
X6379587Y-19684484D02*
X6360539Y-19674960D01*
X6360539Y-19674960D02*
X6351015Y-19655912D01*
X6351015Y-19655912D02*
X6351015Y-19484484D01*
X6531968Y-19674960D02*
X6512920Y-19684484D01*
X6512920Y-19684484D02*
X6474825Y-19684484D01*
X6474825Y-19684484D02*
X6455777Y-19674960D01*
X6455777Y-19674960D02*
X6446253Y-19655912D01*
X6446253Y-19655912D02*
X6446253Y-19579722D01*
X6446253Y-19579722D02*
X6455777Y-19560674D01*
X6455777Y-19560674D02*
X6474825Y-19551150D01*
X6474825Y-19551150D02*
X6512920Y-19551150D01*
X6512920Y-19551150D02*
X6531968Y-19560674D01*
X6531968Y-19560674D02*
X6541491Y-19579722D01*
X6541491Y-19579722D02*
X6541491Y-19598770D01*
X6541491Y-19598770D02*
X6446253Y-19617817D01*
X6617682Y-19674960D02*
X6636730Y-19684484D01*
X6636730Y-19684484D02*
X6674825Y-19684484D01*
X6674825Y-19684484D02*
X6693872Y-19674960D01*
X6693872Y-19674960D02*
X6703396Y-19655912D01*
X6703396Y-19655912D02*
X6703396Y-19646389D01*
X6703396Y-19646389D02*
X6693872Y-19627341D01*
X6693872Y-19627341D02*
X6674825Y-19617817D01*
X6674825Y-19617817D02*
X6646253Y-19617817D01*
X6646253Y-19617817D02*
X6627206Y-19608293D01*
X6627206Y-19608293D02*
X6617682Y-19589246D01*
X6617682Y-19589246D02*
X6617682Y-19579722D01*
X6617682Y-19579722D02*
X6627206Y-19560674D01*
X6627206Y-19560674D02*
X6646253Y-19551150D01*
X6646253Y-19551150D02*
X6674825Y-19551150D01*
X6674825Y-19551150D02*
X6693872Y-19560674D01*
X6770063Y-19760674D02*
X6779587Y-19751150D01*
X6779587Y-19751150D02*
X6798634Y-19722579D01*
X6798634Y-19722579D02*
X6808158Y-19703531D01*
X6808158Y-19703531D02*
X6817682Y-19674960D01*
X6817682Y-19674960D02*
X6827206Y-19627341D01*
X6827206Y-19627341D02*
X6827206Y-19589246D01*
X6827206Y-19589246D02*
X6817682Y-19541627D01*
X6817682Y-19541627D02*
X6808158Y-19513055D01*
X6808158Y-19513055D02*
X6798634Y-19494008D01*
X6798634Y-19494008D02*
X6779587Y-19465436D01*
X6779587Y-19465436D02*
X6770063Y-19455912D01*
D19*
X1835000Y-19777000D02*
X1995000Y-19937000D01*
X1995000Y-19777000D02*
X1835000Y-19937000D01*
X1915000Y-19937000D02*
X1995000Y-19857000D01*
X1915000Y-19777000D01*
X1835000Y-19857000D01*
X1915000Y-19937000D01*
D11*
X2360539Y-19948484D02*
X2246253Y-19948484D01*
X2303396Y-19948484D02*
X2303396Y-19748484D01*
X2303396Y-19748484D02*
X2284348Y-19777055D01*
X2284348Y-19777055D02*
X2265301Y-19796103D01*
X2265301Y-19796103D02*
X2246253Y-19805627D01*
X2446253Y-19929436D02*
X2455777Y-19938960D01*
X2455777Y-19938960D02*
X2446253Y-19948484D01*
X2446253Y-19948484D02*
X2436729Y-19938960D01*
X2436729Y-19938960D02*
X2446253Y-19929436D01*
X2446253Y-19929436D02*
X2446253Y-19948484D01*
X2627205Y-19748484D02*
X2589110Y-19748484D01*
X2589110Y-19748484D02*
X2570063Y-19758008D01*
X2570063Y-19758008D02*
X2560539Y-19767531D01*
X2560539Y-19767531D02*
X2541491Y-19796103D01*
X2541491Y-19796103D02*
X2531967Y-19834198D01*
X2531967Y-19834198D02*
X2531967Y-19910389D01*
X2531967Y-19910389D02*
X2541491Y-19929436D01*
X2541491Y-19929436D02*
X2551015Y-19938960D01*
X2551015Y-19938960D02*
X2570063Y-19948484D01*
X2570063Y-19948484D02*
X2608158Y-19948484D01*
X2608158Y-19948484D02*
X2627205Y-19938960D01*
X2627205Y-19938960D02*
X2636729Y-19929436D01*
X2636729Y-19929436D02*
X2646253Y-19910389D01*
X2646253Y-19910389D02*
X2646253Y-19862770D01*
X2646253Y-19862770D02*
X2636729Y-19843722D01*
X2636729Y-19843722D02*
X2627205Y-19834198D01*
X2627205Y-19834198D02*
X2608158Y-19824674D01*
X2608158Y-19824674D02*
X2570063Y-19824674D01*
X2570063Y-19824674D02*
X2551015Y-19834198D01*
X2551015Y-19834198D02*
X2541491Y-19843722D01*
X2541491Y-19843722D02*
X2531967Y-19862770D01*
X2770063Y-19748484D02*
X2789110Y-19748484D01*
X2789110Y-19748484D02*
X2808158Y-19758008D01*
X2808158Y-19758008D02*
X2817682Y-19767531D01*
X2817682Y-19767531D02*
X2827205Y-19786579D01*
X2827205Y-19786579D02*
X2836729Y-19824674D01*
X2836729Y-19824674D02*
X2836729Y-19872293D01*
X2836729Y-19872293D02*
X2827205Y-19910389D01*
X2827205Y-19910389D02*
X2817682Y-19929436D01*
X2817682Y-19929436D02*
X2808158Y-19938960D01*
X2808158Y-19938960D02*
X2789110Y-19948484D01*
X2789110Y-19948484D02*
X2770063Y-19948484D01*
X2770063Y-19948484D02*
X2751015Y-19938960D01*
X2751015Y-19938960D02*
X2741491Y-19929436D01*
X2741491Y-19929436D02*
X2731967Y-19910389D01*
X2731967Y-19910389D02*
X2722444Y-19872293D01*
X2722444Y-19872293D02*
X2722444Y-19824674D01*
X2722444Y-19824674D02*
X2731967Y-19786579D01*
X2731967Y-19786579D02*
X2741491Y-19767531D01*
X2741491Y-19767531D02*
X2751015Y-19758008D01*
X2751015Y-19758008D02*
X2770063Y-19748484D01*
X2960539Y-19748484D02*
X2979586Y-19748484D01*
X2979586Y-19748484D02*
X2998634Y-19758008D01*
X2998634Y-19758008D02*
X3008158Y-19767531D01*
X3008158Y-19767531D02*
X3017682Y-19786579D01*
X3017682Y-19786579D02*
X3027205Y-19824674D01*
X3027205Y-19824674D02*
X3027205Y-19872293D01*
X3027205Y-19872293D02*
X3017682Y-19910389D01*
X3017682Y-19910389D02*
X3008158Y-19929436D01*
X3008158Y-19929436D02*
X2998634Y-19938960D01*
X2998634Y-19938960D02*
X2979586Y-19948484D01*
X2979586Y-19948484D02*
X2960539Y-19948484D01*
X2960539Y-19948484D02*
X2941491Y-19938960D01*
X2941491Y-19938960D02*
X2931967Y-19929436D01*
X2931967Y-19929436D02*
X2922443Y-19910389D01*
X2922443Y-19910389D02*
X2912920Y-19872293D01*
X2912920Y-19872293D02*
X2912920Y-19824674D01*
X2912920Y-19824674D02*
X2922443Y-19786579D01*
X2922443Y-19786579D02*
X2931967Y-19767531D01*
X2931967Y-19767531D02*
X2941491Y-19758008D01*
X2941491Y-19758008D02*
X2960539Y-19748484D01*
X3112920Y-19948484D02*
X3112920Y-19815150D01*
X3112920Y-19834198D02*
X3122443Y-19824674D01*
X3122443Y-19824674D02*
X3141491Y-19815150D01*
X3141491Y-19815150D02*
X3170063Y-19815150D01*
X3170063Y-19815150D02*
X3189110Y-19824674D01*
X3189110Y-19824674D02*
X3198634Y-19843722D01*
X3198634Y-19843722D02*
X3198634Y-19948484D01*
X3198634Y-19843722D02*
X3208158Y-19824674D01*
X3208158Y-19824674D02*
X3227205Y-19815150D01*
X3227205Y-19815150D02*
X3255777Y-19815150D01*
X3255777Y-19815150D02*
X3274824Y-19824674D01*
X3274824Y-19824674D02*
X3284348Y-19843722D01*
X3284348Y-19843722D02*
X3284348Y-19948484D01*
X3379586Y-19948484D02*
X3379586Y-19815150D01*
X3379586Y-19834198D02*
X3389110Y-19824674D01*
X3389110Y-19824674D02*
X3408158Y-19815150D01*
X3408158Y-19815150D02*
X3436729Y-19815150D01*
X3436729Y-19815150D02*
X3455777Y-19824674D01*
X3455777Y-19824674D02*
X3465301Y-19843722D01*
X3465301Y-19843722D02*
X3465301Y-19948484D01*
X3465301Y-19843722D02*
X3474824Y-19824674D01*
X3474824Y-19824674D02*
X3493872Y-19815150D01*
X3493872Y-19815150D02*
X3522443Y-19815150D01*
X3522443Y-19815150D02*
X3541491Y-19824674D01*
X3541491Y-19824674D02*
X3551015Y-19843722D01*
X3551015Y-19843722D02*
X3551015Y-19948484D01*
X3941491Y-19738960D02*
X3770063Y-19996103D01*
X4198634Y-19748484D02*
X4217682Y-19748484D01*
X4217682Y-19748484D02*
X4236729Y-19758008D01*
X4236729Y-19758008D02*
X4246253Y-19767531D01*
X4246253Y-19767531D02*
X4255777Y-19786579D01*
X4255777Y-19786579D02*
X4265301Y-19824674D01*
X4265301Y-19824674D02*
X4265301Y-19872293D01*
X4265301Y-19872293D02*
X4255777Y-19910389D01*
X4255777Y-19910389D02*
X4246253Y-19929436D01*
X4246253Y-19929436D02*
X4236729Y-19938960D01*
X4236729Y-19938960D02*
X4217682Y-19948484D01*
X4217682Y-19948484D02*
X4198634Y-19948484D01*
X4198634Y-19948484D02*
X4179586Y-19938960D01*
X4179586Y-19938960D02*
X4170063Y-19929436D01*
X4170063Y-19929436D02*
X4160539Y-19910389D01*
X4160539Y-19910389D02*
X4151015Y-19872293D01*
X4151015Y-19872293D02*
X4151015Y-19824674D01*
X4151015Y-19824674D02*
X4160539Y-19786579D01*
X4160539Y-19786579D02*
X4170063Y-19767531D01*
X4170063Y-19767531D02*
X4179586Y-19758008D01*
X4179586Y-19758008D02*
X4198634Y-19748484D01*
X4351015Y-19929436D02*
X4360539Y-19938960D01*
X4360539Y-19938960D02*
X4351015Y-19948484D01*
X4351015Y-19948484D02*
X4341491Y-19938960D01*
X4341491Y-19938960D02*
X4351015Y-19929436D01*
X4351015Y-19929436D02*
X4351015Y-19948484D01*
X4484348Y-19748484D02*
X4503396Y-19748484D01*
X4503396Y-19748484D02*
X4522444Y-19758008D01*
X4522444Y-19758008D02*
X4531968Y-19767531D01*
X4531968Y-19767531D02*
X4541491Y-19786579D01*
X4541491Y-19786579D02*
X4551015Y-19824674D01*
X4551015Y-19824674D02*
X4551015Y-19872293D01*
X4551015Y-19872293D02*
X4541491Y-19910389D01*
X4541491Y-19910389D02*
X4531968Y-19929436D01*
X4531968Y-19929436D02*
X4522444Y-19938960D01*
X4522444Y-19938960D02*
X4503396Y-19948484D01*
X4503396Y-19948484D02*
X4484348Y-19948484D01*
X4484348Y-19948484D02*
X4465301Y-19938960D01*
X4465301Y-19938960D02*
X4455777Y-19929436D01*
X4455777Y-19929436D02*
X4446253Y-19910389D01*
X4446253Y-19910389D02*
X4436729Y-19872293D01*
X4436729Y-19872293D02*
X4436729Y-19824674D01*
X4436729Y-19824674D02*
X4446253Y-19786579D01*
X4446253Y-19786579D02*
X4455777Y-19767531D01*
X4455777Y-19767531D02*
X4465301Y-19758008D01*
X4465301Y-19758008D02*
X4484348Y-19748484D01*
X4722444Y-19748484D02*
X4684348Y-19748484D01*
X4684348Y-19748484D02*
X4665301Y-19758008D01*
X4665301Y-19758008D02*
X4655777Y-19767531D01*
X4655777Y-19767531D02*
X4636729Y-19796103D01*
X4636729Y-19796103D02*
X4627206Y-19834198D01*
X4627206Y-19834198D02*
X4627206Y-19910389D01*
X4627206Y-19910389D02*
X4636729Y-19929436D01*
X4636729Y-19929436D02*
X4646253Y-19938960D01*
X4646253Y-19938960D02*
X4665301Y-19948484D01*
X4665301Y-19948484D02*
X4703396Y-19948484D01*
X4703396Y-19948484D02*
X4722444Y-19938960D01*
X4722444Y-19938960D02*
X4731968Y-19929436D01*
X4731968Y-19929436D02*
X4741491Y-19910389D01*
X4741491Y-19910389D02*
X4741491Y-19862770D01*
X4741491Y-19862770D02*
X4731968Y-19843722D01*
X4731968Y-19843722D02*
X4722444Y-19834198D01*
X4722444Y-19834198D02*
X4703396Y-19824674D01*
X4703396Y-19824674D02*
X4665301Y-19824674D01*
X4665301Y-19824674D02*
X4646253Y-19834198D01*
X4646253Y-19834198D02*
X4636729Y-19843722D01*
X4636729Y-19843722D02*
X4627206Y-19862770D01*
X4808158Y-19748484D02*
X4931968Y-19748484D01*
X4931968Y-19748484D02*
X4865301Y-19824674D01*
X4865301Y-19824674D02*
X4893872Y-19824674D01*
X4893872Y-19824674D02*
X4912920Y-19834198D01*
X4912920Y-19834198D02*
X4922444Y-19843722D01*
X4922444Y-19843722D02*
X4931968Y-19862770D01*
X4931968Y-19862770D02*
X4931968Y-19910389D01*
X4931968Y-19910389D02*
X4922444Y-19929436D01*
X4922444Y-19929436D02*
X4912920Y-19938960D01*
X4912920Y-19938960D02*
X4893872Y-19948484D01*
X4893872Y-19948484D02*
X4836729Y-19948484D01*
X4836729Y-19948484D02*
X4817682Y-19938960D01*
X4817682Y-19938960D02*
X4808158Y-19929436D01*
X5055777Y-19748484D02*
X5074825Y-19748484D01*
X5074825Y-19748484D02*
X5093872Y-19758008D01*
X5093872Y-19758008D02*
X5103396Y-19767531D01*
X5103396Y-19767531D02*
X5112920Y-19786579D01*
X5112920Y-19786579D02*
X5122444Y-19824674D01*
X5122444Y-19824674D02*
X5122444Y-19872293D01*
X5122444Y-19872293D02*
X5112920Y-19910389D01*
X5112920Y-19910389D02*
X5103396Y-19929436D01*
X5103396Y-19929436D02*
X5093872Y-19938960D01*
X5093872Y-19938960D02*
X5074825Y-19948484D01*
X5074825Y-19948484D02*
X5055777Y-19948484D01*
X5055777Y-19948484D02*
X5036729Y-19938960D01*
X5036729Y-19938960D02*
X5027206Y-19929436D01*
X5027206Y-19929436D02*
X5017682Y-19910389D01*
X5017682Y-19910389D02*
X5008158Y-19872293D01*
X5008158Y-19872293D02*
X5008158Y-19824674D01*
X5008158Y-19824674D02*
X5017682Y-19786579D01*
X5017682Y-19786579D02*
X5027206Y-19767531D01*
X5027206Y-19767531D02*
X5036729Y-19758008D01*
X5036729Y-19758008D02*
X5055777Y-19748484D01*
X5198634Y-19748484D02*
X5198634Y-19786579D01*
X5274825Y-19748484D02*
X5274825Y-19786579D01*
X5570063Y-20024674D02*
X5560539Y-20015150D01*
X5560539Y-20015150D02*
X5541491Y-19986579D01*
X5541491Y-19986579D02*
X5531968Y-19967531D01*
X5531968Y-19967531D02*
X5522444Y-19938960D01*
X5522444Y-19938960D02*
X5512920Y-19891341D01*
X5512920Y-19891341D02*
X5512920Y-19853246D01*
X5512920Y-19853246D02*
X5522444Y-19805627D01*
X5522444Y-19805627D02*
X5531968Y-19777055D01*
X5531968Y-19777055D02*
X5541491Y-19758008D01*
X5541491Y-19758008D02*
X5560539Y-19729436D01*
X5560539Y-19729436D02*
X5570063Y-19719912D01*
X5751015Y-19948484D02*
X5636729Y-19948484D01*
X5693872Y-19948484D02*
X5693872Y-19748484D01*
X5693872Y-19748484D02*
X5674825Y-19777055D01*
X5674825Y-19777055D02*
X5655777Y-19796103D01*
X5655777Y-19796103D02*
X5636729Y-19805627D01*
X5874825Y-19748484D02*
X5893872Y-19748484D01*
X5893872Y-19748484D02*
X5912920Y-19758008D01*
X5912920Y-19758008D02*
X5922444Y-19767531D01*
X5922444Y-19767531D02*
X5931968Y-19786579D01*
X5931968Y-19786579D02*
X5941491Y-19824674D01*
X5941491Y-19824674D02*
X5941491Y-19872293D01*
X5941491Y-19872293D02*
X5931968Y-19910389D01*
X5931968Y-19910389D02*
X5922444Y-19929436D01*
X5922444Y-19929436D02*
X5912920Y-19938960D01*
X5912920Y-19938960D02*
X5893872Y-19948484D01*
X5893872Y-19948484D02*
X5874825Y-19948484D01*
X5874825Y-19948484D02*
X5855777Y-19938960D01*
X5855777Y-19938960D02*
X5846253Y-19929436D01*
X5846253Y-19929436D02*
X5836729Y-19910389D01*
X5836729Y-19910389D02*
X5827206Y-19872293D01*
X5827206Y-19872293D02*
X5827206Y-19824674D01*
X5827206Y-19824674D02*
X5836729Y-19786579D01*
X5836729Y-19786579D02*
X5846253Y-19767531D01*
X5846253Y-19767531D02*
X5855777Y-19758008D01*
X5855777Y-19758008D02*
X5874825Y-19748484D01*
X6179587Y-19948484D02*
X6179587Y-19748484D01*
X6265301Y-19948484D02*
X6265301Y-19843722D01*
X6265301Y-19843722D02*
X6255777Y-19824674D01*
X6255777Y-19824674D02*
X6236730Y-19815150D01*
X6236730Y-19815150D02*
X6208158Y-19815150D01*
X6208158Y-19815150D02*
X6189110Y-19824674D01*
X6189110Y-19824674D02*
X6179587Y-19834198D01*
X6389110Y-19948484D02*
X6370063Y-19938960D01*
X6370063Y-19938960D02*
X6360539Y-19929436D01*
X6360539Y-19929436D02*
X6351015Y-19910389D01*
X6351015Y-19910389D02*
X6351015Y-19853246D01*
X6351015Y-19853246D02*
X6360539Y-19834198D01*
X6360539Y-19834198D02*
X6370063Y-19824674D01*
X6370063Y-19824674D02*
X6389110Y-19815150D01*
X6389110Y-19815150D02*
X6417682Y-19815150D01*
X6417682Y-19815150D02*
X6436730Y-19824674D01*
X6436730Y-19824674D02*
X6446253Y-19834198D01*
X6446253Y-19834198D02*
X6455777Y-19853246D01*
X6455777Y-19853246D02*
X6455777Y-19910389D01*
X6455777Y-19910389D02*
X6446253Y-19929436D01*
X6446253Y-19929436D02*
X6436730Y-19938960D01*
X6436730Y-19938960D02*
X6417682Y-19948484D01*
X6417682Y-19948484D02*
X6389110Y-19948484D01*
X6570063Y-19948484D02*
X6551015Y-19938960D01*
X6551015Y-19938960D02*
X6541491Y-19919912D01*
X6541491Y-19919912D02*
X6541491Y-19748484D01*
X6722444Y-19938960D02*
X6703396Y-19948484D01*
X6703396Y-19948484D02*
X6665301Y-19948484D01*
X6665301Y-19948484D02*
X6646253Y-19938960D01*
X6646253Y-19938960D02*
X6636730Y-19919912D01*
X6636730Y-19919912D02*
X6636730Y-19843722D01*
X6636730Y-19843722D02*
X6646253Y-19824674D01*
X6646253Y-19824674D02*
X6665301Y-19815150D01*
X6665301Y-19815150D02*
X6703396Y-19815150D01*
X6703396Y-19815150D02*
X6722444Y-19824674D01*
X6722444Y-19824674D02*
X6731968Y-19843722D01*
X6731968Y-19843722D02*
X6731968Y-19862770D01*
X6731968Y-19862770D02*
X6636730Y-19881817D01*
X6808158Y-19938960D02*
X6827206Y-19948484D01*
X6827206Y-19948484D02*
X6865301Y-19948484D01*
X6865301Y-19948484D02*
X6884349Y-19938960D01*
X6884349Y-19938960D02*
X6893872Y-19919912D01*
X6893872Y-19919912D02*
X6893872Y-19910389D01*
X6893872Y-19910389D02*
X6884349Y-19891341D01*
X6884349Y-19891341D02*
X6865301Y-19881817D01*
X6865301Y-19881817D02*
X6836730Y-19881817D01*
X6836730Y-19881817D02*
X6817682Y-19872293D01*
X6817682Y-19872293D02*
X6808158Y-19853246D01*
X6808158Y-19853246D02*
X6808158Y-19843722D01*
X6808158Y-19843722D02*
X6817682Y-19824674D01*
X6817682Y-19824674D02*
X6836730Y-19815150D01*
X6836730Y-19815150D02*
X6865301Y-19815150D01*
X6865301Y-19815150D02*
X6884349Y-19824674D01*
X6960539Y-20024674D02*
X6970063Y-20015150D01*
X6970063Y-20015150D02*
X6989111Y-19986579D01*
X6989111Y-19986579D02*
X6998634Y-19967531D01*
X6998634Y-19967531D02*
X7008158Y-19938960D01*
X7008158Y-19938960D02*
X7017682Y-19891341D01*
X7017682Y-19891341D02*
X7017682Y-19853246D01*
X7017682Y-19853246D02*
X7008158Y-19805627D01*
X7008158Y-19805627D02*
X6998634Y-19777055D01*
X6998634Y-19777055D02*
X6989111Y-19758008D01*
X6989111Y-19758008D02*
X6970063Y-19729436D01*
X6970063Y-19729436D02*
X6960539Y-19719912D01*
M02*
